<?xml version="1.0" encoding="utf-8"?>
<COLLADA version="1.5.0" xmlns="http://www.collada.org/2008/03/COLLADASchema">
	<asset>
		<contributor>
			<authoring_tool>BrawlBox</authoring_tool>
		</contributor>
		<created>2022-11-10T17:31:38Z</created>
		<modified>2022-11-10T17:31:38Z</modified>
		<unit meter="0.01" name="centimeter" />
		<up_axis>Y_UP</up_axis>
	</asset>
	<library_images>
		<image id="enm_pawn_astcos_dif_SD-image" name="enm_pawn_astcos_dif_SD">
			<init_from>
				<ref>enm_pawn_astcos_dif_SD.png</ref>
			</init_from>
		</image>
		<image id="enm_pawn_astcos_ref_SD-image" name="enm_pawn_astcos_ref_SD">
			<init_from>
				<ref>enm_pawn_astcos_ref_SD.png</ref>
			</init_from>
		</image>
		<image id="enm_pawn_astcos_spc_SD-image" name="enm_pawn_astcos_spc_SD">
			<init_from>
				<ref>enm_pawn_astcos_spc_SD.png</ref>
			</init_from>
		</image>
		<image id="enm_pawn_astcos_spr_SD-image" name="enm_pawn_astcos_spr_SD">
			<init_from>
				<ref>enm_pawn_astcos_spr_SD.png</ref>
			</init_from>
		</image>
	</library_images>
	<library_materials>
		<material id="nm_eggpawn_astcos__enLuminouseO__">
			<instance_effect url="#nm_eggpawn_astcos__enLuminouseO__-fx" />
		</material>
		<material id="nm_eggpawn_astcos__enMetal__">
			<instance_effect url="#nm_eggpawn_astcos__enMetal__-fx" />
		</material>
	</library_materials>
	<library_effects>
		<effect id="nm_eggpawn_astcos__enLuminouseO__-fx" name="nm_eggpawn_astcos__enLuminouseO__">
			<profile_COMMON>
				<newparam sid="enm_pawn_astcos_dif_SD-surface">
					<surface type="2D">
						<init_from>
							<ref>enm_pawn_astcos_dif_SD-image</ref>
						</init_from>
					</surface>
				</newparam>
				<newparam sid="enm_pawn_astcos_dif_SD-sampler">
					<sampler2D>
						<source>enm_pawn_astcos_dif_SD-surface</source>
						<instance_image url="#enm_pawn_astcos_dif_SD-image" />
						<wrap_s>WRAP</wrap_s>
						<wrap_t>WRAP</wrap_t>
						<minfilter>LINEAR_MIPMAP_LINEAR</minfilter>
						<magfilter>LINEAR</magfilter>
					</sampler2D>
				</newparam>
				<technique sid="COMMON">
					<phong>
						<diffuse>
							<texture texture="enm_pawn_astcos_dif_SD-sampler" texcoord="TEXCOORD0" />
						</diffuse>
					</phong>
				</technique>
			</profile_COMMON>
		</effect>
		<effect id="nm_eggpawn_astcos__enMetal__-fx" name="nm_eggpawn_astcos__enMetal__">
			<profile_COMMON>
				<newparam sid="enm_pawn_astcos_dif_SD-surface">
					<surface type="2D">
						<init_from>
							<ref>enm_pawn_astcos_dif_SD-image</ref>
						</init_from>
					</surface>
				</newparam>
				<newparam sid="enm_pawn_astcos_dif_SD-sampler">
					<sampler2D>
						<source>enm_pawn_astcos_dif_SD-surface</source>
						<instance_image url="#enm_pawn_astcos_dif_SD-image" />
						<wrap_s>WRAP</wrap_s>
						<wrap_t>WRAP</wrap_t>
						<minfilter>LINEAR_MIPMAP_LINEAR</minfilter>
						<magfilter>LINEAR</magfilter>
					</sampler2D>
				</newparam>
				<technique sid="COMMON">
					<phong>
						<diffuse>
							<texture texture="enm_pawn_astcos_dif_SD-sampler" texcoord="TEXCOORD0" />
						</diffuse>
					</phong>
				</technique>
			</profile_COMMON>
		</effect>
	</library_effects>
	<library_geometries>
		<geometry id="polygon0" name="polygon0">
			<mesh>
				<source id="polygon0_Positions">
					<float_array id="polygon0_PosArr" count="219">0.8486328 2.622885 4.081787 0 2.622885 4.081787 0.590332 3.783286 3.741211 0 3.785239 3.741211 0 5.366049 2.529785 -0.590332 3.783286 3.741211 -0.5493164 5.234946 2.529785 -0.8486328 2.622885 4.081787 -0.8076172 4.909018 2.256104 -2.366943 4.069174 2.451904 -1.880859 5.024252 0.1159668 -3.547119 3.99935 0.1159668 -2.366943 4.069174 -2.219971 -3.933594 2.622153 -0.9379883 -2.879639 2.622153 -2.763428 0.5493164 5.234946 2.529785 0 6.189047 0.1159668 0.5305176 6.058188 0.1159668 0 5.668295 -1.924072 0.5461426 5.537436 -1.843262 0 4.068198 -3.397949 0.7143555 3.937339 -3.276367 0 2.622153 -3.966064 0.7412109 2.622153 -3.844482 -0.7412109 2.622153 -3.844482 -0.7143555 3.937339 -3.276367 -0.8076172 4.99642 -1.725342 -0.5461426 5.537436 -1.843262 -0.7890625 5.469565 0.1159668 -0.5305176 6.058188 0.1159668 0.8076172 4.909018 2.256104 2.366943 4.069174 2.451904 1.880859 5.024252 0.1159668 3.547119 3.99935 0.1159668 2.366943 4.069174 -2.219971 3.933594 2.622153 -0.9379883 2.879639 2.622153 -2.763428 3.633789 3.130454 -0.6894531 3.845703 2.690024 0.1159668 4.875732 3.707114 0.1159668 3.633789 3.130454 0.9216309 4.325195 4.216635 0.7570801 3.062988 3.913657 0.9472656 3.766602 4.733969 0.1159668 2.881348 4.353842 0.1159668 3.062988 3.913657 -0.7150879 0.7890625 5.469565 0.1159668 0.8076172 4.99642 -1.725342 2.879639 2.622153 2.995605 -2.881348 4.353842 0.1159668 -3.766602 4.733969 0.1159668 -3.062988 3.913657 -0.7150879 -4.325195 4.216635 -0.5251465 -3.633789 3.130454 -0.6894531 -4.875732 3.707114 0.1159668 -2.879639 2.622153 2.995605 -3.933594 2.622153 1.169922 4.325195 4.216635 -0.5251465 5.113525 4.138266 0.1159668 4.62793 4.551352 0.6652832 5.809082 6.515952 0.1159668 4.14209 4.964682 0.1159668 4.62793 4.551352 -0.4331055 3.933594 2.622153 1.169922 -3.845703 2.690024 0.1159668 -3.633789 3.130454 0.9216309 -5.113525 4.138266 0.1159668 -5.809082 6.515952 0.1159668 -4.62793 4.551352 0.6652832 -4.14209 4.964682 0.1159668 -4.62793 4.551352 -0.4331055 -4.325195 4.216635 0.7570801 -3.062988 3.913657 0.9472656</float_array>
					<technique_common>
						<accessor source="#polygon0_PosArr" count="73" stride="3">
							<param name="X" type="float" />
							<param name="Y" type="float" />
							<param name="Z" type="float" />
						</accessor>
					</technique_common>
				</source>
				<source id="polygon0_Normals">
					<float_array id="polygon0_NormArr" count="243">0.2828369 0.4206543 0.8619995 0 0.2814941 0.9595337 0.4876099 0.4440918 0.7516479 0 0.4526978 0.8916626 0 0.8346558 0.5507202 -0.4876099 0.4440918 0.7516479 -0.5411377 0.6852417 0.4874268 -0.2828369 0.4206543 0.8619995 -0.6797485 0.6273804 0.3798828 -0.5239868 0.6572266 0.541687 -0.4527588 0.8916016 0.0004272461 -0.7737427 0.6335449 0 -0.5460815 0.6535034 -0.5241699 -0.859314 0.4271851 -0.28125 -0.6105347 0.4587402 -0.6455688 0.5411377 0.6852417 0.4874268 0 0.9993286 0.03704834 0.6022339 0.7979126 0.02459717 0 0.8567505 -0.5157471 0.6029663 0.6947021 -0.3921509 0 0.5386353 -0.8425293 0.3510742 0.5212402 -0.777832 0 0.3890381 -0.9212036 0.2919312 0.4002686 -0.8686523 -0.2919312 0.4002686 -0.8686523 -0.3510742 0.5212402 -0.777832 -0.6970215 0.6497192 -0.3033447 -0.6029663 0.6947021 -0.3921509 -0.7294922 0.68396 0.0006713867 -0.6022339 0.7979126 0.02459717 0.6797485 0.6273804 0.3798828 0.5239868 0.6572266 0.541687 0.4527588 0.8916016 0.0004272461 0.7737427 0.6335449 0 0.5460815 0.6535034 -0.5241699 0.859314 0.4271851 -0.28125 0.6105347 0.4587402 -0.6455688 0.4646606 -0.2958374 -0.8345947 0.7026978 -0.7114868 0 0.8505249 -0.5259399 0 0.4646606 -0.2958374 0.8345947 0.2437744 0.1722412 0.9544067 -0.07049561 0.5222778 0.8498535 -0.3466797 0.9379883 0 -0.3945313 0.9188843 0 -0.07049561 0.5222778 -0.8498535 0.7294922 0.68396 0.0006713867 0.6970215 0.6497192 -0.3033447 -0.0003051758 -1 0 -6.103516E-05 -1 6.103516E-05 -0.0001220703 -1 6.103516E-05 0 -1 6.103516E-05 0.3945313 0.9188843 0 0.3466797 0.9379883 0 0.07049561 0.5222778 -0.8498535 -0.2437744 0.1722412 -0.9544067 -0.4646606 -0.2958374 -0.8345947 -0.8505249 -0.5259399 0 -0.6175537 0.4587402 0.638916 -0.859314 0.4271851 0.28125 0.2437744 0.1722412 -0.9544067 0.9174194 -0.3978882 0 0.1674805 0.1461182 0.9749756 0.5220337 0.8529053 0 -0.6034546 0.7974243 0 0.1674805 0.1461182 -0.9749756 0 -1 0 6.103516E-05 -1 6.103516E-05 0.0003051758 -1 0 0.0001220703 -1 6.103516E-05 -0.7026978 -0.7114868 0 -0.4646606 -0.2958374 0.8345947 -0.9174194 -0.3978882 0 -0.5220337 0.8529053 0 -0.1674805 0.1461182 0.9749756 0.6034546 0.7974243 0 -0.1674805 0.1461182 -0.9749756 -0.2437744 0.1722412 0.9544067 0.07049561 0.5222778 0.8498535 0.6175537 0.4587402 0.638916 0.859314 0.4271851 0.28125</float_array>
					<technique_common>
						<accessor source="#polygon0_NormArr" count="81" stride="3">
							<param name="X" type="float" />
							<param name="Y" type="float" />
							<param name="Z" type="float" />
						</accessor>
					</technique_common>
				</source>
				<source id="polygon0_UVs0">
					<float_array id="polygon0_UVArr0" count="102">0.692688 0.1878662 0.5908508 0.1878662 0.6425171 0.2301025 0.5908508 0.2301025 0.5908508 0.3859253 0.6425171 0.3800964 0.692688 0.3859253 0.7960205 0.3179321 0.7858276 0.5585327 0.9072571 0.5585327 0.833313 0.7903137 0.9891968 0.699707 0.9135132 0.9229736 0.5908508 0.5585327 0.6425171 0.5585327 0.5908508 0.7288513 0.6425171 0.7288513 0.5908508 0.8796387 0.642395 0.8796387 0.5908508 0.994751 0.6425476 0.994751 0.692688 0.7288513 0.692688 0.5585327 0.4041443 0.4483948 0.4041443 0.5123596 0.4498291 0.493042 0.4041443 0.5751343 0.4498291 0.586853 0.4064331 0.6126709 0.4498291 0.6476746 0.4110413 0.6506348 0.4064331 0.6915283 0.9277039 0.05108643 0.655304 0.05108643 0.9769287 0.1358948 0.6041565 0.1358948 0.9769287 0.162323 0.6002502 0.162323 0.4498291 0.68573 0.4041443 0.7649231 0.4498291 0.7206421 0.8960876 0.2314453 0.9891968 0.399231 0.4682922 0.5151367 0.4682922 0.5826416 0.5654297 0.605835 0.4682922 0.624176 0.4682922 0.664917 0.7416382 0.01037598 0.8413696 0.01037598 0.4682922 0.6987305</float_array>
					<technique_common>
						<accessor source="#polygon0_UVArr0" count="51" stride="2">
							<param name="S" type="float" />
							<param name="T" type="float" />
						</accessor>
					</technique_common>
				</source>
				<source id="polygon0_UVs1">
					<float_array id="polygon0_UVArr1" count="102">0.692688 0.1878662 0.5908508 0.1878662 0.6425171 0.2301025 0.5908508 0.2301025 0.5908508 0.3859253 0.6425171 0.3800964 0.692688 0.3859253 0.7960205 0.3179321 0.7858276 0.5585327 0.9072571 0.5585327 0.833313 0.7903137 0.9891968 0.699707 0.9135132 0.9229736 0.5908508 0.5585327 0.6425171 0.5585327 0.5908508 0.7288513 0.6425171 0.7288513 0.5908508 0.8796387 0.642395 0.8796387 0.5908508 0.994751 0.6425476 0.994751 0.692688 0.7288513 0.692688 0.5585327 0.4041443 0.4483948 0.4041443 0.5123596 0.4498291 0.493042 0.4041443 0.5751343 0.4498291 0.586853 0.4064331 0.6126709 0.4498291 0.6476746 0.4110413 0.6506348 0.4064331 0.6915283 0.9277039 0.05108643 0.655304 0.05108643 0.9769287 0.1358948 0.6041565 0.1358948 0.9769287 0.162323 0.6002502 0.162323 0.4498291 0.68573 0.4041443 0.7649231 0.4498291 0.7206421 0.8960876 0.2314453 0.9891968 0.399231 0.4682922 0.5151367 0.4682922 0.5826416 0.5654297 0.605835 0.4682922 0.624176 0.4682922 0.664917 0.7416382 0.01037598 0.8413696 0.01037598 0.4682922 0.6987305</float_array>
					<technique_common>
						<accessor source="#polygon0_UVArr1" count="51" stride="2">
							<param name="S" type="float" />
							<param name="T" type="float" />
						</accessor>
					</technique_common>
				</source>
				<vertices id="polygon0_Vertices">
					<input semantic="POSITION" source="#polygon0_Positions" />
				</vertices>
				<triangles material="nm_eggpawn_astcos__enMetal__" count="110">
					<input semantic="VERTEX" source="#polygon0_Vertices" offset="0" />
					<input semantic="NORMAL" source="#polygon0_Normals" offset="1" />
					<input semantic="TEXCOORD" source="#polygon0_UVs0" set="0" offset="2" />
					<input semantic="TEXCOORD" source="#polygon0_UVs1" set="1" offset="3" />
					<p>2 2 2 2 1 1 1 1 0 0 0 0 3 3 3 3 1 1 1 1 2 2 2 2 4 4 4 4 3 3 3 3 2 2 2 2 5 5 2 2 3 3 3 3 4 4 4 4 6 6 5 5 5 5 2 2 4 4 4 4 7 7 0 0 5 5 2 2 6 6 5 5 8 8 6 6 7 7 0 0 6 6 5 5 9 9 7 7 7 7 0 0 8 8 6 6 10 10 8 8 9 9 7 7 8 8 6 6 11 11 9 9 9 9 7 7 10 10 8 8 12 12 10 10 11 11 9 9 10 10 8 8 13 13 11 11 11 11 9 9 12 12 10 10 14 14 12 12 13 13 11 11 12 12 10 10 15 15 5 5 4 4 4 4 2 2 2 2 16 16 13 13 4 4 4 4 15 15 5 5 17 17 14 14 16 16 13 13 15 15 5 5 18 18 15 15 16 16 13 13 17 17 14 14 19 19 16 16 18 18 15 15 17 17 14 14 20 20 17 17 18 18 15 15 19 19 16 16 21 21 18 18 20 20 17 17 19 19 16 16 22 22 19 19 20 20 17 17 21 21 18 18 23 23 20 20 22 22 19 19 21 21 18 18 12 12 10 10 24 24 20 20 14 14 12 12 25 25 18 18 24 24 20 20 12 12 10 10 26 26 21 21 25 25 18 18 12 12 10 10 27 27 16 16 25 25 18 18 26 26 21 21 28 28 22 22 27 27 16 16 26 26 21 21 29 29 14 14 27 27 16 16 28 28 22 22 8 8 6 6 29 29 14 14 28 28 22 22 6 6 5 5 29 29 14 14 8 8 6 6 25 25 18 18 22 22 19 19 24 24 20 20 20 20 17 17 22 22 19 19 25 25 18 18 27 27 16 16 20 20 17 17 25 25 18 18 18 18 15 15 20 20 17 17 27 27 16 16 29 29 14 14 18 18 15 15 27 27 16 16 16 16 13 13 18 18 15 15 29 29 14 14 6 6 5 5 16 16 13 13 29 29 14 14 4 4 4 4 16 16 13 13 6 6 5 5 0 0 0 0 15 15 5 5 2 2 2 2 30 30 6 6 15 15 5 5 0 0 0 0 31 31 7 7 30 30 6 6 0 0 0 0 32 32 8 8 30 30 6 6 31 31 7 7 33 33 9 9 32 32 8 8 31 31 7 7 34 34 10 10 32 32 8 8 33 33 9 9 35 35 11 11 34 34 10 10 33 33 9 9 36 36 12 12 34 34 10 10 35 35 11 11 39 39 25 25 38 38 24 24 37 37 23 23 40 40 26 26 38 38 24 24 39 39 25 25 41 41 27 27 40 40 26 26 39 39 25 25 42 42 28 28 40 40 26 26 41 41 27 27 43 43 29 29 42 42 28 28 41 41 27 27 44 44 30 30 42 42 28 28 43 43 29 29 45 45 31 31 44 44 30 30 43 43 29 29 30 30 6 6 17 17 14 14 15 15 5 5 46 46 22 22 17 17 14 14 30 30 6 6 32 32 8 8 46 46 22 22 30 30 6 6 47 47 21 21 46 46 22 22 32 32 8 8 34 34 10 10 47 47 21 21 32 32 8 8 21 21 18 18 47 47 21 21 34 34 10 10 23 23 20 20 21 21 18 18 34 34 10 10 0 50 34 34 36 49 33 33 48 48 32 32 23 51 35 35 36 49 33 33 0 50 34 34 1 51 36 36 23 51 35 35 0 50 34 34 22 51 37 37 23 51 35 35 1 51 36 36 24 51 35 35 22 51 37 37 1 51 36 36 51 54 31 31 50 53 29 29 49 52 30 30 52 55 38 38 50 53 29 29 51 54 31 31 53 56 39 39 52 55 38 38 51 54 31 31 54 57 40 40 52 55 38 38 53 56 39 39 9 9 7 7 55 58 41 41 7 7 0 0 56 59 42 42 55 58 41 41 9 9 7 7 11 11 9 9 56 59 42 42 9 9 7 7 13 13 11 11 56 59 42 42 11 11 9 9 57 60 38 38 45 45 31 31 43 43 29 29 37 37 39 39 45 45 31 31 57 60 38 38 39 39 40 40 37 37 39 39 57 60 38 38 60 63 45 45 59 62 44 44 58 61 43 43 61 64 46 46 59 62 44 44 60 63 45 45 62 65 47 47 61 64 46 46 60 63 45 45 14 67 33 33 56 66 49 49 13 66 48 48 55 68 32 32 56 66 49 49 14 67 33 33 7 69 34 34 55 68 32 32 14 67 33 33 19 19 16 16 47 47 21 21 21 21 18 18 46 46 22 22 47 47 21 21 19 19 16 16 17 17 14 14 46 46 22 22 19 19 16 16 63 66 49 49 36 49 33 33 35 66 48 48 48 48 32 32 36 49 33 33 63 66 49 49 64 70 24 24 54 57 25 25 53 56 23 23 65 71 26 26 54 57 25 25 64 70 24 24 68 74 44 44 67 73 45 45 66 72 43 43 69 75 46 46 67 73 45 45 68 74 44 44 70 76 47 47 67 73 45 45 69 75 46 46 66 72 50 50 67 73 45 45 70 76 47 47 65 71 26 26 71 77 27 27 54 57 25 25 72 78 28 28 71 77 27 27 65 71 26 26 72 78 28 28 50 53 29 29 71 77 27 27 49 52 30 30 50 53 29 29 72 78 28 28 7 69 34 34 24 51 35 35 1 51 36 36 14 67 33 33 24 51 35 35 7 69 34 34 1 1 1 1 5 5 2 2 7 7 0 0 3 3 3 3 5 5 2 2 1 1 1 1 28 28 22 22 10 10 8 8 8 8 6 6 26 26 21 21 10 10 8 8 28 28 22 22 48 79 41 41 31 31 7 7 0 0 0 0 63 80 42 42 31 31 7 7 48 79 41 41 33 33 9 9 63 80 42 42 35 35 11 11 31 31 7 7 63 80 42 42 33 33 9 9 60 63 45 45 58 61 50 50 62 65 47 47 26 26 21 21 12 12 10 10 10 10 8 8 36 36 12 12 23 23 20 20 34 34 10 10</p>
				</triangles>
			</mesh>
		</geometry>
		<geometry id="polygon1" name="polygon1">
			<mesh>
				<source id="polygon1_Positions">
					<float_array id="polygon1_PosArr" count="48">4.62793 4.551352 0.6652832 4.325195 4.216635 0.7570801 4.14209 4.964682 0.1159668 3.766602 4.733969 0.1159668 4.325195 4.216635 -0.5251465 4.875732 3.707114 0.1159668 5.113525 4.138266 0.1159668 4.62793 4.551352 -0.4331055 -4.875732 3.707114 0.1159668 -5.113525 4.138266 0.1159668 -4.325195 4.216635 0.7570801 -4.62793 4.551352 0.6652832 -4.14209 4.964682 0.1159668 -3.766602 4.733969 0.1159668 -4.325195 4.216635 -0.5251465 -4.62793 4.551352 -0.4331055</float_array>
					<technique_common>
						<accessor source="#polygon1_PosArr" count="16" stride="3">
							<param name="X" type="float" />
							<param name="Y" type="float" />
							<param name="Z" type="float" />
						</accessor>
					</technique_common>
				</source>
				<source id="polygon1_UVs0">
					<float_array id="polygon1_UVArr0" count="20">0.4682922 0.5826416 0.4498291 0.586853 0.4682922 0.624176 0.4498291 0.6476746 0.4498291 0.68573 0.4498291 0.7206421 0.4682922 0.6987305 0.4682922 0.664917 0.4498291 0.493042 0.4682922 0.5151367</float_array>
					<technique_common>
						<accessor source="#polygon1_UVArr0" count="10" stride="2">
							<param name="S" type="float" />
							<param name="T" type="float" />
						</accessor>
					</technique_common>
				</source>
				<vertices id="polygon1_Vertices">
					<input semantic="POSITION" source="#polygon1_Positions" />
				</vertices>
				<triangles material="nm_eggpawn_astcos__enLuminouseO__" count="16">
					<input semantic="VERTEX" source="#polygon1_Vertices" offset="0" />
					<input semantic="TEXCOORD" source="#polygon1_UVs0" set="0" offset="1" />
					<p>2 2 1 1 0 0 3 3 1 1 2 2 4 4 3 3 2 2 4 4 6 6 5 5 7 7 6 6 4 4 2 2 7 7 4 4 10 1 9 9 8 8 11 0 9 9 10 1 12 2 11 0 10 1 6 9 1 1 5 8 0 0 1 1 6 9 13 3 12 2 10 1 14 4 12 2 13 3 9 6 14 4 8 5 15 7 14 4 9 6 15 7 12 2 14 4</p>
				</triangles>
			</mesh>
		</geometry>
	</library_geometries>
	<library_controllers>
		<controller id="polygon0_Controller">
			<skin source="#polygon0">
				<bind_shape_matrix>1 0 0 0 0 1 0 0 0 0 1 0 0 0 0 1</bind_shape_matrix>
				<source id="polygon0_Joints">
					<Name_array id="polygon0_JointArr" count="1">enm_pawn_ast_Head</Name_array>
					<technique_common>
						<accessor source="#polygon0_JointArr" count="1">
							<param name="JOINT" type="Name" />
						</accessor>
					</technique_common>
				</source>
				<source id="polygon0_Matrices">
					<float_array id="polygon0_MatArr" count="16">1 0 0 0 0 1 0 -0.016196 0 0 1 0 0 0 0 1</float_array>
					<technique_common>
						<accessor source="#polygon0_MatArr" count="1" stride="16">
							<param type="float4x4" />
						</accessor>
					</technique_common>
				</source>
				<source id="polygon0_Weights">
					<float_array id="polygon0_WeightArr" count="1">1</float_array>
					<technique_common>
						<accessor source="#polygon0_WeightArr" count="1">
							<param type="float" />
						</accessor>
					</technique_common>
				</source>
				<joints>
					<input semantic="JOINT" source="#polygon0_Joints" />
					<input semantic="INV_BIND_MATRIX" source="#polygon0_Matrices" />
				</joints>
				<vertex_weights count="73">
					<input semantic="JOINT" offset="0" source="#polygon0_Joints" />
					<input semantic="WEIGHT" offset="1" source="#polygon0_Weights" />
					<vcount>1 1 1 1 1 1 1 1 1 1 1 1 1 1 1 1 1 1 1 1 1 1 1 1 1 1 1 1 1 1 1 1 1 1 1 1 1 1 1 1 1 1 1 1 1 1 1 1 1 1 1 1 1 1 1 1 1 1 1 1 1 1 1 1 1 1 1 1 1 1 1 1 1</vcount>
					<v>0 0 0 0 0 0 0 0 0 0 0 0 0 0 0 0 0 0 0 0 0 0 0 0 0 0 0 0 0 0 0 0 0 0 0 0 0 0 0 0 0 0 0 0 0 0 0 0 0 0 0 0 0 0 0 0 0 0 0 0 0 0 0 0 0 0 0 0 0 0 0 0 0 0 0 0 0 0 0 0 0 0 0 0 0 0 0 0 0 0 0 0 0 0 0 0 0 0 0 0 0 0 0 0 0 0 0 0 0 0 0 0 0 0 0 0 0 0 0 0 0 0 0 0 0 0 0 0 0 0 0 0 0 0 0 0 0 0 0 0 0 0 0 0 0 0</v>
				</vertex_weights>
			</skin>
		</controller>
		<controller id="polygon1_Controller">
			<skin source="#polygon1">
				<bind_shape_matrix>1 0 0 0 0 1 0 0 0 0 1 0 0 0 0 1</bind_shape_matrix>
				<source id="polygon1_Joints">
					<Name_array id="polygon1_JointArr" count="1">enm_pawn_ast_Head</Name_array>
					<technique_common>
						<accessor source="#polygon1_JointArr" count="1">
							<param name="JOINT" type="Name" />
						</accessor>
					</technique_common>
				</source>
				<source id="polygon1_Matrices">
					<float_array id="polygon1_MatArr" count="16">1 0 0 0 0 1 0 -0.016196 0 0 1 0 0 0 0 1</float_array>
					<technique_common>
						<accessor source="#polygon1_MatArr" count="1" stride="16">
							<param type="float4x4" />
						</accessor>
					</technique_common>
				</source>
				<source id="polygon1_Weights">
					<float_array id="polygon1_WeightArr" count="1">1</float_array>
					<technique_common>
						<accessor source="#polygon1_WeightArr" count="1">
							<param type="float" />
						</accessor>
					</technique_common>
				</source>
				<joints>
					<input semantic="JOINT" source="#polygon1_Joints" />
					<input semantic="INV_BIND_MATRIX" source="#polygon1_Matrices" />
				</joints>
				<vertex_weights count="16">
					<input semantic="JOINT" offset="0" source="#polygon1_Joints" />
					<input semantic="WEIGHT" offset="1" source="#polygon1_Weights" />
					<vcount>1 1 1 1 1 1 1 1 1 1 1 1 1 1 1 1</vcount>
					<v>0 0 0 0 0 0 0 0 0 0 0 0 0 0 0 0 0 0 0 0 0 0 0 0 0 0 0 0 0 0 0 0</v>
				</vertex_weights>
			</skin>
		</controller>
	</library_controllers>
	<library_visual_scenes>
		<visual_scene id="RootNode" name="RootNode">
			<node id="enm_pawn_ast_Head" name="enm_pawn_ast_Head" sid="enm_pawn_ast_Head" type="JOINT">
				<translate>0 0.016196 0</translate>
			</node>
			<node id="polygon0" name="polygon0" type="NODE">
				<instance_controller url="#polygon0_Controller">
					<skeleton>#enm_pawn_ast_Head</skeleton>
					<bind_material>
						<technique_common>
							<instance_material symbol="nm_eggpawn_astcos__enMetal__" target="#nm_eggpawn_astcos__enMetal__">
								<bind_vertex_input semantic="TEXCOORD0" input_semantic="TEXCOORD" input_set="0" />
								<bind_vertex_input semantic="TEXCOORD0" input_semantic="TEXCOORD" input_set="0" />
								<bind_vertex_input semantic="TEXCOORD0" input_semantic="TEXCOORD" input_set="0" />
								<bind_vertex_input semantic="TEXCOORD1" input_semantic="TEXCOORD" input_set="1" />
							</instance_material>
						</technique_common>
					</bind_material>
				</instance_controller>
			</node>
			<node id="polygon1" name="polygon1" type="NODE">
				<instance_controller url="#polygon1_Controller">
					<skeleton>#enm_pawn_ast_Head</skeleton>
					<bind_material>
						<technique_common>
							<instance_material symbol="nm_eggpawn_astcos__enLuminouseO__" target="#nm_eggpawn_astcos__enLuminouseO__">
								<bind_vertex_input semantic="TEXCOORD0" input_semantic="TEXCOORD" input_set="0" />
							</instance_material>
						</technique_common>
					</bind_material>
				</instance_controller>
			</node>
		</visual_scene>
	</library_visual_scenes>
	<scene>
		<instance_visual_scene url="#RootNode" />
	</scene>
</COLLADA>