<?xml version="1.0" encoding="utf-8"?>
<COLLADA version="1.5.0" xmlns="http://www.collada.org/2008/03/COLLADASchema">
	<asset>
		<contributor>
			<authoring_tool>BrawlBox</authoring_tool>
		</contributor>
		<created>2022-11-10T17:30:42Z</created>
		<modified>2022-11-10T17:30:42Z</modified>
		<unit meter="0.01" name="centimeter" />
		<up_axis>Y_UP</up_axis>
	</asset>
	<library_images>
		<image id="enm_pawn_placos_dif_SD-image" name="enm_pawn_placos_dif_SD">
			<init_from>
				<ref>enm_pawn_placos_dif_SD.png</ref>
			</init_from>
		</image>
		<image id="enm_pawn_placos_ref2_SD-image" name="enm_pawn_placos_ref2_SD">
			<init_from>
				<ref>enm_pawn_placos_ref2_SD.png</ref>
			</init_from>
		</image>
		<image id="enm_pawn_placos_spc_SD-image" name="enm_pawn_placos_spc_SD">
			<init_from>
				<ref>enm_pawn_placos_spc_SD.png</ref>
			</init_from>
		</image>
		<image id="enm_pawn_placos_spr2_SD-image" name="enm_pawn_placos_spr2_SD">
			<init_from>
				<ref>enm_pawn_placos_spr2_SD.png</ref>
			</init_from>
		</image>
	</library_images>
	<library_materials>
		<material id="enm_eggpawn_placos__enMetal__">
			<instance_effect url="#enm_eggpawn_placos__enMetal__-fx" />
		</material>
	</library_materials>
	<library_effects>
		<effect id="enm_eggpawn_placos__enMetal__-fx" name="enm_eggpawn_placos__enMetal__">
			<profile_COMMON>
				<newparam sid="enm_pawn_placos_dif_SD-surface">
					<surface type="2D">
						<init_from>
							<ref>enm_pawn_placos_dif_SD-image</ref>
						</init_from>
					</surface>
				</newparam>
				<newparam sid="enm_pawn_placos_dif_SD-sampler">
					<sampler2D>
						<source>enm_pawn_placos_dif_SD-surface</source>
						<instance_image url="#enm_pawn_placos_dif_SD-image" />
						<wrap_s>WRAP</wrap_s>
						<wrap_t>WRAP</wrap_t>
						<minfilter>LINEAR_MIPMAP_LINEAR</minfilter>
						<magfilter>LINEAR</magfilter>
					</sampler2D>
				</newparam>
				<technique sid="COMMON">
					<phong>
						<diffuse>
							<texture texture="enm_pawn_placos_dif_SD-sampler" texcoord="TEXCOORD0" />
						</diffuse>
					</phong>
				</technique>
			</profile_COMMON>
		</effect>
	</library_effects>
	<library_geometries>
		<geometry id="polygon0" name="polygon0">
			<mesh>
				<source id="polygon0_Positions">
					<float_array id="polygon0_PosArr" count="243">-1.230469 1.930664 16.63965 -1.226563 2.139648 16.42969 1.230469 1.930664 16.63965 1.226563 2.139648 16.42969 1.430664 1.925781 16.42969 1.375977 1.851563 13.50293 1.375977 -1.851563 13.50293 1.176758 1.845703 13.29395 1.176758 -1.845703 13.29395 -1.176758 1.845703 13.29395 -1.176758 -1.845703 13.29395 -1.375977 1.851563 13.50293 -1.375977 -1.851563 13.50293 -0.6171875 -0.6171875 12.13184 0 -0.8720703 12.13184 -0.5390625 -0.5390625 -5.0625 0 -0.7617188 -5.0625 0 0 -5.722656 0.5390625 -0.5390625 -5.0625 0.7617188 0 -5.0625 0.8720703 0 12.13184 0.6171875 0.6171875 12.13184 -0.3037109 -10.35449 12.49707 0.3037109 -10.35449 12.49707 -0.6533203 -7.361328 13.26465 0.6533203 -7.361328 13.26465 -0.8183594 -4.133789 13.70605 0.8183594 -4.133789 13.70605 -0.7988281 0 13.94336 0.7988281 0 13.94336 -0.3037109 10.35449 12.49707 -0.5605469 8.429688 14.06055 -0.6533203 7.361328 13.26465 -0.8359375 4.776367 15.69727 -0.8183594 4.133789 13.70605 -0.8271484 0 16.34766 0.3037109 10.35449 12.49707 0.6533203 7.361328 13.26465 0.5605469 8.429688 14.06055 0.8183594 4.133789 13.70605 0.8359375 4.776367 15.69727 0.8271484 0 16.34766 0.8359375 -4.776367 15.69727 0.5605469 -8.429688 14.06055 -0.5605469 -8.429688 14.06055 -0.8359375 -4.776367 15.69727 1.230469 -1.930664 16.63965 1.430664 -1.925781 16.42969 1.226563 -2.139648 16.42969 1.179688 -2.056641 13.50293 -1.179688 -2.056641 13.50293 -1.226563 -2.139648 16.42969 -1.430664 -1.925781 16.42969 -1.230469 -1.930664 16.63965 -1.430664 1.925781 16.42969 -0.7617188 0 -5.0625 -0.5390625 0.5390625 -5.0625 -0.8720703 0 12.13184 -0.6171875 0.6171875 12.13184 0.5390625 0.5390625 -5.0625 0 0.7617188 -5.0625 0 0.8720703 12.13184 1.179688 2.056641 13.50293 0.6171875 -0.6171875 12.13184 0 -1.139648 12.00293 0.8056641 -0.8056641 12.00293 -0.8056641 -0.8056641 12.00293 -1.139648 0 12.00293 1.139648 0 12.00293 -0.8056641 0.8056641 12.00293 0.8056641 0.8056641 12.00293 0 1.139648 12.00293 0 1.241211 17.94141 0.8779297 0.8779297 17.94141 -0.8779297 0.8779297 17.94141 -1.241211 0 17.94141 1.241211 0 17.94141 -0.8779297 -0.8779297 17.94141 0.8779297 -0.8779297 17.94141 0 -1.241211 17.94141 -1.179688 2.056641 13.50293</float_array>
					<technique_common>
						<accessor source="#polygon0_PosArr" count="81" stride="3">
							<param name="X" type="float" />
							<param name="Y" type="float" />
							<param name="Z" type="float" />
						</accessor>
					</technique_common>
				</source>
				<source id="polygon0_Normals">
					<float_array id="polygon0_NormArr" count="270">-0.4750366 0.4623413 0.7487183 -0.3530273 0.8779297 0.3234863 0.4750366 0.4623413 0.7487183 0.3530273 0.8779297 0.3234863 0.8859253 0.3356934 0.3200073 0.8776245 0.3309326 -0.3468628 0.8776245 -0.3309326 -0.3468628 0.3496704 0.3372803 -0.8740845 0.3496704 -0.3372803 -0.8740845 -0.3496704 0.3372803 -0.8740845 -0.3496704 -0.3372803 -0.8740845 -0.8776245 0.3309326 -0.3468628 -0.8776245 -0.3309326 -0.3468628 -0.7072144 -0.7069702 -0.006408691 0 -1 -0.006469727 -0.652771 -0.652832 -0.3843384 0 -0.9232178 -0.3842773 0 0 -1 0.652771 -0.652832 -0.3842773 0.9232178 0 -0.3843384 1 0 -0.006408691 0.7072144 0.7069702 -0.006408691 0 0.2483521 -0.968689 0 0.18927 -0.9819336 0 0.09588623 -0.9953613 -0.9936523 0.1081543 -0.03033447 -0.9951172 0.09753418 -0.01586914 -0.9966431 0.08117676 -0.008056641 -0.9995728 0.0267334 -0.01251221 -0.9996948 0.01867676 -0.01574707 -0.999939 0 -0.01086426 -0.999939 0 -0.01208496 -0.9996948 -0.01867676 -0.01574707 0.9936523 0.1081543 -0.03033447 0.9973145 0.07067871 0.02050781 0.9957886 0.090271 -0.01660156 0.9996338 0.02362061 -0.01208496 0.9993896 0.02960205 -0.01922607 0.999939 0 -0.01086426 0.999939 0 -0.01208496 0.9993896 -0.02960205 -0.01922607 0 -0.6304321 0.7762451 0 -0.5179443 0.8554077 0 -0.2716675 0.9624023 0 0 1 0.4750366 -0.4623413 0.7487183 0.8859253 -0.3357544 0.3199463 0.3530273 -0.8779297 0.3234863 0.348877 -0.866394 -0.3572998 -0.3488159 -0.866394 -0.3572998 -0.3530273 -0.8779297 0.3234863 -0.8859253 -0.3356934 0.3200073 -0.4750366 -0.4623413 0.7487183 -0.8859253 0.3357544 0.3199463 -0.9232178 0 -0.3843384 -0.652771 0.652832 -0.3842773 -1 0 -0.006408691 -0.7072144 0.7069702 -0.006469727 0.652771 0.652832 -0.3843384 0 0.9232178 -0.3842773 0 1 -0.006469727 0.3488159 0.866394 -0.3572998 0.7072144 -0.7069702 -0.006469727 0 0.5179443 0.8554077 0 0.2716675 0.9624023 0 -0.2483521 -0.968689 0 -0.18927 -0.9819336 0 -0.09588623 -0.9953613 -0.9995728 -0.0267334 -0.01251221 -0.9966431 -0.08117676 -0.008056641 -0.9951172 -0.09753418 -0.01586914 -0.9936523 -0.1081543 -0.03033447 0.9936523 -0.1081543 -0.03033447 0.9957886 -0.090271 -0.01660156 0.9973145 -0.07067871 0.02050781 0.9996338 -0.02362061 -0.01208496 -0.348877 0.866394 -0.3572998 0.7070313 0.7069702 -0.01708984 0 0.9998779 -0.01708984 0.7070923 0.7069092 -0.01708984 0.9998779 0 -0.01708984 0.7070923 -0.7069092 -0.01708984 0 -0.9998779 -0.01708984 0.7070313 -0.7069702 -0.01708984 -0.7070923 -0.7069092 -0.01708984 -0.7070313 -0.7069702 -0.01708984 -0.9998779 0 -0.01708984 -0.7070923 0.7069092 -0.01708984 -0.7070313 0.7069702 -0.01708984 0 0.6304321 0.7762451</float_array>
					<technique_common>
						<accessor source="#polygon0_NormArr" count="90" stride="3">
							<param name="X" type="float" />
							<param name="Y" type="float" />
							<param name="Z" type="float" />
						</accessor>
					</technique_common>
				</source>
				<source id="polygon0_UVs0">
					<float_array id="polygon0_UVArr0" count="216">0.2834167 0.2387085 0.2834167 0.2474365 0.401062 0.2387085 0.3948059 0.2474365 0.4060974 0.2474365 0.4060974 0.370636 0.5727539 0.370636 0.4044495 0.3796082 0.5744019 0.3796082 0.4044495 0.4812317 0.5744019 0.4812317 0.4028015 0.4906921 0.5760498 0.4906921 0.01956177 0.6954651 0.04885864 0.6954651 0.01956177 0.04086304 0.04885864 0.04086304 0.135437 0.01278687 0.07772827 0.04086304 0.1066284 0.04086304 0.1066284 0.6954651 0.1355286 0.6954651 0.3198853 0.7325134 0.3198853 0.8134766 0.4096375 0.7325134 0.4096375 0.8134766 0.4908142 0.7325134 0.4908142 0.8134766 0.5979004 0.7325134 0.5979004 0.8134766 0.01620483 0.843811 0.1514893 0.9307251 0.2221069 0.8840027 0.3903809 0.9804993 0.3910217 0.881958 0.6359558 0.9699707 0.6151428 0.8421326 0.2456055 0.8257751 0.2456055 0.7234497 0.1402588 0.8257751 0.1402588 0.7234497 0.02001953 0.8257751 0.02001953 0.7234497 0.5778503 0.2387085 0.5727539 0.2474365 0.5840454 0.2474365 0.5836792 0.3728638 0.6954651 0.3728638 0.5835571 0.005157471 0.5733643 0.005157471 0.5835571 0.1283264 0.5733643 0.1283264 0.5778503 0.1377869 0.401062 0.1377869 0.4056091 0.005157471 0.4056091 0.1283264 0.3952942 0.1283264 0.2516785 0.04086304 0.2223511 0.04086304 0.1933289 0.04086304 0.2221985 0.6954651 0.1932983 0.6954651 0.1355286 0.04086304 0.1644287 0.04086304 0.1643982 0.6954651 0.39505 0.3728638 0.07772827 0.6954651 0.3059082 0.3882446 0.2793884 0.415802 0.3429871 0.3886414 0.368988 0.4167175 0.2790222 0.4551697 0.3686218 0.4560852 0.3050232 0.4832458 0.3421326 0.4836426 0.0675354 0.9938354 0.09365845 0.9679565 0.03060913 0.9938354 0.004486084 0.967926 0.09362793 0.9313354 0.004455566 0.9313354 0.06750488 0.9054565 0.03057861 0.9054565 0.6954651 0.2387085 0.6954651 0.2474365 0.3952942 0.005157471 0.2834167 0.3728638 0.2765503 0.6917725 0.3140259 0.6917725 0.2765503 0.5093689 0.3140259 0.5093689 0.5764771 0.5093689 0.5390015 0.5093689 0.5764771 0.6917725 0.5390015 0.6917725 0.3952942 0.4812317 0.5014954 0.5093689 0.4639893 0.5093689 0.5014954 0.6917725 0.4639893 0.6917725 0.4265137 0.5093689 0.4265137 0.6917725 0.3890076 0.5093689 0.3890076 0.6917725 0.351532 0.5093689 0.351532 0.6917725 0.5836792 0.4812317 0.2510681 0.6954651</float_array>
					<technique_common>
						<accessor source="#polygon0_UVArr0" count="108" stride="2">
							<param name="S" type="float" />
							<param name="T" type="float" />
						</accessor>
					</technique_common>
				</source>
				<source id="polygon0_UVs1">
					<float_array id="polygon0_UVArr1" count="216">0.2834167 0.2387085 0.2834167 0.2474365 0.401062 0.2387085 0.3948059 0.2474365 0.4060974 0.2474365 0.4060974 0.370636 0.5727539 0.370636 0.4044495 0.3796082 0.5744019 0.3796082 0.4044495 0.4812317 0.5744019 0.4812317 0.4028015 0.4906921 0.5760498 0.4906921 0.01956177 0.6954651 0.04885864 0.6954651 0.01956177 0.04086304 0.04885864 0.04086304 0.135437 0.01278687 0.07772827 0.04086304 0.1066284 0.04086304 0.1066284 0.6954651 0.1355286 0.6954651 0.3198853 0.7325134 0.3198853 0.8134766 0.4096375 0.7325134 0.4096375 0.8134766 0.4908142 0.7325134 0.4908142 0.8134766 0.5979004 0.7325134 0.5979004 0.8134766 0.01620483 0.843811 0.1514893 0.9307251 0.2221069 0.8840027 0.3903809 0.9804993 0.3910217 0.881958 0.6359558 0.9699707 0.6151428 0.8421326 0.2456055 0.8257751 0.2456055 0.7234497 0.1402588 0.8257751 0.1402588 0.7234497 0.02001953 0.8257751 0.02001953 0.7234497 0.5778503 0.2387085 0.5727539 0.2474365 0.5840454 0.2474365 0.5836792 0.3728638 0.6954651 0.3728638 0.5835571 0.005157471 0.5733643 0.005157471 0.5835571 0.1283264 0.5733643 0.1283264 0.5778503 0.1377869 0.401062 0.1377869 0.4056091 0.005157471 0.4056091 0.1283264 0.3952942 0.1283264 0.2516785 0.04086304 0.2223511 0.04086304 0.1933289 0.04086304 0.2221985 0.6954651 0.1932983 0.6954651 0.1355286 0.04086304 0.1644287 0.04086304 0.1643982 0.6954651 0.39505 0.3728638 0.07772827 0.6954651 0.3059082 0.3882446 0.2793884 0.415802 0.3429871 0.3886414 0.368988 0.4167175 0.2790222 0.4551697 0.3686218 0.4560852 0.3050232 0.4832458 0.3421326 0.4836426 0.0675354 0.9938354 0.09365845 0.9679565 0.03060913 0.9938354 0.004486084 0.967926 0.09362793 0.9313354 0.004455566 0.9313354 0.06750488 0.9054565 0.03057861 0.9054565 0.6954651 0.2387085 0.6954651 0.2474365 0.3952942 0.005157471 0.2834167 0.3728638 0.2765503 0.6917725 0.3140259 0.6917725 0.2765503 0.5093689 0.3140259 0.5093689 0.5764771 0.5093689 0.5390015 0.5093689 0.5764771 0.6917725 0.5390015 0.6917725 0.3952942 0.4812317 0.5014954 0.5093689 0.4639893 0.5093689 0.5014954 0.6917725 0.4639893 0.6917725 0.4265137 0.5093689 0.4265137 0.6917725 0.3890076 0.5093689 0.3890076 0.6917725 0.351532 0.5093689 0.351532 0.6917725 0.5836792 0.4812317 0.2510681 0.6954651</float_array>
					<technique_common>
						<accessor source="#polygon0_UVArr1" count="108" stride="2">
							<param name="S" type="float" />
							<param name="T" type="float" />
						</accessor>
					</technique_common>
				</source>
				<vertices id="polygon0_Vertices">
					<input semantic="POSITION" source="#polygon0_Positions" />
				</vertices>
				<triangles material="enm_eggpawn_placos__enMetal__" count="140">
					<input semantic="VERTEX" source="#polygon0_Vertices" offset="0" />
					<input semantic="NORMAL" source="#polygon0_Normals" offset="1" />
					<input semantic="TEXCOORD" source="#polygon0_UVs0" set="0" offset="2" />
					<input semantic="TEXCOORD" source="#polygon0_UVs1" set="1" offset="3" />
					<p>2 2 2 2 1 1 1 1 0 0 0 0 3 3 3 3 1 1 1 1 2 2 2 2 4 4 4 4 3 3 3 3 2 2 2 2 5 5 5 5 3 3 3 3 4 4 4 4 6 6 6 6 5 5 5 5 4 4 4 4 7 7 7 7 5 5 5 5 6 6 6 6 8 8 8 8 7 7 7 7 6 6 6 6 9 9 9 9 7 7 7 7 8 8 8 8 10 10 10 10 9 9 9 9 8 8 8 8 11 11 11 11 9 9 9 9 10 10 10 10 12 12 12 12 11 11 11 11 10 10 10 10 15 15 15 15 14 14 14 14 13 13 13 13 16 16 16 16 14 14 14 14 15 15 15 15 17 17 17 17 16 16 16 16 15 15 15 15 18 18 18 18 16 16 16 16 17 17 17 17 19 19 19 19 18 18 18 18 17 17 17 17 20 20 20 20 18 18 18 18 19 19 19 19 21 21 21 21 20 20 20 20 19 19 19 19 24 23 24 24 23 22 23 23 22 22 22 22 25 23 25 25 23 22 23 23 24 23 24 24 26 24 26 26 25 23 25 25 24 23 24 24 27 24 27 27 25 23 25 25 26 24 26 26 28 17 28 28 27 24 27 27 26 24 26 26 29 17 29 29 27 24 27 27 28 17 28 28 32 27 32 32 31 26 31 31 30 25 30 30 33 28 33 33 31 26 31 31 32 27 32 32 34 29 34 34 33 28 33 33 32 27 32 32 35 30 35 35 33 28 33 33 34 29 34 34 28 31 36 36 35 30 35 35 34 29 34 34 26 32 34 34 35 30 35 35 28 31 36 36 38 35 31 31 37 34 32 32 36 33 30 30 39 36 34 34 37 34 32 32 38 35 31 31 40 37 33 33 39 36 34 34 38 35 31 31 29 38 36 36 39 36 34 34 40 37 33 33 41 39 35 35 29 38 36 36 40 37 33 33 42 40 33 33 29 38 36 36 41 39 35 35 43 42 37 37 22 41 22 22 23 41 23 23 44 42 38 38 22 41 22 22 43 42 37 37 42 43 39 39 44 42 38 38 43 42 37 37 45 43 40 40 44 42 38 38 42 43 39 39 41 44 41 41 45 43 40 40 42 43 39 39 35 44 42 42 45 43 40 40 41 44 41 41 46 45 43 43 4 4 4 4 2 2 2 2 47 46 44 44 4 4 4 4 46 45 43 43 48 47 45 45 47 46 44 44 46 45 43 43 49 48 46 46 47 46 44 44 48 47 45 45 50 49 47 47 49 48 46 46 48 47 45 45 51 50 50 50 12 12 49 49 50 49 48 48 52 51 51 51 12 12 49 49 51 50 50 50 53 52 52 52 52 51 51 51 51 50 50 50 0 0 53 53 52 51 51 51 53 52 52 52 52 51 51 51 11 11 54 54 12 12 49 49 54 53 55 55 11 11 54 54 52 51 51 51 0 0 53 53 54 53 55 55 52 51 51 51 1 1 56 56 54 53 55 55 0 0 53 53 55 54 58 58 17 17 17 17 15 15 57 57 56 55 59 59 17 17 17 17 55 54 58 58 57 56 60 60 56 55 59 59 55 54 58 58 58 57 61 61 56 55 59 59 57 56 60 60 17 17 17 17 59 58 62 62 19 19 19 19 60 59 63 63 59 58 62 62 17 17 17 17 56 55 59 59 60 59 63 63 17 17 17 17 58 57 61 61 60 59 63 63 56 55 59 59 59 58 62 62 21 21 21 21 19 19 19 19 61 60 64 64 21 21 21 21 59 58 62 62 60 59 63 63 61 60 64 64 59 58 62 62 58 57 61 61 61 60 64 64 60 59 63 63 62 61 65 65 7 7 7 7 9 9 9 9 5 5 5 5 7 7 7 7 62 61 65 65 3 3 3 3 5 5 5 5 62 61 65 65 63 62 66 66 18 18 18 18 20 20 20 20 16 16 16 16 18 18 18 18 63 62 66 66 14 14 14 14 16 16 16 16 63 62 66 66 31 63 38 38 40 64 39 39 38 63 37 37 33 64 40 40 40 64 39 39 31 63 38 38 36 65 23 23 32 66 24 24 30 65 22 22 37 66 25 25 32 66 24 24 36 65 23 23 37 66 25 25 34 67 26 26 32 66 24 24 39 67 27 27 34 67 26 26 37 66 25 25 33 64 40 40 41 44 41 41 40 64 39 39 35 44 42 42 41 44 41 41 33 64 40 40 39 67 27 27 28 17 28 28 34 67 26 26 29 17 29 29 28 17 28 28 39 67 27 27 26 32 34 34 45 68 33 33 35 30 35 35 24 69 32 32 45 68 33 33 26 32 34 34 24 69 32 32 44 70 31 31 45 68 33 33 22 71 30 30 44 70 31 31 24 69 32 32 25 74 32 32 43 73 31 31 23 72 30 30 27 75 34 34 43 73 31 31 25 74 32 32 27 75 34 34 42 40 33 33 43 73 31 31 29 38 36 36 42 40 33 33 27 75 34 34 66 17 69 69 65 17 68 68 64 17 67 67 67 17 70 70 65 17 68 68 66 17 69 69 67 17 70 70 68 17 71 71 65 17 68 68 69 17 72 72 68 17 71 71 67 17 70 70 69 17 72 72 70 17 73 73 68 17 71 71 71 17 74 74 70 17 73 73 69 17 72 72 74 44 77 77 73 44 76 76 72 44 75 75 75 44 78 78 73 44 76 76 74 44 77 77 75 44 78 78 76 44 79 79 73 44 76 76 77 44 80 80 76 44 79 79 75 44 78 78 77 44 80 80 78 44 81 81 76 44 79 79 79 44 82 82 78 44 81 81 77 44 80 80 53 52 83 83 48 47 45 45 46 45 43 43 51 50 84 84 48 47 45 45 53 52 83 83 80 76 85 85 54 53 55 55 1 1 56 56 11 11 54 54 54 53 55 55 80 76 85 85 1 1 1 1 62 61 65 65 80 76 86 86 3 3 3 3 62 61 65 65 1 1 1 1 0 44 53 53 46 44 43 43 2 44 2 2 53 44 52 52 46 44 43 43 0 44 53 53 70 79 89 89 72 78 88 88 73 77 87 87 71 78 90 90 72 78 88 88 70 79 89 89 73 77 93 93 68 80 92 92 70 79 91 91 76 80 94 94 68 80 92 92 73 77 93 93 80 76 95 95 9 9 9 9 11 11 11 11 62 61 65 65 9 9 9 9 80 76 95 95 78 83 98 98 64 82 97 97 65 81 96 96 79 82 99 99 64 82 97 97 78 83 98 98 79 82 99 99 66 84 100 100 64 82 97 97 77 85 101 101 66 84 100 100 79 82 99 99 77 85 101 101 67 86 102 102 66 84 100 100 75 86 103 103 67 86 102 102 77 85 101 101 75 86 103 103 69 87 104 104 67 86 102 102 74 88 105 105 69 87 104 104 75 86 103 103 71 78 90 90 74 88 105 105 72 78 88 88 69 87 104 104 74 88 105 105 71 78 90 90 76 80 94 94 65 81 96 96 68 80 92 92 78 83 98 98 65 81 96 96 76 80 94 94 10 10 10 10 50 49 106 106 12 12 12 12 8 8 8 8 50 49 106 106 10 10 10 10 8 8 8 8 49 48 46 46 50 49 106 106 6 6 6 6 49 48 46 46 8 8 8 8 55 54 58 58 13 13 107 107 57 56 60 60 15 15 57 57 13 13 107 107 55 54 58 58 6 6 6 6 47 46 44 44 49 48 46 46 4 4 4 4 47 46 44 44 6 6 6 6 30 89 22 22 38 63 37 37 36 89 23 23 31 63 38 38 38 63 37 37 30 89 22 22 51 50 84 84 50 49 47 47 48 47 45 45</p>
				</triangles>
			</mesh>
		</geometry>
	</library_geometries>
	<library_controllers>
		<controller id="polygon0_Controller">
			<skin source="#polygon0">
				<bind_shape_matrix>1 0 0 0 0 1 0 0 0 0 1 0 0 0 0 1</bind_shape_matrix>
				<source id="polygon0_Joints">
					<Name_array id="polygon0_JointArr" count="1">enm_pawn_pla_Weapon_R</Name_array>
					<technique_common>
						<accessor source="#polygon0_JointArr" count="1">
							<param name="JOINT" type="Name" />
						</accessor>
					</technique_common>
				</source>
				<source id="polygon0_Matrices">
					<float_array id="polygon0_MatArr" count="16">1 0 0 0 0 1 0 0 0 0 1 0 0 0 0 1</float_array>
					<technique_common>
						<accessor source="#polygon0_MatArr" count="1" stride="16">
							<param type="float4x4" />
						</accessor>
					</technique_common>
				</source>
				<source id="polygon0_Weights">
					<float_array id="polygon0_WeightArr" count="1">1</float_array>
					<technique_common>
						<accessor source="#polygon0_WeightArr" count="1">
							<param type="float" />
						</accessor>
					</technique_common>
				</source>
				<joints>
					<input semantic="JOINT" source="#polygon0_Joints" />
					<input semantic="INV_BIND_MATRIX" source="#polygon0_Matrices" />
				</joints>
				<vertex_weights count="81">
					<input semantic="JOINT" offset="0" source="#polygon0_Joints" />
					<input semantic="WEIGHT" offset="1" source="#polygon0_Weights" />
					<vcount>1 1 1 1 1 1 1 1 1 1 1 1 1 1 1 1 1 1 1 1 1 1 1 1 1 1 1 1 1 1 1 1 1 1 1 1 1 1 1 1 1 1 1 1 1 1 1 1 1 1 1 1 1 1 1 1 1 1 1 1 1 1 1 1 1 1 1 1 1 1 1 1 1 1 1 1 1 1 1 1 1</vcount>
					<v>0 0 0 0 0 0 0 0 0 0 0 0 0 0 0 0 0 0 0 0 0 0 0 0 0 0 0 0 0 0 0 0 0 0 0 0 0 0 0 0 0 0 0 0 0 0 0 0 0 0 0 0 0 0 0 0 0 0 0 0 0 0 0 0 0 0 0 0 0 0 0 0 0 0 0 0 0 0 0 0 0 0 0 0 0 0 0 0 0 0 0 0 0 0 0 0 0 0 0 0 0 0 0 0 0 0 0 0 0 0 0 0 0 0 0 0 0 0 0 0 0 0 0 0 0 0 0 0 0 0 0 0 0 0 0 0 0 0 0 0 0 0 0 0 0 0 0 0 0 0 0 0 0 0 0 0 0 0 0 0 0 0</v>
				</vertex_weights>
			</skin>
		</controller>
	</library_controllers>
	<library_visual_scenes>
		<visual_scene id="RootNode" name="RootNode">
			<node id="enm_pawn_pla_Weapon_R" name="enm_pawn_pla_Weapon_R" sid="enm_pawn_pla_Weapon_R" type="JOINT" />
			<node id="polygon0" name="polygon0" type="NODE">
				<instance_controller url="#polygon0_Controller">
					<skeleton>#enm_pawn_pla_Weapon_R</skeleton>
					<bind_material>
						<technique_common>
							<instance_material symbol="enm_eggpawn_placos__enMetal__" target="#enm_eggpawn_placos__enMetal__">
								<bind_vertex_input semantic="TEXCOORD0" input_semantic="TEXCOORD" input_set="0" />
								<bind_vertex_input semantic="TEXCOORD0" input_semantic="TEXCOORD" input_set="0" />
								<bind_vertex_input semantic="TEXCOORD0" input_semantic="TEXCOORD" input_set="0" />
								<bind_vertex_input semantic="TEXCOORD1" input_semantic="TEXCOORD" input_set="1" />
							</instance_material>
						</technique_common>
					</bind_material>
				</instance_controller>
			</node>
		</visual_scene>
	</library_visual_scenes>
	<scene>
		<instance_visual_scene url="#RootNode" />
	</scene>
</COLLADA>