<?xml version="1.0" encoding="utf-8"?>
<COLLADA version="1.5.0" xmlns="http://www.collada.org/2008/03/COLLADASchema">
	<asset>
		<contributor>
			<authoring_tool>BrawlBox</authoring_tool>
		</contributor>
		<created>2022-11-10T17:27:30Z</created>
		<modified>2022-11-10T17:27:30Z</modified>
		<unit meter="0.01" name="centimeter" />
		<up_axis>Y_UP</up_axis>
	</asset>
	<library_images>
		<image id="enm_pawn_ref_SD-image" name="enm_pawn_ref_SD">
			<init_from>
				<ref>enm_pawn_ref_SD.png</ref>
			</init_from>
		</image>
		<image id="enm_pawn_spr_SD-image" name="enm_pawn_spr_SD">
			<init_from>
				<ref>enm_pawn_spr_SD.png</ref>
			</init_from>
		</image>
		<image id="enm_pawn_weapon_dif_SD-image" name="enm_pawn_weapon_dif_SD">
			<init_from>
				<ref>enm_pawn_weapon_dif_SD.png</ref>
			</init_from>
		</image>
		<image id="enm_pawn_weapon_spc_SD-image" name="enm_pawn_weapon_spc_SD">
			<init_from>
				<ref>enm_pawn_weapon_spc_SD.png</ref>
			</init_from>
		</image>
	</library_images>
	<library_materials>
		<material id="eggporn_weapon2__enAdd__">
			<instance_effect url="#eggporn_weapon2__enAdd__-fx" />
		</material>
		<material id="eggporn_weapon__enMetal__">
			<instance_effect url="#eggporn_weapon__enMetal__-fx" />
		</material>
	</library_materials>
	<library_effects>
		<effect id="eggporn_weapon2__enAdd__-fx" name="eggporn_weapon2__enAdd__">
			<profile_COMMON>
				<newparam sid="enm_pawn_weapon_dif_SD-surface">
					<surface type="2D">
						<init_from>
							<ref>enm_pawn_weapon_dif_SD-image</ref>
						</init_from>
					</surface>
				</newparam>
				<newparam sid="enm_pawn_weapon_dif_SD-sampler">
					<sampler2D>
						<source>enm_pawn_weapon_dif_SD-surface</source>
						<instance_image url="#enm_pawn_weapon_dif_SD-image" />
						<wrap_s>WRAP</wrap_s>
						<wrap_t>WRAP</wrap_t>
						<minfilter>LINEAR_MIPMAP_LINEAR</minfilter>
						<magfilter>LINEAR</magfilter>
					</sampler2D>
				</newparam>
				<technique sid="COMMON">
					<phong>
						<diffuse>
							<texture texture="enm_pawn_weapon_dif_SD-sampler" texcoord="TEXCOORD0" />
						</diffuse>
					</phong>
				</technique>
			</profile_COMMON>
		</effect>
		<effect id="eggporn_weapon__enMetal__-fx" name="eggporn_weapon__enMetal__">
			<profile_COMMON>
				<newparam sid="enm_pawn_weapon_dif_SD-surface">
					<surface type="2D">
						<init_from>
							<ref>enm_pawn_weapon_dif_SD-image</ref>
						</init_from>
					</surface>
				</newparam>
				<newparam sid="enm_pawn_weapon_dif_SD-sampler">
					<sampler2D>
						<source>enm_pawn_weapon_dif_SD-surface</source>
						<instance_image url="#enm_pawn_weapon_dif_SD-image" />
						<wrap_s>WRAP</wrap_s>
						<wrap_t>WRAP</wrap_t>
						<minfilter>LINEAR_MIPMAP_LINEAR</minfilter>
						<magfilter>LINEAR</magfilter>
					</sampler2D>
				</newparam>
				<technique sid="COMMON">
					<phong>
						<diffuse>
							<texture texture="enm_pawn_weapon_dif_SD-sampler" texcoord="TEXCOORD0" />
						</diffuse>
					</phong>
				</technique>
			</profile_COMMON>
		</effect>
	</library_effects>
	<library_geometries>
		<geometry id="polygon0" name="polygon0">
			<mesh>
				<source id="polygon0_Positions">
					<float_array id="polygon0_PosArr" count="273">-1.760254 -4.093262 -0.01171875 0 -4.093262 -0.5839844 0 -2.337402 -0.5834961 1.760254 -4.093262 -0.01171875 1.760254 -2.337402 -0.01171875 2.848145 -4.092773 1.485352 2.848145 -2.336914 1.485352 2.848145 -4.092285 3.335938 2.848145 -2.336914 3.336426 1.760254 -4.092285 4.833496 1.760254 -2.336426 4.833496 0.921875 -6.956055 3.276367 -0.001953125 -6.956055 2.743164 -0.001953125 -9.897949 2.743164 -0.9262695 -6.956055 3.276367 -0.9262695 -9.897949 3.276367 -0.9262695 -6.956055 4.343262 -0.9262695 -9.897949 4.343262 -0.001953125 -6.956055 4.876953 -0.001953125 -9.897949 4.876953 0.921875 -9.897949 4.343262 -2.258789 1.176758 3.797363 -1.464844 1.176758 2.012207 -1.510254 2.794922 3.062012 0 2.794922 2.289551 0 3.509277 3.797363 1.510254 2.794922 3.062012 1.510254 2.794922 4.555664 2.259277 1.176758 3.797363 1.464844 1.176758 5.713867 0.6918945 -5.108887 3.810059 -0.001953125 -5.108887 3.008301 -0.001953125 -7.131836 3.008301 -0.6962891 -5.108887 3.810059 -0.6962891 -7.131836 3.810059 -0.001953125 -5.108887 4.611328 -0.001953125 -7.131836 4.611328 0.6918945 -7.131836 3.810059 0 -4.602539 6.067871 -1.464844 -4.602539 5.713867 -1.464844 1.176758 5.713867 -2.258789 -4.602539 3.797363 -1.464844 -4.602539 2.012207 0 1.176758 1.580566 1.464844 -4.602539 5.713867 2.259277 -4.602539 3.797363 1.403809 -5.206543 4.584961 1.403809 -5.206543 3.032715 0 -5.206543 2.306641 1.464844 -4.602539 2.012207 0 -4.602539 1.580566 -2.848145 -4.092773 1.485352 -2.848145 -4.092285 3.335938 -1.760254 -4.092285 4.833496 0 -4.092285 5.405273 0.5488281 1.3125 -2.35791 -0.5488281 1.3125 -2.35791 0.5488281 -0.01123047 -2.35791 -0.5488281 -0.01123047 -2.35791 -0.5488281 -0.8588867 1.865723 -0.5488281 0.9194336 1.865723 0.5488281 -0.8588867 1.865723 0.5488281 0.9194336 1.865723 -1.403809 -5.206543 3.032715 -1.403809 -5.206543 4.584961 0 1.176758 6.067871 0 2.794922 5.446289 -1.510254 2.794922 4.555664 1.464844 1.176758 2.012207 -0.4248047 -0.2456055 0.5673828 -0.4248047 -0.2456055 1.822754 0 -0.9414063 0.5673828 0 -1.412109 1.822754 0.4248047 -0.2456055 0.5673828 0.4248047 -0.2456055 1.822754 -1.760254 -2.336426 4.833496 -2.848145 -2.336914 3.336426 0 -5.206543 5.429199 -2.848145 -2.336914 1.485352 -1.760254 -2.337402 -0.01171875 -0.7348633 -0.6508789 5.80957 -0.7348633 -3.447266 9.584961 -0.7348633 -4.605469 5.80957 -0.7348633 -4.964355 9.015137 0.7348633 -4.964355 9.015137 0 -2.336426 5.405762 0.921875 -9.897949 3.276367 0.921875 -6.956055 4.343262 0.7348633 -3.447266 9.584961 0.7348633 -0.6508789 5.80957 0.7348633 -4.605469 5.80957</float_array>
					<technique_common>
						<accessor source="#polygon0_PosArr" count="91" stride="3">
							<param name="X" type="float" />
							<param name="Y" type="float" />
							<param name="Z" type="float" />
						</accessor>
					</technique_common>
				</source>
				<source id="polygon0_Normals">
					<float_array id="polygon0_NormArr" count="252">-0.5877686 0.0001220703 -0.809021 0 0.0001220703 -1 0.5877686 0.0001220703 -0.809021 0.5878296 0.0001220703 -0.809021 0.9510498 6.103516E-05 -0.309082 0.9510498 6.103516E-05 -0.30896 0.9510498 -6.103516E-05 0.30896 0.9510498 -6.103516E-05 0.309082 0.809021 -6.103516E-05 0.5877686 0.6862183 0.6099854 -0.3961792 0 0.6099854 -0.7924194 0 -0.6099854 -0.7924194 -0.6862183 0.6099854 -0.3961792 -0.6862183 -0.6099854 -0.3961792 -0.6862183 0.6099854 0.3961792 -0.6862183 -0.6099854 0.3961792 0 0.6099854 0.7924194 0 -0.6099854 0.7924194 0.6862183 -0.6099854 0.3961792 -0.9887695 0.1491699 -0.01153564 -0.6312866 0.1889648 -0.7521973 -0.6508789 0.6629639 -0.3699341 0 0.6820068 -0.7313232 0 0.999939 -0.01281738 0.6508789 0.6629639 -0.3699341 0.6593628 0.6681519 0.3446655 0.9887695 0.1491699 -0.01153564 0.6271973 0.1907349 0.755188 1 0 0 0 0 -1 -1 0 0 0 0 1 0 -0.3756104 0.9267578 -0.5874634 -0.3988647 0.7041016 -0.6271973 0.1907349 0.755188 -0.9273071 -0.3741455 -0.01043701 -0.5909424 -0.3963013 -0.7026978 0 0.197937 -0.9802246 0.5874634 -0.3988647 0.7041016 0.9273071 -0.3741455 -0.01043701 0.3902588 -0.9008179 0.1904297 0.3894653 -0.8964844 -0.2112427 0 -0.9210815 -0.3892822 0.5909424 -0.3963013 -0.7026978 0 -0.397644 -0.9175415 0 -1 0.0001831055 0.5726318 0.605957 -0.5521851 -0.5726318 0.605957 -0.5521851 0.588501 -0.5123901 -0.6254272 -0.588501 -0.5123901 -0.6254272 -0.65802 -0.7382813 -0.1481323 -0.7271118 0.6835938 0.06359863 0.65802 -0.7382813 -0.1481323 0.7271118 0.6835938 0.06359863 -0.3894653 -0.8964844 -0.2112427 -0.3902588 -0.9008179 0.1904297 0 0.1777344 0.9840698 0 0.6872559 0.7264404 -0.6593628 0.6681519 0.3446655 0.6312866 0.1889648 -0.7521973 -0.71521 -0.4368896 -0.5455322 -0.9092407 -0.4082031 -0.081604 -0.04907227 -0.7493896 -0.6602783 -0.02648926 -0.9662476 -0.2562866 0.7199097 -0.3475342 -0.6008301 0.9396362 -0.3422241 0 -0.809021 -6.103516E-05 0.5877686 -0.9510498 -6.103516E-05 0.309082 -0.9510498 -6.103516E-05 0.30896 -0.9510498 6.103516E-05 -0.309082 0 -0.9118042 0.4106445 0 1 -0.0001831055 -0.5108032 0.6908569 0.5116577 -0.5933838 0.2279053 0.7719727 -0.730896 -0.6782227 -0.07592773 -0.5914917 -0.6873779 0.4215088 0.5914917 -0.6873779 0.4215088 -0.9510498 6.103516E-05 -0.30896 -0.5878296 0.0001220703 -0.809021 0.6862183 -0.6099854 -0.3961792 0.6862183 0.6099854 0.3961792 0.5933838 0.2279053 0.7719727 0.5108032 0.6908569 0.5116577 0.730896 -0.6782227 -0.07592773</float_array>
					<technique_common>
						<accessor source="#polygon0_NormArr" count="84" stride="3">
							<param name="X" type="float" />
							<param name="Y" type="float" />
							<param name="Z" type="float" />
						</accessor>
					</technique_common>
				</source>
				<source id="polygon0_UVs0">
					<float_array id="polygon0_UVArr0" count="208">0.5039063 0.05731201 0.5039063 0.007080078 0.4487305 0.007080078 0.4487305 0.05731201 0.5039063 0.1000366 0.4487305 0.1000366 0.5039063 0.1528625 0.4487305 0.1528625 0.5039063 0.1955872 0.4487305 0.1955872 0.1179504 0.6184998 0.1179504 0.5856934 0.2961731 0.5856934 0.2961731 0.6184998 0.1179504 0.6563721 0.2961731 0.6563721 0.1179504 0.6879578 0.2961731 0.6879578 0.3760071 0.3516541 0.3184204 0.2630005 0.3318787 0.3288879 0.2816467 0.3031921 0.2816467 0.3522339 0.3318787 0.3756104 0.3315735 0.4441528 0.424408 0.7843018 0.424408 0.8310242 0.3192749 0.8310242 0.3192749 0.7843018 0.424408 0.7330322 0.3192749 0.7330322 0.5145874 0.2478027 0.5614929 0.2478027 0.5614929 0.006561279 0.6717529 0.2477417 0.6715698 0.006530762 0.7818909 0.2476196 0.7815552 0.006408691 0.8283691 0.006347656 0.2204285 0.4388428 0.1752014 0.3579407 0.2180786 0.3904419 0.209259 0.3004456 0.269043 0.2841492 0.2201538 0.2620239 0.269043 0.2563477 0.218811 0.09014893 0.218811 0.1661377 0.2574463 0.02865601 0.2574463 0.2276306 0.3199158 0.005187988 0.3199158 0.2511292 0.5084534 0.2556458 0.4571838 0.2553101 0.5087891 0.2944946 0.4621582 0.2941895 0.4719849 0.4547729 0.4147339 0.2822876 0.3912048 0.4393311 0.5209961 0.4551697 0.6010132 0.4402466 0.5588989 0.2825317 0.6526184 0.43396 0.6134338 0.276001 0.2816467 0.4489746 0.2816467 0.4013062 0.2816467 0.2555237 0.6783752 0.9094238 0.6771851 0.9926147 0.7130432 0.9040833 0.7436829 0.9859619 0.730896 0.8798828 0.7956848 0.9406128 0.8287048 0.2475891 0.269043 0.4289551 0.4400635 0.1644287 0.4400635 0.08874512 0.3991699 0.225647 0.3991699 0.02752686 0.3330383 0.004119873 0.269043 0.4489746 0.6795654 0.4292603 0.7889099 0.3516235 0.6677551 0.3615417 0.7648926 0.330719 0.7541809 0.3184814 0.3330383 0.2490234 0.1786499 0.569519 0.1411743 0.5159912 0.2431641 0.569519 0.2836304 0.5159912 0.6202393 0.7739563 0.6615295 0.750824 0.6204224 0.8200378 0.6618652 0.8429565 0.5146179 0.006561279 0.7529907 0.2770386 0.6314697 0.2822266 0.6314697 0.2607117 0.659729 0.3414612 0.7805786 0.2765198 0.7813721 0.3138733 0.7529907 0.2601318 0.690918 0.8909302</float_array>
					<technique_common>
						<accessor source="#polygon0_UVArr0" count="104" stride="2">
							<param name="S" type="float" />
							<param name="T" type="float" />
						</accessor>
					</technique_common>
				</source>
				<source id="polygon0_UVs1">
					<float_array id="polygon0_UVArr1" count="208">0.5039063 0.05731201 0.5039063 0.007080078 0.4487305 0.007080078 0.4487305 0.05731201 0.5039063 0.1000366 0.4487305 0.1000366 0.5039063 0.1528625 0.4487305 0.1528625 0.5039063 0.1955872 0.4487305 0.1955872 0.1179504 0.6184998 0.1179504 0.5856934 0.2961731 0.5856934 0.2961731 0.6184998 0.1179504 0.6563721 0.2961731 0.6563721 0.1179504 0.6879578 0.2961731 0.6879578 0.3760071 0.3516541 0.3184204 0.2630005 0.3318787 0.3288879 0.2816467 0.3031921 0.2816467 0.3522339 0.3318787 0.3756104 0.3315735 0.4441528 0.424408 0.7843018 0.424408 0.8310242 0.3192749 0.8310242 0.3192749 0.7843018 0.424408 0.7330322 0.3192749 0.7330322 0.5145874 0.2478027 0.5614929 0.2478027 0.5614929 0.006561279 0.6717529 0.2477417 0.6715698 0.006530762 0.7818909 0.2476196 0.7815552 0.006408691 0.8283691 0.006347656 0.2204285 0.4388428 0.1752014 0.3579407 0.2180786 0.3904419 0.209259 0.3004456 0.269043 0.2841492 0.2201538 0.2620239 0.269043 0.2563477 0.218811 0.09014893 0.218811 0.1661377 0.2574463 0.02865601 0.2574463 0.2276306 0.3199158 0.005187988 0.3199158 0.2511292 0.5084534 0.2556458 0.4571838 0.2553101 0.5087891 0.2944946 0.4621582 0.2941895 0.4719849 0.4547729 0.4147339 0.2822876 0.3912048 0.4393311 0.5209961 0.4551697 0.6010132 0.4402466 0.5588989 0.2825317 0.6526184 0.43396 0.6134338 0.276001 0.2816467 0.4489746 0.2816467 0.4013062 0.2816467 0.2555237 0.6783752 0.9094238 0.6771851 0.9926147 0.7130432 0.9040833 0.7436829 0.9859619 0.730896 0.8798828 0.7956848 0.9406128 0.8287048 0.2475891 0.269043 0.4289551 0.4400635 0.1644287 0.4400635 0.08874512 0.3991699 0.225647 0.3991699 0.02752686 0.3330383 0.004119873 0.269043 0.4489746 0.6795654 0.4292603 0.7889099 0.3516235 0.6677551 0.3615417 0.7648926 0.330719 0.7541809 0.3184814 0.3330383 0.2490234 0.1786499 0.569519 0.1411743 0.5159912 0.2431641 0.569519 0.2836304 0.5159912 0.6202393 0.7739563 0.6615295 0.750824 0.6204224 0.8200378 0.6618652 0.8429565 0.5146179 0.006561279 0.7529907 0.2770386 0.6314697 0.2822266 0.6314697 0.2607117 0.659729 0.3414612 0.7805786 0.2765198 0.7813721 0.3138733 0.7529907 0.2601318 0.690918 0.8909302</float_array>
					<technique_common>
						<accessor source="#polygon0_UVArr1" count="104" stride="2">
							<param name="S" type="float" />
							<param name="T" type="float" />
						</accessor>
					</technique_common>
				</source>
				<vertices id="polygon0_Vertices">
					<input semantic="POSITION" source="#polygon0_Positions" />
				</vertices>
				<triangles material="eggporn_weapon__enMetal__" count="139">
					<input semantic="VERTEX" source="#polygon0_Vertices" offset="0" />
					<input semantic="NORMAL" source="#polygon0_Normals" offset="1" />
					<input semantic="TEXCOORD" source="#polygon0_UVs0" set="0" offset="2" />
					<input semantic="TEXCOORD" source="#polygon0_UVs1" set="1" offset="3" />
					<p>2 1 2 2 1 1 1 1 0 0 0 0 3 2 0 0 1 1 1 1 2 1 2 2 4 3 3 3 3 2 0 0 2 1 2 2 5 4 4 4 3 2 0 0 4 3 3 3 6 5 5 5 5 4 4 4 4 3 3 3 7 6 6 6 5 4 4 4 6 5 5 5 8 7 7 7 7 6 6 6 6 5 5 5 9 8 8 8 7 6 6 6 8 7 7 7 10 8 9 9 9 8 8 8 8 7 7 7 13 11 12 12 12 10 11 11 11 9 10 10 14 12 10 10 12 10 11 11 13 11 12 12 15 13 13 13 14 12 10 10 13 11 12 12 16 14 14 14 14 12 10 10 15 13 13 13 17 15 15 15 16 14 14 14 15 13 13 13 18 16 16 16 16 14 14 14 17 15 15 15 19 17 17 17 18 16 16 16 17 15 15 15 20 18 15 15 18 16 16 16 19 17 17 17 23 21 20 20 22 20 19 19 21 19 18 18 24 22 21 21 22 20 19 19 23 21 20 20 25 23 22 22 24 22 21 21 23 21 20 20 26 24 20 20 24 22 21 21 25 23 22 22 27 25 23 23 26 24 20 20 25 23 22 22 28 26 18 18 26 24 20 20 27 25 23 23 29 27 24 24 28 26 18 18 27 25 23 23 32 29 27 27 31 29 26 26 30 28 25 25 33 30 25 25 31 29 26 26 32 29 27 27 34 30 28 28 33 30 25 25 32 29 27 27 35 31 29 29 33 30 25 25 34 30 28 28 36 31 30 30 35 31 29 29 34 30 28 28 37 28 28 28 35 31 29 29 36 31 30 30 40 34 33 33 39 33 32 32 38 32 31 31 41 35 34 34 39 33 32 32 40 34 33 33 21 19 35 35 41 35 34 34 40 34 33 33 42 36 36 36 41 35 34 34 21 19 35 35 22 20 37 37 42 36 36 36 21 19 35 35 43 37 38 38 42 36 36 36 22 20 37 37 46 40 41 41 45 39 40 40 44 38 39 39 47 41 42 42 45 39 40 40 46 40 41 41 48 42 43 43 47 41 42 42 46 40 41 41 49 43 44 44 47 41 42 42 48 42 43 43 50 44 45 45 49 43 44 44 48 42 43 43 0 45 48 48 52 45 47 47 51 45 46 46 53 45 49 49 52 45 47 47 0 45 48 48 1 45 50 50 53 45 49 49 0 45 48 48 54 45 51 51 53 45 49 49 1 45 50 50 9 45 49 49 54 45 51 51 1 45 50 50 57 48 54 54 56 47 53 53 55 46 52 52 58 49 55 55 56 47 53 53 57 48 54 54 59 50 56 56 58 49 55 55 57 48 54 54 56 47 57 57 58 49 55 55 59 50 56 56 60 51 58 58 56 47 57 57 59 50 56 56 57 48 54 54 61 52 59 59 59 50 56 56 62 53 60 60 61 52 59 59 57 48 54 54 55 46 61 61 62 53 60 60 57 48 54 54 60 51 62 62 62 53 60 60 55 46 61 61 56 47 63 63 60 51 62 62 55 46 61 61 48 42 43 43 42 36 44 44 50 44 45 45 63 54 42 42 42 36 44 44 48 42 43 43 64 55 41 41 63 54 42 42 48 42 43 43 41 35 40 40 63 54 42 42 64 55 41 41 39 33 39 39 41 35 40 40 64 55 41 41 66 57 65 65 40 34 24 24 65 56 64 64 67 58 23 23 40 34 24 24 66 57 65 65 25 23 22 22 67 58 23 23 66 57 65 65 23 21 20 20 67 58 23 23 25 23 22 22 68 59 19 19 26 24 20 20 28 26 18 18 24 22 21 21 26 24 20 20 68 59 19 19 43 37 66 66 24 22 21 21 68 59 19 19 22 20 19 19 24 22 21 21 43 37 66 66 71 62 69 69 70 61 68 68 69 60 67 67 72 63 70 70 70 61 68 68 71 62 69 69 73 64 71 71 72 63 70 70 71 62 69 69 74 65 72 72 72 63 70 70 73 64 71 71 49 43 36 36 68 59 37 37 28 26 35 35 43 37 38 38 68 59 37 37 49 43 36 36 50 44 73 73 43 37 38 38 49 43 36 36 42 36 36 36 43 37 38 38 50 44 73 73 76 67 7 7 53 66 8 8 75 66 9 9 52 68 6 6 53 66 8 8 76 67 7 7 51 69 4 4 52 68 6 6 76 67 7 7 77 70 74 74 46 40 41 41 44 38 39 39 48 42 43 43 46 40 41 41 77 70 74 74 64 55 41 41 48 42 43 43 77 70 74 74 75 71 77 77 78 71 76 76 76 71 75 75 79 71 78 78 78 71 76 76 75 71 77 77 2 71 79 79 79 71 78 78 75 71 77 77 77 70 74 74 39 33 39 39 64 55 41 41 38 32 80 80 39 33 39 39 77 70 74 74 44 38 39 39 38 32 80 80 77 70 74 74 3 45 48 48 9 45 49 49 1 45 50 50 7 45 47 47 9 45 49 49 3 45 48 48 5 45 46 46 7 45 47 47 3 45 48 48 82 74 83 83 81 73 82 82 80 72 81 81 83 75 84 84 81 73 82 82 82 74 83 83 84 76 85 85 83 75 84 84 82 74 83 83 78 77 5 5 51 69 4 4 76 67 7 7 79 78 3 3 51 69 4 4 78 77 5 5 79 78 3 3 0 0 0 0 51 69 4 4 2 1 2 2 0 0 0 0 79 78 3 3 85 71 86 86 2 71 79 79 75 71 77 77 10 71 77 77 2 71 79 79 85 71 86 86 29 27 24 24 66 57 65 65 65 56 64 64 27 25 23 23 66 57 65 65 29 27 24 24 67 58 23 23 21 19 18 18 40 34 24 24 23 21 20 20 21 19 18 18 67 58 23 23 20 18 89 89 13 11 88 88 86 79 87 87 19 17 90 90 13 11 88 88 20 18 89 89 11 9 93 93 18 16 92 92 87 80 91 91 12 10 94 94 18 16 92 92 11 9 93 93 17 15 89 89 13 11 88 88 19 17 90 90 15 13 87 87 13 11 88 88 17 15 89 89 14 12 93 93 18 16 92 92 12 10 94 94 16 14 91 91 18 16 92 92 14 12 93 93 44 38 32 32 29 27 33 33 38 32 31 31 45 39 34 34 29 27 33 33 44 38 32 32 65 56 95 95 38 32 31 31 29 27 33 33 40 34 33 33 38 32 31 31 65 56 95 95 45 39 34 34 28 26 35 35 29 27 33 33 49 43 36 36 28 26 35 35 45 39 34 34 89 82 97 97 88 81 96 96 84 76 85 85 80 72 98 98 88 81 96 96 89 82 97 97 90 83 99 99 84 76 85 85 82 74 83 83 89 82 97 97 84 76 85 85 90 83 99 99 83 75 101 101 88 81 96 96 81 73 100 100 84 76 85 85 88 81 96 96 83 75 101 101 11 9 10 10 86 79 13 13 13 11 12 12 87 80 14 14 86 79 13 13 11 9 10 10 87 80 14 14 20 18 15 15 86 79 13 13 18 16 16 16 20 18 15 15 87 80 14 14 6 71 76 76 10 71 77 77 8 71 75 75 4 71 78 78 10 71 77 77 6 71 76 76 30 28 25 25 37 28 28 28 32 29 27 27 35 31 29 29 37 28 28 28 30 28 25 25 4 71 78 78 2 71 79 79 10 71 77 77 81 73 102 102 88 81 96 96 80 72 98 98 73 64 71 71 71 62 69 69 69 60 103 103 25 23 22 22 66 57 65 65 27 25 23 23 45 39 40 40 47 41 42 42 49 43 44 44 41 35 40 40 42 36 44 44 63 54 42 42</p>
				</triangles>
			</mesh>
		</geometry>
		<geometry id="polygon1" name="polygon1">
			<mesh>
				<source id="polygon1_Positions">
					<float_array id="polygon1_PosArr" count="66">0 -3.48584 -0.6057129 0 -2.943848 -0.6054688 -1.774414 -3.48584 -0.02905273 -1.774414 -2.943848 -0.02880859 -2.871338 -3.48584 1.480469 -2.871338 -2.943848 1.480713 -2.871338 -2.943604 3.34668 -0.2114258 -4.116211 0.2905273 0.2114258 -4.116211 0.2905273 -0.4179688 -4.116211 -0.2089844 0.4179688 -4.116211 -0.2089844 -2.871338 -3.485596 3.346436 -1.94873 -3.485596 4.615967 1.774658 -3.48584 -0.02905273 1.774658 -2.943848 -0.02880859 2.871338 -3.48584 1.480469 2.871338 -2.943848 1.480713 2.871338 -3.485596 3.346436 2.871338 -2.943604 3.34668 1.94873 -3.485596 4.615967 1.94873 -2.943604 4.616211 -1.94873 -2.943604 4.616211</float_array>
					<technique_common>
						<accessor source="#polygon1_PosArr" count="22" stride="3">
							<param name="X" type="float" />
							<param name="Y" type="float" />
							<param name="Z" type="float" />
						</accessor>
					</technique_common>
				</source>
				<source id="polygon1_UVs0">
					<float_array id="polygon1_UVArr0" count="32">0.4848022 0.006896973 0.4677734 0.006896973 0.4848022 0.05737305 0.4677734 0.05737305 0.4848328 0.1000977 0.4677734 0.1000977 0.467804 0.1529236 0.4705811 0.1793213 0.4829407 0.1793213 0.4705811 0.1706848 0.4829407 0.1706848 0.4848328 0.1529236 0.4848328 0.1889954 0.4848328 0.1529541 0.467804 0.1529541 0.467804 0.1889954</float_array>
					<technique_common>
						<accessor source="#polygon1_UVArr0" count="16" stride="2">
							<param name="S" type="float" />
							<param name="T" type="float" />
						</accessor>
					</technique_common>
				</source>
				<vertices id="polygon1_Vertices">
					<input semantic="POSITION" source="#polygon1_Positions" />
				</vertices>
				<triangles material="eggporn_weapon2__enAdd__" count="18">
					<input semantic="VERTEX" source="#polygon1_Vertices" offset="0" />
					<input semantic="TEXCOORD" source="#polygon1_UVs0" set="0" offset="1" />
					<p>2 2 1 1 0 0 3 3 1 1 2 2 4 4 3 3 2 2 5 5 3 3 4 4 6 6 5 5 4 4 9 9 8 8 7 7 10 10 8 8 9 9 11 11 6 6 4 4 12 12 6 6 11 11 1 1 13 2 0 0 14 3 13 2 1 1 14 3 15 4 13 2 16 5 15 4 14 3 16 5 17 13 15 4 18 14 17 13 16 5 18 14 19 12 17 13 20 15 19 12 18 14 21 15 6 6 12 12</p>
				</triangles>
			</mesh>
		</geometry>
	</library_geometries>
	<library_controllers>
		<controller id="polygon0_Controller">
			<skin source="#polygon0">
				<bind_shape_matrix>1 0 0 0 0 1 0 0 0 0 1 0 0 0 0 1</bind_shape_matrix>
				<source id="polygon0_Joints">
					<Name_array id="polygon0_JointArr" count="2">Gun Effect</Name_array>
					<technique_common>
						<accessor source="#polygon0_JointArr" count="2">
							<param name="JOINT" type="Name" />
						</accessor>
					</technique_common>
				</source>
				<source id="polygon0_Matrices">
					<float_array id="polygon0_MatArr" count="32">1 0 0 0 0 1 0 0 0 0 1 0 0 0 0 1 1 0 0 0 0 1 0 9.922871 0 0 1 -3.796984 0 0 0 1</float_array>
					<technique_common>
						<accessor source="#polygon0_MatArr" count="2" stride="16">
							<param type="float4x4" />
						</accessor>
					</technique_common>
				</source>
				<source id="polygon0_Weights">
					<float_array id="polygon0_WeightArr" count="1">1</float_array>
					<technique_common>
						<accessor source="#polygon0_WeightArr" count="1">
							<param type="float" />
						</accessor>
					</technique_common>
				</source>
				<joints>
					<input semantic="JOINT" source="#polygon0_Joints" />
					<input semantic="INV_BIND_MATRIX" source="#polygon0_Matrices" />
				</joints>
				<vertex_weights count="91">
					<input semantic="JOINT" offset="0" source="#polygon0_Joints" />
					<input semantic="WEIGHT" offset="1" source="#polygon0_Weights" />
					<vcount>1 1 1 1 1 1 1 1 1 1 1 1 1 1 1 1 1 1 1 1 1 1 1 1 1 1 1 1 1 1 1 1 1 1 1 1 1 1 1 1 1 1 1 1 1 1 1 1 1 1 1 1 1 1 1 1 1 1 1 1 1 1 1 1 1 1 1 1 1 1 1 1 1 1 1 1 1 1 1 1 1 1 1 1 1 1 1 1 1 1 1</vcount>
					<v>0 0 0 0 0 0 0 0 0 0 0 0 0 0 0 0 0 0 0 0 0 0 0 0 0 0 0 0 0 0 0 0 0 0 0 0 0 0 0 0 0 0 0 0 0 0 0 0 0 0 0 0 0 0 0 0 0 0 0 0 0 0 0 0 0 0 0 0 0 0 0 0 0 0 0 0 0 0 0 0 0 0 0 0 0 0 0 0 0 0 0 0 0 0 0 0 0 0 0 0 0 0 0 0 0 0 0 0 0 0 0 0 0 0 0 0 0 0 0 0 0 0 0 0 0 0 0 0 0 0 0 0 0 0 0 0 0 0 0 0 0 0 0 0 0 0 0 0 0 0 0 0 0 0 0 0 0 0 0 0 0 0 0 0 0 0 0 0 0 0 0 0 0 0 0 0 0 0 0 0 0 0</v>
				</vertex_weights>
			</skin>
		</controller>
		<controller id="polygon1_Controller">
			<skin source="#polygon1">
				<bind_shape_matrix>1 0 0 0 0 1 0 0 0 0 1 0 0 0 0 1</bind_shape_matrix>
				<source id="polygon1_Joints">
					<Name_array id="polygon1_JointArr" count="2">Gun Effect</Name_array>
					<technique_common>
						<accessor source="#polygon1_JointArr" count="2">
							<param name="JOINT" type="Name" />
						</accessor>
					</technique_common>
				</source>
				<source id="polygon1_Matrices">
					<float_array id="polygon1_MatArr" count="32">1 0 0 0 0 1 0 0 0 0 1 0 0 0 0 1 1 0 0 0 0 1 0 9.922871 0 0 1 -3.796984 0 0 0 1</float_array>
					<technique_common>
						<accessor source="#polygon1_MatArr" count="2" stride="16">
							<param type="float4x4" />
						</accessor>
					</technique_common>
				</source>
				<source id="polygon1_Weights">
					<float_array id="polygon1_WeightArr" count="1">1</float_array>
					<technique_common>
						<accessor source="#polygon1_WeightArr" count="1">
							<param type="float" />
						</accessor>
					</technique_common>
				</source>
				<joints>
					<input semantic="JOINT" source="#polygon1_Joints" />
					<input semantic="INV_BIND_MATRIX" source="#polygon1_Matrices" />
				</joints>
				<vertex_weights count="22">
					<input semantic="JOINT" offset="0" source="#polygon1_Joints" />
					<input semantic="WEIGHT" offset="1" source="#polygon1_Weights" />
					<vcount>1 1 1 1 1 1 1 1 1 1 1 1 1 1 1 1 1 1 1 1 1 1</vcount>
					<v>0 0 0 0 0 0 0 0 0 0 0 0 0 0 0 0 0 0 0 0 0 0 0 0 0 0 0 0 0 0 0 0 0 0 0 0 0 0 0 0 0 0 0 0</v>
				</vertex_weights>
			</skin>
		</controller>
	</library_controllers>
	<library_visual_scenes>
		<visual_scene id="RootNode" name="RootNode">
			<node id="Gun" name="Gun" sid="Gun" type="JOINT">
				<node id="Effect" name="Effect" sid="Effect" type="JOINT">
					<translate>0 -9.922871 3.796984</translate>
				</node>
			</node>
			<node id="polygon0" name="polygon0" type="NODE">
				<instance_controller url="#polygon0_Controller">
					<skeleton>#Gun</skeleton>
					<bind_material>
						<technique_common>
							<instance_material symbol="eggporn_weapon__enMetal__" target="#eggporn_weapon__enMetal__">
								<bind_vertex_input semantic="TEXCOORD0" input_semantic="TEXCOORD" input_set="0" />
								<bind_vertex_input semantic="TEXCOORD0" input_semantic="TEXCOORD" input_set="0" />
								<bind_vertex_input semantic="TEXCOORD0" input_semantic="TEXCOORD" input_set="0" />
								<bind_vertex_input semantic="TEXCOORD1" input_semantic="TEXCOORD" input_set="1" />
							</instance_material>
						</technique_common>
					</bind_material>
				</instance_controller>
			</node>
			<node id="polygon1" name="polygon1" type="NODE">
				<instance_controller url="#polygon1_Controller">
					<skeleton>#Gun</skeleton>
					<bind_material>
						<technique_common>
							<instance_material symbol="eggporn_weapon2__enAdd__" target="#eggporn_weapon2__enAdd__">
								<bind_vertex_input semantic="TEXCOORD0" input_semantic="TEXCOORD" input_set="0" />
							</instance_material>
						</technique_common>
					</bind_material>
				</instance_controller>
			</node>
		</visual_scene>
	</library_visual_scenes>
	<scene>
		<instance_visual_scene url="#RootNode" />
	</scene>
</COLLADA>