<?xml version="1.0" encoding="utf-8"?>
<COLLADA version="1.5.0" xmlns="http://www.collada.org/2008/03/COLLADASchema">
	<asset>
		<contributor>
			<authoring_tool>BrawlBox</authoring_tool>
		</contributor>
		<created>2022-11-10T17:28:43Z</created>
		<modified>2022-11-10T17:28:43Z</modified>
		<unit meter="0.01" name="centimeter" />
		<up_axis>Y_UP</up_axis>
	</asset>
	<library_images>
		<image id="enm_pawn_rso_cos_dif_SD-image" name="enm_pawn_rso_cos_dif_SD">
			<init_from>
				<ref>enm_pawn_rso_cos_dif_SD.png</ref>
			</init_from>
		</image>
		<image id="enm_pawn_rso_cos_spc_SD-image" name="enm_pawn_rso_cos_spc_SD">
			<init_from>
				<ref>enm_pawn_rso_cos_spc_SD.png</ref>
			</init_from>
		</image>
		<image id="enm_pawn_rsocos_ref_SD-image" name="enm_pawn_rsocos_ref_SD">
			<init_from>
				<ref>enm_pawn_rsocos_ref_SD.png</ref>
			</init_from>
		</image>
		<image id="enm_pawn_rsocos_spr_SD-image" name="enm_pawn_rsocos_spr_SD">
			<init_from>
				<ref>enm_pawn_rsocos_spr_SD.png</ref>
			</init_from>
		</image>
	</library_images>
	<library_materials>
		<material id="enm_eggpawn_rsocos__enLuminouseO__">
			<instance_effect url="#enm_eggpawn_rsocos__enLuminouseO__-fx" />
		</material>
		<material id="enm_eggpawn_rsocos__enMetal__">
			<instance_effect url="#enm_eggpawn_rsocos__enMetal__-fx" />
		</material>
	</library_materials>
	<library_effects>
		<effect id="enm_eggpawn_rsocos__enLuminouseO__-fx" name="enm_eggpawn_rsocos__enLuminouseO__">
			<profile_COMMON>
				<newparam sid="enm_pawn_rso_cos_dif_SD-surface">
					<surface type="2D">
						<init_from>
							<ref>enm_pawn_rso_cos_dif_SD-image</ref>
						</init_from>
					</surface>
				</newparam>
				<newparam sid="enm_pawn_rso_cos_dif_SD-sampler">
					<sampler2D>
						<source>enm_pawn_rso_cos_dif_SD-surface</source>
						<instance_image url="#enm_pawn_rso_cos_dif_SD-image" />
						<wrap_s>WRAP</wrap_s>
						<wrap_t>WRAP</wrap_t>
						<minfilter>LINEAR_MIPMAP_LINEAR</minfilter>
						<magfilter>LINEAR</magfilter>
					</sampler2D>
				</newparam>
				<technique sid="COMMON">
					<phong>
						<diffuse>
							<texture texture="enm_pawn_rso_cos_dif_SD-sampler" texcoord="TEXCOORD0" />
						</diffuse>
					</phong>
				</technique>
			</profile_COMMON>
		</effect>
		<effect id="enm_eggpawn_rsocos__enMetal__-fx" name="enm_eggpawn_rsocos__enMetal__">
			<profile_COMMON>
				<newparam sid="enm_pawn_rso_cos_dif_SD-surface">
					<surface type="2D">
						<init_from>
							<ref>enm_pawn_rso_cos_dif_SD-image</ref>
						</init_from>
					</surface>
				</newparam>
				<newparam sid="enm_pawn_rso_cos_dif_SD-sampler">
					<sampler2D>
						<source>enm_pawn_rso_cos_dif_SD-surface</source>
						<instance_image url="#enm_pawn_rso_cos_dif_SD-image" />
						<wrap_s>WRAP</wrap_s>
						<wrap_t>WRAP</wrap_t>
						<minfilter>LINEAR_MIPMAP_LINEAR</minfilter>
						<magfilter>LINEAR</magfilter>
					</sampler2D>
				</newparam>
				<technique sid="COMMON">
					<phong>
						<diffuse>
							<texture texture="enm_pawn_rso_cos_dif_SD-sampler" texcoord="TEXCOORD0" />
						</diffuse>
					</phong>
				</technique>
			</profile_COMMON>
		</effect>
	</library_effects>
	<library_geometries>
		<geometry id="polygon0" name="polygon0">
			<mesh>
				<source id="polygon0_Positions">
					<float_array id="polygon0_PosArr" count="240">-0.5820313 4.719727 14.69434 -0.5771484 -5.28125 15.67383 -0.5820313 -4.68457 14.69434 -0.5771484 -8.466797 10.96973 -0.5820313 -7.229492 10.96973 -0.5771484 -5.275391 6.246094 -0.5820313 -4.510742 7.048828 -0.5771484 5.275391 6.246094 -0.5820313 4.62793 7.048828 -0.5771484 8.466797 10.96973 -0.5820313 7.294922 10.96973 -0.5771484 5.28125 15.67383 0.5820313 -4.68457 14.69434 0.5771484 5.28125 15.67383 0.5820313 4.719727 14.69434 0.5771484 8.466797 10.96973 0.5820313 7.294922 10.96973 0.5771484 5.275391 6.246094 0.5820313 4.570313 7.048828 0.5771484 -5.275391 6.246094 0.5820313 -4.732422 7.048828 0.5771484 -8.466797 10.96973 0.5820313 -7.229492 10.96973 0.5771484 -5.28125 15.67383 -0.5771484 0.7666016 17.92676 0.5771484 0.7666016 17.92676 -0.5771484 0 18.07813 0.5771484 0 18.07813 -0.5771484 -0.7666016 17.92676 0.5771484 -0.7666016 17.92676 0.5771484 -2.275391 17.83105 0.5771484 -1.201172 18.54492 0.5771484 -1.84082 17.21191 -0.5771484 -1.201172 18.54492 -0.5771484 -2.275391 17.83105 -0.5771484 -1.84082 17.21191 -0.5771484 1.84082 17.21191 -0.5771484 2.360352 16.49121 -0.5771484 2.275391 17.83105 -0.5771484 1.201172 18.54492 0.5771484 1.201172 18.54492 0.5771484 2.275391 17.83105 0.5771484 1.84082 17.21191 0.5771484 -2.360352 16.49121 -0.5771484 3.647461 16.29785 0.5771484 3.647461 16.29785 -0.5771484 4.705078 17.8916 0.5771484 4.705078 17.8916 -0.5771484 -4.705078 17.8916 0.5771484 -4.705078 17.8916 -0.5771484 -3.647461 16.29785 0.5771484 -3.647461 16.29785 0.5771484 2.360352 16.49121 -0.5771484 -2.360352 16.49121 -0.5546875 0.4140625 15.76758 -0.5546875 0.5859375 16.18164 -1.859375 0 16.18164 -0.5546875 0.4140625 16.59668 -0.5546875 0 16.76758 0.5546875 0.5859375 16.18164 0.5546875 0.4140625 15.76758 1.859375 0 16.18164 0.5546875 0 15.5957 0.5546875 -0.4140625 15.76758 0.5546875 -0.5859375 16.18164 0.5546875 -0.4140625 16.59668 0.5546875 0 16.76758 -0.5097656 -0.7861328 6.341797 0.5097656 -0.7861328 6.341797 -0.46875 -0.7216797 -4.873047 0.46875 -0.7216797 -4.873047 -0.5097656 0.7861328 6.341797 -0.46875 0.7216797 -4.873047 0.5097656 0.7861328 6.341797 0.46875 0.7216797 -4.873047 -0.5546875 0 15.5957 -0.5546875 -0.4140625 15.76758 -0.5546875 -0.5859375 16.18164 -0.5546875 -0.4140625 16.59668 0.5546875 0.4140625 16.59668</float_array>
					<technique_common>
						<accessor source="#polygon0_PosArr" count="80" stride="3">
							<param name="X" type="float" />
							<param name="Y" type="float" />
							<param name="Z" type="float" />
						</accessor>
					</technique_common>
				</source>
				<source id="polygon0_Normals">
					<float_array id="polygon0_NormArr" count="216">-1 0.001159668 0.004150391 -1 -0.001831055 0.003417969 -1 -0.001098633 0.004089355 -1 -0.003601074 0 -1 -0.002441406 0 -1 -0.00213623 -0.003540039 -1 -0.0009765625 -0.004455566 -1 0.002197266 -0.00378418 -1 0.001098633 -0.004455566 -1 0.00378418 0 -1 0.002624512 0 -1 0.001831055 0.003479004 1 -0.001220703 0.004577637 1 0.002075195 0.003845215 1 0.001281738 0.004577637 1 0.004211426 0 1 0.002929688 0 1 0.002380371 -0.004089355 1 0.001159668 -0.004943848 1 -0.002502441 -0.004455566 1 -0.001403809 -0.004943848 1 -0.00402832 6.103516E-05 1 -0.002746582 6.103516E-05 1 -0.002075195 0.00378418 0 0.1946411 0.980896 0 0 1 0 -0.1946411 0.980896 1 0 0 -1 0 0 0 0.3569946 0.9341431 0 0.9523926 0.3049316 0 0.8331299 -0.5531006 0 -0.8331299 -0.5531006 0 -0.9523926 0.3049316 0 -0.3569946 0.9341431 -0.409729 0.6450195 -0.6450195 -0.409729 0.9122314 0 -0.409729 0.6450195 0.6450195 -0.409729 0 0.9122314 0.409729 0.9122314 0 0.409729 0.6450195 -0.6450195 0.409729 0 -0.9122314 0.409729 -0.6450195 -0.6450195 0.409729 -0.9122314 0 0.409729 -0.6450195 0.6450195 0.409729 0 0.9122314 0 0.553894 0.8325806 0 -0.8114014 0.5844727 0 -0.8284912 -0.5599976 0 -1 0.0004882813 0 -0.8280029 0.560791 0 0.8280029 0.560791 0 1 0.0004882813 0 0.8284912 -0.5599976 0 0 -1 0 -1 -0.005737305 -1 0 -0.003723145 0 1 -0.005737305 1 0 -0.003723145 0 0.8114014 0.5844727 -0.409729 0 -0.9122314 -0.409729 -0.6450195 -0.6450195 -0.409729 -0.9122314 0 -0.409729 -0.6450195 0.6450195 0 -0.553894 0.8325806 0.409729 0.6450195 0.6450195 0 -0.5126953 0.8585815 0 -0.8182983 -0.5747681 0 0.8182983 0.5747681 0 0.8182983 -0.5747681 0 -0.8182983 0.5747681 0 0.5126953 0.8585815</float_array>
					<technique_common>
						<accessor source="#polygon0_NormArr" count="72" stride="3">
							<param name="X" type="float" />
							<param name="Y" type="float" />
							<param name="Z" type="float" />
						</accessor>
					</technique_common>
				</source>
				<source id="polygon0_UVs0">
					<float_array id="polygon0_UVArr0" count="230">0.1771851 0.7219238 0.6356201 0.7587585 0.6090088 0.7218323 0.7818909 0.5820618 0.7204895 0.5829163 0.6353455 0.4054871 0.6001892 0.4393005 0.151001 0.4054871 0.1783752 0.4393005 0.004425049 0.5820618 0.05969238 0.5828552 0.1507263 0.7587585 0.6356201 0.7586365 0.7818909 0.5819397 0.6353455 0.405365 0.151001 0.405365 0.004425049 0.5819397 0.1507263 0.7586365 0.8611145 0.4685059 0.9191589 0.4685059 0.8611145 0.4373169 0.9191589 0.4373169 0.8611145 0.4060974 0.9191589 0.4060974 0.2911377 0.841095 0.3380127 0.8678589 0.3110657 0.8179016 0.3579712 0.8446655 0.4283447 0.8446655 0.3934631 0.8503723 0.4483032 0.867981 0.4992371 0.8411865 0.4283447 0.8447876 0.4792786 0.8180237 0.3110657 0.8180237 0.2872314 0.7888489 0.2911377 0.8411865 0.3380127 0.867981 0.3579712 0.8447876 0.3934631 0.8504944 0.4483032 0.8678589 0.4992371 0.841095 0.4792786 0.8179016 0.2872314 0.7887268 0.8611145 0.8626709 0.9191589 0.8626709 0.8611145 0.7962036 0.9191589 0.7962036 0.8611145 0.7313538 0.9191589 0.7313538 0.8611145 0.1432495 0.9191589 0.1432495 0.8611145 0.07839966 0.9191589 0.07839966 0.8611145 0.01193237 0.9191589 0.01193237 0.6091919 0.8417358 0.5606384 0.7820435 0.50354 0.7892456 0.6091919 0.8418579 0.5606384 0.782135 0.50354 0.7893677 0.409668 0.764801 0.4148865 0.7774048 0.3970337 0.7774048 0.409668 0.7900085 0.3970337 0.7952576 0.3970337 0.7595825 0.3844299 0.764801 0.3792114 0.7774048 0.3844299 0.7900085 0.9191589 0.4992676 0.8611145 0.4992676 0.9191589 0.5517883 0.8611145 0.5517883 0.9191589 0.254425 0.8611145 0.254425 0.9191589 0.2920532 0.8611145 0.2920532 0.9365234 0.5895386 0.9365234 0.7260437 0.9940491 0.5895386 0.9940491 0.7260437 0.9940491 0.8626404 0.9365234 0.8626404 0.9365234 0.01077271 0.9365234 0.1473999 0.9940491 0.01077271 0.9940491 0.1473999 0.9940491 0.283905 0.9365234 0.283905 0.7670288 0.4902649 0.7880249 0.4902649 0.7670288 0.04876709 0.7880249 0.04876709 0.7346497 0.4902649 0.7346497 0.04876709 0.8204041 0.4902649 0.8414307 0.4902649 0.8204041 0.04876709 0.8414307 0.04876709 0.8204041 0.008605957 0.7880249 0.008605957 0.9191589 0.5825806 0.8611145 0.5825806 0.9191589 0.6201782 0.8611145 0.6201782 0.9191589 0.3228149 0.8611145 0.3228149 0.9191589 0.3753357 0.8611145 0.3753357 0.177124 0.8418579 0.225708 0.782135 0.177124 0.8417358 0.225708 0.7820435</float_array>
					<technique_common>
						<accessor source="#polygon0_UVArr0" count="115" stride="2">
							<param name="S" type="float" />
							<param name="T" type="float" />
						</accessor>
					</technique_common>
				</source>
				<source id="polygon0_UVs1">
					<float_array id="polygon0_UVArr1" count="230">0.1771851 0.7219238 0.6356201 0.7587585 0.6090088 0.7218323 0.7818909 0.5820618 0.7204895 0.5829163 0.6353455 0.4054871 0.6001892 0.4393005 0.151001 0.4054871 0.1783752 0.4393005 0.004425049 0.5820618 0.05969238 0.5828552 0.1507263 0.7587585 0.6356201 0.7586365 0.7818909 0.5819397 0.6353455 0.405365 0.151001 0.405365 0.004425049 0.5819397 0.1507263 0.7586365 0.8611145 0.4685059 0.9191589 0.4685059 0.8611145 0.4373169 0.9191589 0.4373169 0.8611145 0.4060974 0.9191589 0.4060974 0.2911377 0.841095 0.3380127 0.8678589 0.3110657 0.8179016 0.3579712 0.8446655 0.4283447 0.8446655 0.3934631 0.8503723 0.4483032 0.867981 0.4992371 0.8411865 0.4283447 0.8447876 0.4792786 0.8180237 0.3110657 0.8180237 0.2872314 0.7888489 0.2911377 0.8411865 0.3380127 0.867981 0.3579712 0.8447876 0.3934631 0.8504944 0.4483032 0.8678589 0.4992371 0.841095 0.4792786 0.8179016 0.2872314 0.7887268 0.8611145 0.8626709 0.9191589 0.8626709 0.8611145 0.7962036 0.9191589 0.7962036 0.8611145 0.7313538 0.9191589 0.7313538 0.8611145 0.1432495 0.9191589 0.1432495 0.8611145 0.07839966 0.9191589 0.07839966 0.8611145 0.01193237 0.9191589 0.01193237 0.6091919 0.8417358 0.5606384 0.7820435 0.50354 0.7892456 0.6091919 0.8418579 0.5606384 0.782135 0.50354 0.7893677 0.409668 0.764801 0.4148865 0.7774048 0.3970337 0.7774048 0.409668 0.7900085 0.3970337 0.7952576 0.3970337 0.7595825 0.3844299 0.764801 0.3792114 0.7774048 0.3844299 0.7900085 0.9191589 0.4992676 0.8611145 0.4992676 0.9191589 0.5517883 0.8611145 0.5517883 0.9191589 0.254425 0.8611145 0.254425 0.9191589 0.2920532 0.8611145 0.2920532 0.9365234 0.5895386 0.9365234 0.7260437 0.9940491 0.5895386 0.9940491 0.7260437 0.9940491 0.8626404 0.9365234 0.8626404 0.9365234 0.01077271 0.9365234 0.1473999 0.9940491 0.01077271 0.9940491 0.1473999 0.9940491 0.283905 0.9365234 0.283905 0.7670288 0.4902649 0.7880249 0.4902649 0.7670288 0.04876709 0.7880249 0.04876709 0.7346497 0.4902649 0.7346497 0.04876709 0.8204041 0.4902649 0.8414307 0.4902649 0.8204041 0.04876709 0.8414307 0.04876709 0.8204041 0.008605957 0.7880249 0.008605957 0.9191589 0.5825806 0.8611145 0.5825806 0.9191589 0.6201782 0.8611145 0.6201782 0.9191589 0.3228149 0.8611145 0.3228149 0.9191589 0.3753357 0.8611145 0.3753357 0.177124 0.8418579 0.225708 0.782135 0.177124 0.8417358 0.225708 0.7820435</float_array>
					<technique_common>
						<accessor source="#polygon0_UVArr1" count="115" stride="2">
							<param name="S" type="float" />
							<param name="T" type="float" />
						</accessor>
					</technique_common>
				</source>
				<vertices id="polygon0_Vertices">
					<input semantic="POSITION" source="#polygon0_Positions" />
				</vertices>
				<triangles material="enm_eggpawn_rsocos__enMetal__" count="122">
					<input semantic="VERTEX" source="#polygon0_Vertices" offset="0" />
					<input semantic="NORMAL" source="#polygon0_Normals" offset="1" />
					<input semantic="TEXCOORD" source="#polygon0_UVs0" set="0" offset="2" />
					<input semantic="TEXCOORD" source="#polygon0_UVs1" set="1" offset="3" />
					<p>2 2 2 2 1 1 1 1 0 0 0 0 3 3 3 3 1 1 1 1 2 2 2 2 4 4 4 4 3 3 3 3 2 2 2 2 5 5 5 5 3 3 3 3 4 4 4 4 6 6 6 6 5 5 5 5 4 4 4 4 7 7 7 7 5 5 5 5 6 6 6 6 8 8 8 8 7 7 7 7 6 6 6 6 9 9 9 9 7 7 7 7 8 8 8 8 10 10 10 10 9 9 9 9 8 8 8 8 11 11 11 11 9 9 9 9 10 10 10 10 0 0 0 0 11 11 11 11 10 10 10 10 1 1 1 1 11 11 11 11 0 0 0 0 14 14 2 2 13 13 12 12 12 12 0 0 15 15 13 13 13 13 12 12 14 14 2 2 16 16 4 4 15 15 13 13 14 14 2 2 17 17 14 14 15 15 13 13 16 16 4 4 18 18 6 6 17 17 14 14 16 16 4 4 19 19 15 15 17 17 14 14 18 18 6 6 20 20 8 8 19 19 15 15 18 18 6 6 21 21 16 16 19 19 15 15 20 20 8 8 22 22 10 10 21 21 16 16 20 20 8 8 23 23 17 17 21 21 16 16 22 22 10 10 12 12 0 0 23 23 17 17 22 22 10 10 13 13 12 12 23 23 17 17 12 12 0 0 26 25 20 20 25 24 19 19 24 24 18 18 27 25 21 21 25 24 19 19 26 25 20 20 28 26 22 22 27 25 21 21 26 25 20 20 29 26 23 23 27 25 21 21 28 26 22 22 32 27 26 26 31 27 25 25 30 27 24 24 29 27 27 27 31 27 25 25 32 27 26 26 25 27 28 28 29 27 27 27 32 27 26 26 27 27 29 29 29 27 27 27 25 27 28 28 28 28 32 32 34 28 31 31 33 28 30 30 35 28 33 33 34 28 31 31 28 28 32 32 36 28 34 34 35 28 33 33 28 28 32 32 37 28 35 35 35 28 33 33 36 28 34 34 36 28 34 34 39 28 37 37 38 28 36 36 24 28 38 38 39 28 37 37 36 28 34 34 28 28 32 32 24 28 38 38 36 28 34 34 26 28 39 39 24 28 38 38 28 28 32 32 25 27 28 28 41 27 41 41 40 27 40 40 42 27 42 42 41 27 41 41 25 27 28 28 32 27 26 26 42 27 42 42 25 27 28 28 43 27 43 43 42 27 42 42 32 27 26 26 44 30 46 46 13 29 45 45 11 29 44 44 45 30 47 47 13 29 45 45 44 30 46 46 46 31 48 48 45 30 47 47 44 30 46 46 47 31 49 49 45 30 47 47 46 31 48 48 50 33 52 52 49 32 51 51 48 32 50 50 51 33 53 53 49 32 51 51 50 33 52 52 1 34 54 54 51 33 53 53 50 33 52 52 23 34 55 55 51 33 53 53 1 34 54 54 52 27 58 58 45 27 57 57 47 27 56 56 13 27 12 12 45 27 57 57 52 27 58 58 43 27 43 43 13 27 12 12 52 27 58 58 23 27 17 17 13 27 12 12 43 27 43 43 53 28 61 61 50 28 60 60 48 28 59 59 1 28 1 1 50 28 60 60 53 28 61 61 37 28 35 35 1 28 1 1 53 28 61 61 11 28 11 11 1 28 1 1 37 28 35 35 56 28 64 64 55 36 63 63 54 35 62 62 57 37 65 65 55 36 63 63 56 28 64 64 58 38 66 66 57 37 65 65 56 28 64 64 61 27 64 64 60 40 62 62 59 39 63 63 62 41 67 67 60 40 62 62 61 27 64 64 63 42 68 68 62 41 67 67 61 27 64 64 61 27 64 64 64 43 69 69 63 42 68 68 65 44 70 70 64 43 69 69 61 27 64 64 66 45 66 66 65 44 70 70 61 27 64 64 41 46 73 73 39 46 72 72 40 46 71 71 38 46 74 74 39 46 72 72 41 46 73 73 32 47 77 77 53 47 76 76 43 47 75 75 35 47 78 78 53 47 76 76 32 47 77 77 19 48 81 81 3 49 80 80 5 48 79 79 21 49 82 82 3 49 80 80 19 48 81 81 1 50 84 84 21 49 82 82 23 50 83 83 3 49 80 80 21 49 82 82 1 50 84 84 13 51 87 87 9 52 86 86 11 51 85 85 15 52 88 88 9 52 86 86 13 51 87 87 7 53 90 90 15 52 88 88 17 53 89 89 9 52 86 86 15 52 88 88 7 53 90 90 5 54 79 79 17 54 89 89 19 54 81 81 7 54 90 90 17 54 89 89 5 54 79 79 69 55 93 93 68 55 92 92 67 55 91 91 70 55 94 94 68 55 92 92 69 55 93 93 72 56 96 96 67 56 91 91 71 56 95 95 69 56 93 93 67 56 91 91 72 56 96 96 74 57 99 99 71 57 98 98 73 57 97 97 72 57 100 100 71 57 98 98 74 57 99 99 70 58 94 94 73 58 97 97 68 58 92 92 74 58 99 99 73 58 97 97 70 58 94 94 70 54 94 94 72 54 101 101 74 54 99 99 69 54 102 102 72 54 101 101 70 54 94 94 52 59 105 105 36 59 104 104 42 59 103 103 37 59 106 106 36 59 104 104 52 59 105 105 75 60 67 67 56 28 64 64 54 35 62 62 76 61 68 68 56 28 64 64 75 60 67 67 77 62 69 69 56 28 64 64 76 61 68 68 78 63 70 70 56 28 64 64 77 62 69 69 31 64 109 109 34 64 108 108 30 64 107 107 33 64 110 110 34 64 108 108 31 64 109 109 44 28 112 112 37 28 35 35 46 28 111 111 11 28 11 11 37 28 35 35 44 28 112 112 61 27 64 64 79 65 65 65 66 45 66 66 59 39 63 63 79 65 65 65 61 27 64 64 51 27 114 114 43 27 43 43 49 27 113 113 23 27 17 17 43 27 43 43 51 27 114 114 37 66 106 106 47 66 49 49 46 66 48 48 52 66 105 105 47 66 49 49 37 66 106 106 34 67 108 108 35 67 78 78 30 67 107 107 32 67 77 77 30 67 107 107 35 67 78 78 31 68 109 109 29 68 23 23 33 68 110 110 28 68 22 22 33 68 110 110 29 68 23 23 41 69 73 73 42 69 103 103 38 69 74 74 36 69 104 104 38 69 74 74 42 69 103 103 39 70 72 72 24 70 18 18 40 70 71 71 25 70 19 19 40 70 71 71 24 70 18 18 49 71 51 51 43 71 75 75 48 71 50 50 53 71 76 76 48 71 50 50 43 71 75 75 53 28 61 61 35 28 33 33 37 28 35 35 52 27 58 58 42 27 42 42 43 27 43 43 56 28 64 64 78 63 70 70 58 38 66 66</p>
				</triangles>
			</mesh>
		</geometry>
		<geometry id="polygon1" name="polygon1">
			<mesh>
				<source id="polygon1_Positions">
					<float_array id="polygon1_PosArr" count="84">0.5874023 -5.753418 13.12939 0.5874023 5.801758 13.12939 0.5825195 -7.229492 10.96973 0.5825195 7.29541 10.96973 0.5874023 5.726074 8.711426 -0.5864258 5.881348 13.01465 -0.5864258 -5.832031 13.01465 -0.581543 7.29541 10.96973 -0.581543 -7.229492 10.96973 -0.5864258 -5.743164 8.826172 -0.5864258 -5.258301 13.85449 -0.5864258 5.300781 13.85449 -0.581543 -4.68457 14.69385 -0.581543 4.720215 14.69385 0.5874023 5.187988 7.9375 0.5825195 4.570313 7.048828 0.5874023 -5.297852 7.9375 0.5825195 -4.731934 7.048828 -0.5864258 5.232422 7.9375 -0.5864258 -5.126953 7.9375 -0.581543 4.627441 7.048828 -0.581543 -4.510742 7.048828 0.5874023 -5.258301 13.85449 0.5874023 5.300781 13.85449 0.5874023 -5.791016 8.711426 -0.5864258 5.836914 8.826172 0.5825195 4.720215 14.69385 0.5825195 -4.68457 14.69385</float_array>
					<technique_common>
						<accessor source="#polygon1_PosArr" count="28" stride="3">
							<param name="X" type="float" />
							<param name="Y" type="float" />
							<param name="Z" type="float" />
						</accessor>
					</technique_common>
				</source>
				<source id="polygon1_UVs0">
					<float_array id="polygon1_UVArr0" count="88">0.1500244 0.9981079 0.8149414 0.9981079 0.06506348 0.9575806 0.9008789 0.9575806 0.8106079 0.9140015 0.1464233 0.9981079 0.8204956 0.9981079 0.06506348 0.9571533 0.9008789 0.9571533 0.8153687 0.9140015 0.2255859 -0.09368896 0.5537109 -0.09368896 0.2428589 -0.1199951 0.5362549 -0.1199951 0.2243652 -0.1199951 0.2437134 -0.09368896 0.5502319 -0.1199951 0.5332642 -0.09368896 0.5466919 -0.1199951 0.2247314 -0.1199951 0.5285034 -0.09368896 0.2432861 -0.09368896 0.01342773 0.9179077 0.4139404 0.9179077 -0.006347656 0.8790283 0.4324341 0.8790283 0.435791 0.8790283 -0.00970459 0.8790283 0.4142456 0.9179077 0.01373291 0.9179077 -0.005432129 0.9179077 0.4304199 0.9179077 0.01202393 0.8790283 0.4094849 0.8790283 -0.01202393 0.9179077 0.4321289 0.9179077 0.0112915 0.8790283 0.4088135 0.8790283 0.2432251 -0.1199951 0.2258301 -0.09368896 0.5357056 -0.1199951 0.553894 -0.09368896 0.1478271 0.9140015 0.1489868 0.9140015</float_array>
					<technique_common>
						<accessor source="#polygon1_UVArr0" count="44" stride="2">
							<param name="S" type="float" />
							<param name="T" type="float" />
						</accessor>
					</technique_common>
				</source>
				<vertices id="polygon1_Vertices">
					<input semantic="POSITION" source="#polygon1_Positions" />
				</vertices>
				<triangles material="enm_eggpawn_rsocos__enLuminouseO__" count="24">
					<input semantic="VERTEX" source="#polygon1_Vertices" offset="0" />
					<input semantic="TEXCOORD" source="#polygon1_UVs0" set="0" offset="1" />
					<p>2 2 1 1 0 0 3 3 1 1 2 2 4 4 3 3 2 2 7 7 6 6 5 5 8 8 6 6 7 7 9 9 8 8 7 7 12 12 11 11 10 10 13 13 11 11 12 12 16 16 15 15 14 14 17 17 15 15 16 16 20 20 19 19 18 18 21 21 19 19 20 20 0 24 23 23 22 22 1 25 23 23 0 24 10 28 5 27 6 26 11 29 5 27 10 28 16 32 4 31 24 30 14 33 4 31 16 32 18 36 9 35 25 34 19 37 9 35 18 36 27 40 23 39 26 38 22 41 23 39 27 40 24 42 4 4 2 2 25 43 9 9 7 7</p>
				</triangles>
			</mesh>
		</geometry>
	</library_geometries>
	<library_controllers>
		<controller id="polygon0_Controller">
			<skin source="#polygon0">
				<bind_shape_matrix>1 0 0 0 0 1 0 0 0 0 1 0 0 0 0 1</bind_shape_matrix>
				<source id="polygon0_Joints">
					<Name_array id="polygon0_JointArr" count="1">enm_pawn_rso_Weapon_R</Name_array>
					<technique_common>
						<accessor source="#polygon0_JointArr" count="1">
							<param name="JOINT" type="Name" />
						</accessor>
					</technique_common>
				</source>
				<source id="polygon0_Matrices">
					<float_array id="polygon0_MatArr" count="16">1 0 0 0 0 1 0 0 0 0 1 0 0 0 0 1</float_array>
					<technique_common>
						<accessor source="#polygon0_MatArr" count="1" stride="16">
							<param type="float4x4" />
						</accessor>
					</technique_common>
				</source>
				<source id="polygon0_Weights">
					<float_array id="polygon0_WeightArr" count="1">1</float_array>
					<technique_common>
						<accessor source="#polygon0_WeightArr" count="1">
							<param type="float" />
						</accessor>
					</technique_common>
				</source>
				<joints>
					<input semantic="JOINT" source="#polygon0_Joints" />
					<input semantic="INV_BIND_MATRIX" source="#polygon0_Matrices" />
				</joints>
				<vertex_weights count="80">
					<input semantic="JOINT" offset="0" source="#polygon0_Joints" />
					<input semantic="WEIGHT" offset="1" source="#polygon0_Weights" />
					<vcount>1 1 1 1 1 1 1 1 1 1 1 1 1 1 1 1 1 1 1 1 1 1 1 1 1 1 1 1 1 1 1 1 1 1 1 1 1 1 1 1 1 1 1 1 1 1 1 1 1 1 1 1 1 1 1 1 1 1 1 1 1 1 1 1 1 1 1 1 1 1 1 1 1 1 1 1 1 1 1 1</vcount>
					<v>0 0 0 0 0 0 0 0 0 0 0 0 0 0 0 0 0 0 0 0 0 0 0 0 0 0 0 0 0 0 0 0 0 0 0 0 0 0 0 0 0 0 0 0 0 0 0 0 0 0 0 0 0 0 0 0 0 0 0 0 0 0 0 0 0 0 0 0 0 0 0 0 0 0 0 0 0 0 0 0 0 0 0 0 0 0 0 0 0 0 0 0 0 0 0 0 0 0 0 0 0 0 0 0 0 0 0 0 0 0 0 0 0 0 0 0 0 0 0 0 0 0 0 0 0 0 0 0 0 0 0 0 0 0 0 0 0 0 0 0 0 0 0 0 0 0 0 0 0 0 0 0 0 0 0 0 0 0 0 0</v>
				</vertex_weights>
			</skin>
		</controller>
		<controller id="polygon1_Controller">
			<skin source="#polygon1">
				<bind_shape_matrix>1 0 0 0 0 1 0 0 0 0 1 0 0 0 0 1</bind_shape_matrix>
				<source id="polygon1_Joints">
					<Name_array id="polygon1_JointArr" count="1">enm_pawn_rso_Weapon_R</Name_array>
					<technique_common>
						<accessor source="#polygon1_JointArr" count="1">
							<param name="JOINT" type="Name" />
						</accessor>
					</technique_common>
				</source>
				<source id="polygon1_Matrices">
					<float_array id="polygon1_MatArr" count="16">1 0 0 0 0 1 0 0 0 0 1 0 0 0 0 1</float_array>
					<technique_common>
						<accessor source="#polygon1_MatArr" count="1" stride="16">
							<param type="float4x4" />
						</accessor>
					</technique_common>
				</source>
				<source id="polygon1_Weights">
					<float_array id="polygon1_WeightArr" count="1">1</float_array>
					<technique_common>
						<accessor source="#polygon1_WeightArr" count="1">
							<param type="float" />
						</accessor>
					</technique_common>
				</source>
				<joints>
					<input semantic="JOINT" source="#polygon1_Joints" />
					<input semantic="INV_BIND_MATRIX" source="#polygon1_Matrices" />
				</joints>
				<vertex_weights count="28">
					<input semantic="JOINT" offset="0" source="#polygon1_Joints" />
					<input semantic="WEIGHT" offset="1" source="#polygon1_Weights" />
					<vcount>1 1 1 1 1 1 1 1 1 1 1 1 1 1 1 1 1 1 1 1 1 1 1 1 1 1 1 1</vcount>
					<v>0 0 0 0 0 0 0 0 0 0 0 0 0 0 0 0 0 0 0 0 0 0 0 0 0 0 0 0 0 0 0 0 0 0 0 0 0 0 0 0 0 0 0 0 0 0 0 0 0 0 0 0 0 0 0 0</v>
				</vertex_weights>
			</skin>
		</controller>
	</library_controllers>
	<library_visual_scenes>
		<visual_scene id="RootNode" name="RootNode">
			<node id="enm_pawn_rso_Weapon_R" name="enm_pawn_rso_Weapon_R" sid="enm_pawn_rso_Weapon_R" type="JOINT" />
			<node id="polygon0" name="polygon0" type="NODE">
				<instance_controller url="#polygon0_Controller">
					<skeleton>#enm_pawn_rso_Weapon_R</skeleton>
					<bind_material>
						<technique_common>
							<instance_material symbol="enm_eggpawn_rsocos__enMetal__" target="#enm_eggpawn_rsocos__enMetal__">
								<bind_vertex_input semantic="TEXCOORD0" input_semantic="TEXCOORD" input_set="0" />
								<bind_vertex_input semantic="TEXCOORD0" input_semantic="TEXCOORD" input_set="0" />
								<bind_vertex_input semantic="TEXCOORD0" input_semantic="TEXCOORD" input_set="0" />
								<bind_vertex_input semantic="TEXCOORD1" input_semantic="TEXCOORD" input_set="1" />
							</instance_material>
						</technique_common>
					</bind_material>
				</instance_controller>
			</node>
			<node id="polygon1" name="polygon1" type="NODE">
				<instance_controller url="#polygon1_Controller">
					<skeleton>#enm_pawn_rso_Weapon_R</skeleton>
					<bind_material>
						<technique_common>
							<instance_material symbol="enm_eggpawn_rsocos__enLuminouseO__" target="#enm_eggpawn_rsocos__enLuminouseO__">
								<bind_vertex_input semantic="TEXCOORD0" input_semantic="TEXCOORD" input_set="0" />
							</instance_material>
						</technique_common>
					</bind_material>
				</instance_controller>
			</node>
		</visual_scene>
	</library_visual_scenes>
	<scene>
		<instance_visual_scene url="#RootNode" />
	</scene>
</COLLADA>