<?xml version="1.0" encoding="utf-8"?>
<COLLADA version="1.5.0" xmlns="http://www.collada.org/2008/03/COLLADASchema">
	<asset>
		<contributor>
			<authoring_tool>BrawlBox</authoring_tool>
		</contributor>
		<created>2022-11-10T17:31:42Z</created>
		<modified>2022-11-10T17:31:42Z</modified>
		<unit meter="0.01" name="centimeter" />
		<up_axis>Y_UP</up_axis>
	</asset>
	<library_images>
		<image id="enm_pawn_astcos_dif_SD-image" name="enm_pawn_astcos_dif_SD">
			<init_from>
				<ref>enm_pawn_astcos_dif_SD.png</ref>
			</init_from>
		</image>
		<image id="enm_pawn_astcos_ref_SD-image" name="enm_pawn_astcos_ref_SD">
			<init_from>
				<ref>enm_pawn_astcos_ref_SD.png</ref>
			</init_from>
		</image>
		<image id="enm_pawn_astcos_spc_SD-image" name="enm_pawn_astcos_spc_SD">
			<init_from>
				<ref>enm_pawn_astcos_spc_SD.png</ref>
			</init_from>
		</image>
		<image id="enm_pawn_astcos_spr_SD-image" name="enm_pawn_astcos_spr_SD">
			<init_from>
				<ref>enm_pawn_astcos_spr_SD.png</ref>
			</init_from>
		</image>
	</library_images>
	<library_materials>
		<material id="nm_eggpawn_astcos__enLuminouseO__">
			<instance_effect url="#nm_eggpawn_astcos__enLuminouseO__-fx" />
		</material>
		<material id="nm_eggpawn_astcos__enMetal__">
			<instance_effect url="#nm_eggpawn_astcos__enMetal__-fx" />
		</material>
	</library_materials>
	<library_effects>
		<effect id="nm_eggpawn_astcos__enLuminouseO__-fx" name="nm_eggpawn_astcos__enLuminouseO__">
			<profile_COMMON>
				<newparam sid="enm_pawn_astcos_dif_SD-surface">
					<surface type="2D">
						<init_from>
							<ref>enm_pawn_astcos_dif_SD-image</ref>
						</init_from>
					</surface>
				</newparam>
				<newparam sid="enm_pawn_astcos_dif_SD-sampler">
					<sampler2D>
						<source>enm_pawn_astcos_dif_SD-surface</source>
						<instance_image url="#enm_pawn_astcos_dif_SD-image" />
						<wrap_s>WRAP</wrap_s>
						<wrap_t>WRAP</wrap_t>
						<minfilter>LINEAR_MIPMAP_LINEAR</minfilter>
						<magfilter>LINEAR</magfilter>
					</sampler2D>
				</newparam>
				<technique sid="COMMON">
					<phong>
						<diffuse>
							<texture texture="enm_pawn_astcos_dif_SD-sampler" texcoord="TEXCOORD0" />
						</diffuse>
					</phong>
				</technique>
			</profile_COMMON>
		</effect>
		<effect id="nm_eggpawn_astcos__enMetal__-fx" name="nm_eggpawn_astcos__enMetal__">
			<profile_COMMON>
				<newparam sid="enm_pawn_astcos_dif_SD-surface">
					<surface type="2D">
						<init_from>
							<ref>enm_pawn_astcos_dif_SD-image</ref>
						</init_from>
					</surface>
				</newparam>
				<newparam sid="enm_pawn_astcos_dif_SD-sampler">
					<sampler2D>
						<source>enm_pawn_astcos_dif_SD-surface</source>
						<instance_image url="#enm_pawn_astcos_dif_SD-image" />
						<wrap_s>WRAP</wrap_s>
						<wrap_t>WRAP</wrap_t>
						<minfilter>LINEAR_MIPMAP_LINEAR</minfilter>
						<magfilter>LINEAR</magfilter>
					</sampler2D>
				</newparam>
				<technique sid="COMMON">
					<phong>
						<diffuse>
							<texture texture="enm_pawn_astcos_dif_SD-sampler" texcoord="TEXCOORD0" />
						</diffuse>
					</phong>
				</technique>
			</profile_COMMON>
		</effect>
	</library_effects>
	<library_geometries>
		<geometry id="polygon0" name="polygon0">
			<mesh>
				<source id="polygon0_Positions">
					<float_array id="polygon0_PosArr" count="294">0.8466797 -3.183594 23.10449 -0.8466797 -3.183594 23.10449 1.28125 0 23.10449 -1.28125 0 23.10449 0.8466797 3.183594 23.10449 -0.8466797 3.183594 23.10449 -0.8466797 -2.625977 4.158203 0.8466797 -2.625977 4.158203 -1.28125 0 4.158203 1.28125 0 4.158203 -0.8466797 2.625977 4.158203 0.8466797 2.625977 4.158203 -0.0009765625 -0.7382813 -5.163086 0.6376953 0 -5.163086 -0.640625 0 -5.163086 -0.0009765625 0.7382813 -5.163086 -0.7988281 0 4.254883 -0.0009765625 0.9208984 4.254883 0 -2.884766 14.26367 0 -3.635742 14.36523 -0.7451172 -2.865234 13.47363 -0.6425781 -3.882813 13.78125 0 -4.128906 13.19727 0 -3.098633 22.82031 0 -3.855469 22.92188 -0.7451172 -3.079102 22.03027 -0.6425781 -4.102539 22.33789 0 -4.348633 21.75391 0 2.884766 14.26367 0 3.635742 14.36523 0.7451172 2.865234 13.47363 0.6425781 3.882813 13.78125 0 4.128906 13.19727 0 4.088867 14.5918 -0.5234375 4.366211 14.125 0 5.507813 15.65234 0 4.643555 13.65723 0.5244141 4.366211 14.125 -0.6425781 3.882813 13.78125 -0.7451172 2.865234 13.47363 0 2.845703 12.68457 0 -3.010742 18.5791 0 -3.765625 18.68066 -0.7451172 -2.991211 17.78906 -0.6425781 -4.011719 18.0957 0 -4.258789 17.51172 -0.6425781 4.011719 18.0957 -0.7451172 2.991211 17.78906 0 4.258789 17.51172 0 2.97168 16.99902 0.7451172 2.991211 17.78906 0 3.010742 18.5791 0 3.765625 18.68066 0.6425781 4.011719 18.0957 0 4.217773 18.90723 -0.5234375 4.495117 18.43945 0 5.637695 19.9668 0 4.772461 17.97168 0.5244141 4.495117 18.43945 -0.6425781 4.102539 22.33789 -0.7451172 3.079102 22.03027 0 4.348633 21.75391 0 3.05957 21.24121 0.7451172 3.079102 22.03027 0 3.098633 22.82031 0 3.855469 22.92188 0.6425781 4.102539 22.33789 0 4.308594 23.14844 -0.5234375 4.585938 22.68164 0 5.727539 24.20898 0 4.863281 22.21387 0.5244141 4.585938 22.68164 -0.0009765625 -0.9208984 4.254883 0.7958984 0 4.254883 0 -4.308594 23.14844 0 -5.727539 24.20898 -0.5234375 -4.585938 22.68164 0 -4.863281 22.21387 0.5244141 -4.585938 22.68164 0 -2.845703 12.68457 0.7451172 -2.865234 13.47363 0.6425781 -3.882813 13.78125 0 -4.088867 14.5918 0 -5.507813 15.65234 -0.5234375 -4.366211 14.125 0 -4.643555 13.65723 0.5244141 -4.366211 14.125 0 -2.97168 16.99902 0.7451172 -2.991211 17.78906 0.6425781 -4.011719 18.0957 0 -4.217773 18.90723 0 -5.637695 19.9668 -0.5234375 -4.495117 18.43945 0 -4.772461 17.97168 0.5244141 -4.495117 18.43945 0 -3.05957 21.24121 0.7451172 -3.079102 22.03027 0.6425781 -4.102539 22.33789</float_array>
					<technique_common>
						<accessor source="#polygon0_PosArr" count="98" stride="3">
							<param name="X" type="float" />
							<param name="Y" type="float" />
							<param name="Z" type="float" />
						</accessor>
					</technique_common>
				</source>
				<source id="polygon0_Normals">
					<float_array id="polygon0_NormArr" count="246">0 0 1 0 0 -1 0 -0.8165283 -0.5773315 0.8062744 0 -0.5914917 -0.8062744 0 -0.5914917 0 0.8165283 -0.5773315 -0.9998779 0 -0.01678467 0 0.9998169 -0.01940918 0 0.1339111 0.9909668 0 0.305603 0.9521484 -0.9821167 -0.1437378 -0.1213989 -0.9884644 -0.1514282 -0.004821777 0 -0.5196533 -0.8543701 0 0.1329346 0.9911499 0 0.3051147 0.9523315 -0.9822998 -0.1430664 -0.1208496 -0.9884644 -0.1513062 -0.005310059 0 -0.5188599 -0.8548584 0 -0.1339111 0.9909668 0 -0.305603 0.9521484 0.9821167 0.1437378 -0.1213989 0.9884644 0.1514282 -0.004821777 0 0.5196533 -0.8543701 0 -0.5169678 0.8560181 -0.9658813 0.2391968 0.09954834 0 0.6134644 0.7897339 0 0.7998657 -0.6001587 0.9658813 0.2391968 0.09954834 -0.9884644 0.1514282 -0.004821777 -0.9821167 0.1437378 -0.1213989 0 0.3708496 -0.9287109 0 0.1333008 0.9910889 0 0.3052979 0.9522705 -0.9822388 -0.1433716 -0.1210938 -0.9884644 -0.1513672 -0.005065918 0 -0.519165 -0.8546753 -0.9884644 0.1513672 -0.005065918 -0.9822388 0.1433716 -0.1210938 0 0.519165 -0.8546753 0 0.3700562 -0.9290161 0.9822388 0.1433716 -0.1210938 0 -0.1333008 0.9910889 0 -0.3052979 0.9522705 0.9884644 0.1513672 -0.005065918 -0.9884644 0.1513062 -0.005310059 -0.9822998 0.1430664 -0.1208496 0 0.5188599 -0.8548584 0 0.3694458 -0.9292603 0.9822998 0.1430664 -0.1208496 0 -0.1329346 0.9911499 0 -0.3051147 0.9523315 0.9884644 0.1513062 -0.005310059 0 -0.9998169 -0.01940918 0.9998779 0 -0.01678467 0 0.5169678 0.8560181 0 -0.6134644 0.7896729 -0.9658813 -0.2391968 0.09954834 0 -0.7998657 -0.6001587 0.9658813 -0.2391968 0.09954834 0 -0.3708496 -0.9287109 0.9821167 -0.1437378 -0.1213989 0.9884644 -0.1514282 -0.004821777 0 -0.3700562 -0.9290161 0.9822388 -0.1433716 -0.1210938 0.9884644 -0.1513672 -0.005065918 0.9908447 -0.1351318 -0.003967285 1 0 -0.003662109 0.9870605 -0.1602173 -0.0004272461 1 0 0 -0.9865723 -0.163147 -0.004821777 -1 0 -0.004333496 -0.9904785 -0.1376953 -0.0004272461 -1 0 0 0 -0.9995728 -0.02941895 0.9870605 0.1602173 -0.0004272461 0.9908447 0.1351318 -0.003967285 -0.9865723 0.163147 -0.004821777 -0.9904785 0.1376953 -0.0004272461 0 0.9995728 -0.02941895 0 -0.3694458 -0.9292603 0.9822998 -0.1430664 -0.1208496 0.9884644 -0.1513062 -0.005310059</float_array>
					<technique_common>
						<accessor source="#polygon0_NormArr" count="82" stride="3">
							<param name="X" type="float" />
							<param name="Y" type="float" />
							<param name="Z" type="float" />
						</accessor>
					</technique_common>
				</source>
				<source id="polygon0_UVs0">
					<float_array id="polygon0_UVArr0" count="70">0.2745361 0.8982849 0.2745361 0.9526062 0.007171631 0.8982849 0.007171631 0.9920959 0.2745361 0.05438232 0.2745361 0.1078491 0.007171631 0.01513672 0.007171631 0.1078491 0.4859314 0.05023193 0.4859314 0.01263428 0.5538025 0.05023193 0.5538025 0.4257507 0.4859314 0.4257507 0.5741577 0.994751 0.5447693 0.9760132 0.5763855 0.9401855 0.5447693 0.9204407 0.5447693 0.8453979 0.5706482 0.700531 0.5447693 0.7082825 0.5760803 0.7672424 0.5447693 0.7839355 0.5274658 0.9465027 0.5274658 0.8917236 0.4085388 0.8453979 0.5274658 0.8453979 0.5274658 0.7920532 0.5799255 0.8453979 0.4255066 0.4257507 0.5274658 0.7148438 0.2767029 0.1078491 0.2767029 0.8982849 0.3935547 0.1078491 0.3935547 0.8982849 0.4255066 0.05023193</float_array>
					<technique_common>
						<accessor source="#polygon0_UVArr0" count="35" stride="2">
							<param name="S" type="float" />
							<param name="T" type="float" />
						</accessor>
					</technique_common>
				</source>
				<source id="polygon0_UVs1">
					<float_array id="polygon0_UVArr1" count="70">0.2745361 0.8982849 0.2745361 0.9526062 0.007171631 0.8982849 0.007171631 0.9920959 0.2745361 0.05438232 0.2745361 0.1078491 0.007171631 0.01513672 0.007171631 0.1078491 0.4859314 0.05023193 0.4859314 0.01263428 0.5538025 0.05023193 0.5538025 0.4257507 0.4859314 0.4257507 0.5741577 0.994751 0.5447693 0.9760132 0.5763855 0.9401855 0.5447693 0.9204407 0.5447693 0.8453979 0.5706482 0.700531 0.5447693 0.7082825 0.5760803 0.7672424 0.5447693 0.7839355 0.5274658 0.9465027 0.5274658 0.8917236 0.4085388 0.8453979 0.5274658 0.8453979 0.5274658 0.7920532 0.5799255 0.8453979 0.4255066 0.4257507 0.5274658 0.7148438 0.2767029 0.1078491 0.2767029 0.8982849 0.3935547 0.1078491 0.3935547 0.8982849 0.4255066 0.05023193</float_array>
					<technique_common>
						<accessor source="#polygon0_UVArr1" count="35" stride="2">
							<param name="S" type="float" />
							<param name="T" type="float" />
						</accessor>
					</technique_common>
				</source>
				<vertices id="polygon0_Vertices">
					<input semantic="POSITION" source="#polygon0_Positions" />
				</vertices>
				<triangles material="nm_eggpawn_astcos__enMetal__" count="102">
					<input semantic="VERTEX" source="#polygon0_Vertices" offset="0" />
					<input semantic="NORMAL" source="#polygon0_Normals" offset="1" />
					<input semantic="TEXCOORD" source="#polygon0_UVs0" set="0" offset="2" />
					<input semantic="TEXCOORD" source="#polygon0_UVs1" set="1" offset="3" />
					<p>2 0 2 2 1 0 1 1 0 0 0 0 3 0 3 3 1 0 1 1 2 0 2 2 4 0 0 0 3 0 3 3 2 0 2 2 5 0 1 1 3 0 3 3 4 0 0 0 8 1 6 6 7 1 5 5 6 1 4 4 9 1 7 7 7 1 5 5 8 1 6 6 10 1 4 4 9 1 7 7 8 1 6 6 11 1 5 5 9 1 7 7 10 1 4 4 14 4 10 10 13 3 9 9 12 2 8 8 15 5 8 8 13 3 9 9 14 4 10 10 16 6 11 11 15 5 8 8 14 4 10 10 17 7 12 12 15 5 8 8 16 6 11 11 20 10 15 15 19 9 14 14 18 8 13 13 21 11 16 16 19 9 14 14 20 10 15 15 22 12 17 17 21 11 16 16 20 10 15 15 25 15 15 15 24 14 14 14 23 13 13 13 26 16 16 16 24 14 14 14 25 15 15 15 27 17 17 17 26 16 16 16 25 15 15 15 30 20 20 20 29 19 19 19 28 18 18 18 31 21 21 21 29 19 19 19 30 20 20 20 32 22 17 17 31 21 21 21 30 20 20 20 35 25 24 24 34 24 23 23 33 23 22 22 36 26 25 25 34 24 23 23 35 25 24 24 37 27 26 26 36 26 25 25 35 25 24 24 32 22 17 17 39 29 15 15 38 28 16 16 40 30 27 27 39 29 15 15 32 22 17 17 30 20 20 20 40 30 27 27 32 22 17 17 43 33 15 15 42 32 14 14 41 31 13 13 44 34 16 16 42 32 14 14 43 33 15 15 45 35 17 17 44 34 16 16 43 33 15 15 48 38 17 17 47 37 15 15 46 36 16 16 49 39 27 27 47 37 15 15 48 38 17 17 50 40 20 20 49 39 27 27 48 38 17 17 50 40 20 20 52 42 19 19 51 41 18 18 53 43 21 21 52 42 19 19 50 40 20 20 48 38 17 17 53 43 21 21 50 40 20 20 56 25 24 24 55 24 23 23 54 23 22 22 57 26 25 25 55 24 23 23 56 25 24 24 58 27 26 26 57 26 25 25 56 25 24 24 61 46 17 17 60 45 15 15 59 44 16 16 62 47 27 27 60 45 15 15 61 46 17 17 63 48 20 20 62 47 27 27 61 46 17 17 63 48 20 20 65 50 19 19 64 49 18 18 66 51 21 21 65 50 19 19 63 48 20 20 61 46 17 17 66 51 21 21 63 48 20 20 69 25 24 24 68 24 23 23 67 23 22 22 70 26 25 25 68 24 23 23 69 25 24 24 71 27 26 26 70 26 25 25 69 25 24 24 12 2 8 8 16 6 11 11 14 4 10 10 72 52 12 12 16 6 11 11 12 2 8 8 73 53 28 28 72 52 12 12 12 2 8 8 76 56 23 23 75 55 24 24 74 54 22 22 77 57 25 25 75 55 24 24 76 56 23 23 75 55 24 24 78 58 26 26 74 54 29 29 77 57 25 25 78 58 26 26 75 55 24 24 29 19 14 14 39 29 15 15 28 18 13 13 38 28 16 16 39 29 15 15 29 19 14 14 52 42 14 14 47 37 15 15 51 41 13 13 46 36 16 16 47 37 15 15 52 42 14 14 79 59 27 27 22 12 17 17 20 10 15 15 80 60 20 20 22 12 17 17 79 59 27 27 19 9 19 19 80 60 20 20 18 8 18 18 81 61 21 21 80 60 20 20 19 9 19 19 84 56 23 23 83 55 24 24 82 54 22 22 85 57 25 25 83 55 24 24 84 56 23 23 65 50 14 14 60 45 15 15 64 49 13 13 59 44 16 16 60 45 15 15 65 50 14 14 83 55 24 24 86 58 26 26 82 54 29 29 85 57 25 25 86 58 26 26 83 55 24 24 87 62 27 27 45 35 17 17 43 33 15 15 88 63 20 20 45 35 17 17 87 62 27 27 42 32 19 19 88 63 20 20 41 31 18 18 89 64 21 21 88 63 20 20 42 32 19 19 7 67 5 5 2 66 2 2 0 65 0 0 9 68 7 7 2 66 2 2 7 67 5 5 92 56 23 23 91 55 24 24 90 54 22 22 93 57 25 25 91 55 24 24 92 56 23 23 91 55 24 24 94 58 26 26 90 54 29 29 93 57 25 25 94 58 26 26 91 55 24 24 1 71 31 31 8 70 7 7 6 69 30 30 3 72 2 2 8 70 7 7 1 71 31 31 7 73 5 5 1 73 33 33 6 73 32 32 0 73 0 0 1 73 33 33 7 73 5 5 11 74 5 5 2 66 2 2 9 68 7 7 4 75 0 0 2 66 2 2 11 74 5 5 8 70 7 7 5 77 31 31 10 76 30 30 3 72 2 2 5 77 31 31 8 70 7 7 11 78 5 5 5 78 33 33 4 78 0 0 10 78 32 32 5 78 33 33 11 78 5 5 95 79 27 27 27 17 17 17 25 15 15 15 96 80 20 20 27 17 17 17 95 79 27 27 24 14 19 19 96 80 20 20 23 13 18 18 97 81 21 21 96 80 20 20 24 14 19 19 13 3 34 34 73 53 28 28 12 2 8 8 15 5 8 8 73 53 28 28 13 3 34 34 81 61 21 21 22 12 17 17 80 60 20 20 89 64 21 21 45 35 17 17 88 63 20 20 97 81 21 21 27 17 17 17 96 80 20 20 33 23 29 29 37 27 26 26 35 25 24 24 54 23 29 29 58 27 26 26 56 25 24 24 67 23 29 29 71 27 26 26 69 25 24 24 17 7 12 12 73 53 28 28 15 5 8 8</p>
				</triangles>
			</mesh>
		</geometry>
		<geometry id="polygon1" name="polygon1">
			<mesh>
				<source id="polygon1_Positions">
					<float_array id="polygon1_PosArr" count="144">0 -3.635742 14.36523 0 -4.088867 14.5918 -0.6425781 -3.882813 13.78125 -0.5234375 -4.366211 14.125 0 -4.643555 13.65723 0.5244141 -4.366211 14.125 0.6425781 -3.882813 13.78125 0 -3.765625 18.68066 0 -4.217773 18.90723 -0.6425781 -4.011719 18.0957 -0.5234375 -4.495117 18.43945 0 -4.772461 17.97168 0.5244141 -4.495117 18.43945 0.6425781 -4.011719 18.0957 0 -3.855469 22.92188 0 -4.308594 23.14844 -0.6425781 -4.102539 22.33789 -0.5234375 -4.585938 22.68164 0 -4.863281 22.21387 0.5244141 -4.585938 22.68164 0.6425781 -4.102539 22.33789 -0.5234375 4.366211 14.125 -0.6425781 3.882813 13.78125 0 4.643555 13.65723 0 4.128906 13.19727 0.6425781 3.882813 13.78125 -0.5234375 4.495117 18.43945 -0.6425781 4.011719 18.0957 0 4.772461 17.97168 0 4.258789 17.51172 0.6425781 4.011719 18.0957 -0.5234375 4.585938 22.68164 -0.6425781 4.102539 22.33789 0 4.863281 22.21387 0 4.348633 21.75391 0.6425781 4.102539 22.33789 0 -4.128906 13.19727 0 -4.258789 17.51172 0 -4.348633 21.75391 0 3.635742 14.36523 0 4.088867 14.5918 0.5244141 4.366211 14.125 0 3.765625 18.68066 0 4.217773 18.90723 0.5244141 4.495117 18.43945 0 3.855469 22.92188 0 4.308594 23.14844 0.5244141 4.585938 22.68164</float_array>
					<technique_common>
						<accessor source="#polygon1_PosArr" count="48" stride="3">
							<param name="X" type="float" />
							<param name="Y" type="float" />
							<param name="Z" type="float" />
						</accessor>
					</technique_common>
				</source>
				<source id="polygon1_UVs0">
					<float_array id="polygon1_UVArr0" count="20">0.5447693 0.9760132 0.5274658 0.9465027 0.5447693 0.9204407 0.5274658 0.8917236 0.5274658 0.8453979 0.5274658 0.7920532 0.5447693 0.7839355 0.5274658 0.7148438 0.5447693 0.7082825 0.5447693 0.8453979</float_array>
					<technique_common>
						<accessor source="#polygon1_UVArr0" count="10" stride="2">
							<param name="S" type="float" />
							<param name="T" type="float" />
						</accessor>
					</technique_common>
				</source>
				<vertices id="polygon1_Vertices">
					<input semantic="POSITION" source="#polygon1_Positions" />
				</vertices>
				<triangles material="nm_eggpawn_astcos__enLuminouseO__" count="48">
					<input semantic="VERTEX" source="#polygon1_Vertices" offset="0" />
					<input semantic="TEXCOORD" source="#polygon1_UVs0" set="0" offset="1" />
					<p>2 2 1 1 0 0 3 3 1 1 2 2 4 4 3 3 2 2 6 6 5 5 4 4 1 7 5 5 6 6 0 8 1 7 6 6 9 2 8 1 7 0 10 3 8 1 9 2 11 4 10 3 9 2 13 6 12 5 11 4 8 7 12 5 13 6 7 8 8 7 13 6 16 2 15 1 14 0 17 3 15 1 16 2 18 4 17 3 16 2 20 6 19 5 18 4 15 7 19 5 20 6 14 8 15 7 20 6 23 4 22 2 21 3 24 9 22 2 23 4 25 6 24 9 23 4 28 4 27 2 26 3 29 9 27 2 28 4 30 6 29 9 28 4 33 4 32 2 31 3 34 9 32 2 33 4 35 6 34 9 33 4 36 9 4 4 2 2 6 6 4 4 36 9 37 9 11 4 9 2 13 6 11 4 37 9 38 9 18 4 16 2 20 6 18 4 38 9 40 1 22 2 39 0 21 3 22 2 40 1 41 5 25 6 23 4 40 7 25 6 41 5 43 1 27 2 42 0 26 3 27 2 43 1 44 5 30 6 28 4 43 7 30 6 44 5 46 1 32 2 45 0 31 3 32 2 46 1 47 5 35 6 33 4 46 7 35 6 47 5 39 8 25 6 40 7 42 8 30 6 43 7 45 8 35 6 46 7</p>
				</triangles>
			</mesh>
		</geometry>
	</library_geometries>
	<library_controllers>
		<controller id="polygon0_Controller">
			<skin source="#polygon0">
				<bind_shape_matrix>1 0 0 0 0 1 0 0 0 0 1 0 0 0 0 1</bind_shape_matrix>
				<source id="polygon0_Joints">
					<Name_array id="polygon0_JointArr" count="1">enm_pawn_ast_Weapon_R</Name_array>
					<technique_common>
						<accessor source="#polygon0_JointArr" count="1">
							<param name="JOINT" type="Name" />
						</accessor>
					</technique_common>
				</source>
				<source id="polygon0_Matrices">
					<float_array id="polygon0_MatArr" count="16">1 0 0 0 0 1 0 0 0 0 1 0 0 0 0 1</float_array>
					<technique_common>
						<accessor source="#polygon0_MatArr" count="1" stride="16">
							<param type="float4x4" />
						</accessor>
					</technique_common>
				</source>
				<source id="polygon0_Weights">
					<float_array id="polygon0_WeightArr" count="1">1</float_array>
					<technique_common>
						<accessor source="#polygon0_WeightArr" count="1">
							<param type="float" />
						</accessor>
					</technique_common>
				</source>
				<joints>
					<input semantic="JOINT" source="#polygon0_Joints" />
					<input semantic="INV_BIND_MATRIX" source="#polygon0_Matrices" />
				</joints>
				<vertex_weights count="98">
					<input semantic="JOINT" offset="0" source="#polygon0_Joints" />
					<input semantic="WEIGHT" offset="1" source="#polygon0_Weights" />
					<vcount>1 1 1 1 1 1 1 1 1 1 1 1 1 1 1 1 1 1 1 1 1 1 1 1 1 1 1 1 1 1 1 1 1 1 1 1 1 1 1 1 1 1 1 1 1 1 1 1 1 1 1 1 1 1 1 1 1 1 1 1 1 1 1 1 1 1 1 1 1 1 1 1 1 1 1 1 1 1 1 1 1 1 1 1 1 1 1 1 1 1 1 1 1 1 1 1 1 1</vcount>
					<v>0 0 0 0 0 0 0 0 0 0 0 0 0 0 0 0 0 0 0 0 0 0 0 0 0 0 0 0 0 0 0 0 0 0 0 0 0 0 0 0 0 0 0 0 0 0 0 0 0 0 0 0 0 0 0 0 0 0 0 0 0 0 0 0 0 0 0 0 0 0 0 0 0 0 0 0 0 0 0 0 0 0 0 0 0 0 0 0 0 0 0 0 0 0 0 0 0 0 0 0 0 0 0 0 0 0 0 0 0 0 0 0 0 0 0 0 0 0 0 0 0 0 0 0 0 0 0 0 0 0 0 0 0 0 0 0 0 0 0 0 0 0 0 0 0 0 0 0 0 0 0 0 0 0 0 0 0 0 0 0 0 0 0 0 0 0 0 0 0 0 0 0 0 0 0 0 0 0 0 0 0 0 0 0 0 0 0 0 0 0 0 0 0 0 0 0</v>
				</vertex_weights>
			</skin>
		</controller>
		<controller id="polygon1_Controller">
			<skin source="#polygon1">
				<bind_shape_matrix>1 0 0 0 0 1 0 0 0 0 1 0 0 0 0 1</bind_shape_matrix>
				<source id="polygon1_Joints">
					<Name_array id="polygon1_JointArr" count="1">enm_pawn_ast_Weapon_R</Name_array>
					<technique_common>
						<accessor source="#polygon1_JointArr" count="1">
							<param name="JOINT" type="Name" />
						</accessor>
					</technique_common>
				</source>
				<source id="polygon1_Matrices">
					<float_array id="polygon1_MatArr" count="16">1 0 0 0 0 1 0 0 0 0 1 0 0 0 0 1</float_array>
					<technique_common>
						<accessor source="#polygon1_MatArr" count="1" stride="16">
							<param type="float4x4" />
						</accessor>
					</technique_common>
				</source>
				<source id="polygon1_Weights">
					<float_array id="polygon1_WeightArr" count="1">1</float_array>
					<technique_common>
						<accessor source="#polygon1_WeightArr" count="1">
							<param type="float" />
						</accessor>
					</technique_common>
				</source>
				<joints>
					<input semantic="JOINT" source="#polygon1_Joints" />
					<input semantic="INV_BIND_MATRIX" source="#polygon1_Matrices" />
				</joints>
				<vertex_weights count="48">
					<input semantic="JOINT" offset="0" source="#polygon1_Joints" />
					<input semantic="WEIGHT" offset="1" source="#polygon1_Weights" />
					<vcount>1 1 1 1 1 1 1 1 1 1 1 1 1 1 1 1 1 1 1 1 1 1 1 1 1 1 1 1 1 1 1 1 1 1 1 1 1 1 1 1 1 1 1 1 1 1 1 1</vcount>
					<v>0 0 0 0 0 0 0 0 0 0 0 0 0 0 0 0 0 0 0 0 0 0 0 0 0 0 0 0 0 0 0 0 0 0 0 0 0 0 0 0 0 0 0 0 0 0 0 0 0 0 0 0 0 0 0 0 0 0 0 0 0 0 0 0 0 0 0 0 0 0 0 0 0 0 0 0 0 0 0 0 0 0 0 0 0 0 0 0 0 0 0 0 0 0 0 0</v>
				</vertex_weights>
			</skin>
		</controller>
	</library_controllers>
	<library_visual_scenes>
		<visual_scene id="RootNode" name="RootNode">
			<node id="enm_pawn_ast_Weapon_R" name="enm_pawn_ast_Weapon_R" sid="enm_pawn_ast_Weapon_R" type="JOINT" />
			<node id="polygon0" name="polygon0" type="NODE">
				<instance_controller url="#polygon0_Controller">
					<skeleton>#enm_pawn_ast_Weapon_R</skeleton>
					<bind_material>
						<technique_common>
							<instance_material symbol="nm_eggpawn_astcos__enMetal__" target="#nm_eggpawn_astcos__enMetal__">
								<bind_vertex_input semantic="TEXCOORD0" input_semantic="TEXCOORD" input_set="0" />
								<bind_vertex_input semantic="TEXCOORD0" input_semantic="TEXCOORD" input_set="0" />
								<bind_vertex_input semantic="TEXCOORD0" input_semantic="TEXCOORD" input_set="0" />
								<bind_vertex_input semantic="TEXCOORD1" input_semantic="TEXCOORD" input_set="1" />
							</instance_material>
						</technique_common>
					</bind_material>
				</instance_controller>
			</node>
			<node id="polygon1" name="polygon1" type="NODE">
				<instance_controller url="#polygon1_Controller">
					<skeleton>#enm_pawn_ast_Weapon_R</skeleton>
					<bind_material>
						<technique_common>
							<instance_material symbol="nm_eggpawn_astcos__enLuminouseO__" target="#nm_eggpawn_astcos__enLuminouseO__">
								<bind_vertex_input semantic="TEXCOORD0" input_semantic="TEXCOORD" input_set="0" />
							</instance_material>
						</technique_common>
					</bind_material>
				</instance_controller>
			</node>
		</visual_scene>
	</library_visual_scenes>
	<scene>
		<instance_visual_scene url="#RootNode" />
	</scene>
</COLLADA>