<?xml version="1.0" encoding="utf-8"?>
<COLLADA version="1.5.0" xmlns="http://www.collada.org/2008/03/COLLADASchema">
	<asset>
		<contributor>
			<authoring_tool>BrawlBox</authoring_tool>
		</contributor>
		<created>2022-11-10T17:29:14Z</created>
		<modified>2022-11-10T17:29:14Z</modified>
		<unit meter="0.01" name="centimeter" />
		<up_axis>Y_UP</up_axis>
	</asset>
	<library_images>
		<image id="enm_pawn_fctcos_dif_SD-image" name="enm_pawn_fctcos_dif_SD">
			<init_from>
				<ref>enm_pawn_fctcos_dif_SD.png</ref>
			</init_from>
		</image>
		<image id="enm_pawn_fctcos_ref_SD-image" name="enm_pawn_fctcos_ref_SD">
			<init_from>
				<ref>enm_pawn_fctcos_ref_SD.png</ref>
			</init_from>
		</image>
		<image id="enm_pawn_fctcos_spc_SD-image" name="enm_pawn_fctcos_spc_SD">
			<init_from>
				<ref>enm_pawn_fctcos_spc_SD.png</ref>
			</init_from>
		</image>
		<image id="enm_pawn_fctcos_spr_SD-image" name="enm_pawn_fctcos_spr_SD">
			<init_from>
				<ref>enm_pawn_fctcos_spr_SD.png</ref>
			</init_from>
		</image>
	</library_images>
	<library_materials>
		<material id="enm_eggpawn_fctcos__enMetal__D__">
			<instance_effect url="#enm_eggpawn_fctcos__enMetal__D__-fx" />
		</material>
	</library_materials>
	<library_effects>
		<effect id="enm_eggpawn_fctcos__enMetal__D__-fx" name="enm_eggpawn_fctcos__enMetal__D__">
			<profile_COMMON>
				<newparam sid="enm_pawn_fctcos_dif_SD-surface">
					<surface type="2D">
						<init_from>
							<ref>enm_pawn_fctcos_dif_SD-image</ref>
						</init_from>
					</surface>
				</newparam>
				<newparam sid="enm_pawn_fctcos_dif_SD-sampler">
					<sampler2D>
						<source>enm_pawn_fctcos_dif_SD-surface</source>
						<instance_image url="#enm_pawn_fctcos_dif_SD-image" />
						<wrap_s>WRAP</wrap_s>
						<wrap_t>WRAP</wrap_t>
						<minfilter>LINEAR_MIPMAP_LINEAR</minfilter>
						<magfilter>LINEAR</magfilter>
					</sampler2D>
				</newparam>
				<technique sid="COMMON">
					<phong>
						<diffuse>
							<texture texture="enm_pawn_fctcos_dif_SD-sampler" texcoord="TEXCOORD0" />
						</diffuse>
					</phong>
				</technique>
			</profile_COMMON>
		</effect>
	</library_effects>
	<library_geometries>
		<geometry id="polygon0" name="polygon0">
			<mesh>
				<source id="polygon0_Positions">
					<float_array id="polygon0_PosArr" count="453">0.5664063 -0.5664063 3.141602 0.8945313 -0.8945313 -4.075195 0 -0.8007813 3.141602 0 -1.265625 -4.075195 -0.8945313 -0.8945313 -4.075195 0 0 -5.360352 -1.265625 0 -4.075195 -0.8945313 0.8945313 -4.075195 -0.8007813 0 3.141602 -0.5664063 0.5664063 3.141602 1.265625 0 -4.075195 0.8945313 0.8945313 -4.075195 0.8007813 0 3.141602 0.5664063 0.5664063 3.141602 0 0.8007813 3.141602 -0.5664063 -0.5664063 3.141602 0 1.265625 -4.075195 -1.408203 -0.2275391 10.20605 -0.6748047 -0.1806641 6.863281 -0.6748047 0.1806641 6.863281 0 0 -2.085938 0 0 22.56445 -2.581055 1.113281 21.32324 -2.254883 1.678711 21.32324 -3.382813 2.360352 19.11914 -3.735352 1.749023 19.11914 -3.347656 2.339844 16.38184 -3.700195 1.728516 16.38184 -2.373047 1.777344 13.44043 -2.726563 1.166992 13.44043 -1.106445 0.9013672 10.20605 -1.333008 0.5068359 10.20605 -0.4941406 0.4941406 6.863281 -1.678711 2.254883 21.32324 -1.113281 2.581055 21.32324 -1.749023 3.735352 19.11914 -2.360352 3.382813 19.11914 -1.728516 3.700195 16.38184 -2.339844 3.347656 16.38184 -1.166992 2.726563 13.44043 -1.777344 2.373047 13.44043 -0.5068359 1.333008 10.20605 -0.9013672 1.106445 10.20605 -0.1806641 0.6748047 6.863281 -0.3261719 2.791992 21.32324 0.3261719 2.791992 21.32324 0.3525391 4.110352 19.11914 -0.3525391 4.110352 19.11914 0.3525391 4.069336 16.38184 -0.3525391 4.069336 16.38184 0.3525391 2.944336 13.44043 -0.3525391 2.944336 13.44043 0.2275391 1.408203 10.20605 -0.2275391 1.408203 10.20605 0.1806641 0.6748047 6.863281 1.113281 2.581055 21.32324 1.678711 2.254883 21.32324 2.360352 3.382813 19.11914 1.749023 3.735352 19.11914 2.339844 3.347656 16.38184 1.728516 3.700195 16.38184 1.777344 2.373047 13.44043 1.166992 2.726563 13.44043 0.9013672 1.106445 10.20605 0.5068359 1.333008 10.20605 0.4941406 0.4941406 6.863281 2.254883 1.678711 21.32324 2.581055 1.113281 21.32324 3.735352 1.749023 19.11914 3.382813 2.360352 19.11914 3.700195 1.728516 16.38184 3.347656 2.339844 16.38184 2.726563 1.166992 13.44043 2.373047 1.777344 13.44043 1.333008 0.5068359 10.20605 1.106445 0.9013672 10.20605 0.6748047 0.1806641 6.863281 2.791992 0.3261719 21.32324 2.791992 -0.3261719 21.32324 4.110352 -0.3525391 19.11914 4.110352 0.3525391 19.11914 4.069336 -0.3525391 16.38184 4.069336 0.3525391 16.38184 2.944336 -0.3525391 13.44043 2.944336 0.3525391 13.44043 1.408203 -0.2275391 10.20605 1.408203 0.2275391 10.20605 0.6748047 -0.1806641 6.863281 2.581055 -1.113281 21.32324 2.254883 -1.678711 21.32324 3.382813 -2.360352 19.11914 3.735352 -1.749023 19.11914 3.347656 -2.339844 16.38184 3.700195 -1.728516 16.38184 2.373047 -1.777344 13.44043 2.726563 -1.166992 13.44043 1.106445 -0.9013672 10.20605 1.333008 -0.5068359 10.20605 0.4941406 -0.4941406 6.863281 1.678711 -2.254883 21.32324 1.113281 -2.581055 21.32324 1.749023 -3.735352 19.11914 2.360352 -3.382813 19.11914 1.728516 -3.700195 16.38184 2.339844 -3.347656 16.38184 1.166992 -2.726563 13.44043 1.777344 -2.373047 13.44043 0.5068359 -1.333008 10.20605 0.9013672 -1.106445 10.20605 0.1806641 -0.6748047 6.863281 0.3261719 -2.791992 21.32324 -0.3261719 -2.791992 21.32324 -0.3525391 -4.110352 19.11914 0.3525391 -4.110352 19.11914 -0.3525391 -4.069336 16.38184 0.3525391 -4.069336 16.38184 -0.3525391 -2.944336 13.44043 0.3525391 -2.944336 13.44043 -0.2275391 -1.408203 10.20605 0.2275391 -1.408203 10.20605 -0.1806641 -0.6748047 6.863281 -1.113281 -2.581055 21.32324 -1.678711 -2.254883 21.32324 -2.360352 -3.382813 19.11914 -1.749023 -3.735352 19.11914 -2.339844 -3.347656 16.38184 -1.728516 -3.700195 16.38184 -1.777344 -2.373047 13.44043 -1.166992 -2.726563 13.44043 -0.9013672 -1.106445 10.20605 -0.5068359 -1.333008 10.20605 -0.4941406 -0.4941406 6.863281 -2.254883 -1.678711 21.32324 -2.581055 -1.113281 21.32324 -3.735352 -1.749023 19.11914 -3.382813 -2.360352 19.11914 -3.700195 -1.728516 16.38184 -3.347656 -2.339844 16.38184 -2.726563 -1.166992 13.44043 -2.373047 -1.777344 13.44043 -1.333008 -0.5068359 10.20605 -1.106445 -0.9013672 10.20605 -2.791992 -0.3261719 21.32324 -2.791992 0.3261719 21.32324 -4.110352 0.3525391 19.11914 -4.110352 -0.3525391 19.11914 -4.069336 0.3525391 16.38184 -4.069336 -0.3525391 16.38184 -2.944336 0.3525391 13.44043 -2.944336 -0.3525391 13.44043 -1.408203 0.2275391 10.20605</float_array>
					<technique_common>
						<accessor source="#polygon0_PosArr" count="151" stride="3">
							<param name="X" type="float" />
							<param name="Y" type="float" />
							<param name="Z" type="float" />
						</accessor>
					</technique_common>
				</source>
				<source id="polygon0_Normals">
					<float_array id="polygon0_NormArr" count="270">0.7056274 -0.7056274 0.06420898 0.6698608 -0.6698608 -0.3203125 0 -0.9979248 0.06420898 0 -0.9473267 -0.3203125 -0.6698608 -0.6698608 -0.3203125 0 0 -1 -0.9473267 0 -0.3203125 -0.6698608 0.6698608 -0.3203125 -0.9979248 0 0.06420898 -0.7056274 0.7056274 0.06420898 0.9473267 0 -0.3203125 0.6698608 0.6698608 -0.3203125 0.9979248 0 0.06420898 0.7056274 0.7056274 0.06420898 0 0 1 -0.7056274 -0.7056274 0.06420898 0 0.9473267 -0.3203125 0 0.9979248 0.06420898 -0.9455566 0 -0.3254395 -0.954834 -0.2558594 -0.1508789 -0.954834 0.2558594 -0.1508789 -0.5822144 0.3361206 0.7402954 -0.836731 0.4830933 0.2579956 -0.8504639 0.4910278 -0.1889038 -0.7963867 0.4597778 -0.3928833 -0.8189087 0.4727783 -0.3254395 -0.6990356 0.6990356 -0.1508789 -0.3361206 0.5822144 0.7402954 -0.4830933 0.836731 0.2579956 -0.4910278 0.8504639 -0.1889038 -0.4597778 0.7963867 -0.3928833 -0.4727783 0.8189087 -0.3254395 -0.2558594 0.954834 -0.1508789 0 0.6723022 0.7402954 0 0.9661255 0.2579956 0 0.9819946 -0.1889038 0 0.9195557 -0.3928833 0 0.9455566 -0.3254395 0.2558594 0.954834 -0.1508789 0.3361206 0.5822144 0.7402954 0.4830933 0.836731 0.2579956 0.4910278 0.8504639 -0.1889038 0.4597778 0.7963867 -0.3928833 0.4727783 0.8189087 -0.3254395 0.6990356 0.6990356 -0.1508789 0.5822144 0.3361206 0.7402954 0.836731 0.4830933 0.2579956 0.8504639 0.4910278 -0.1889038 0.7963867 0.4597778 -0.3928833 0.8189087 0.4727783 -0.3254395 0.954834 0.2558594 -0.1508789 0.6723022 0 0.7402954 0.9661255 0 0.2579956 0.9819946 0 -0.1889038 0.9195557 0 -0.3928833 0.9455566 0 -0.3254395 0.954834 -0.2558594 -0.1508789 0.5822144 -0.3361206 0.7402954 0.836731 -0.4830933 0.2579956 0.8504639 -0.4910278 -0.1889038 0.7963867 -0.4597778 -0.3928833 0.8189087 -0.4727783 -0.3254395 0.6990356 -0.6990356 -0.1508789 0.3361206 -0.5822144 0.7402954 0.4830933 -0.836731 0.2579956 0.4910278 -0.8504639 -0.1889038 0.4597778 -0.7963867 -0.3928833 0.4727783 -0.8189087 -0.3254395 0.2558594 -0.954834 -0.1508789 0 -0.6723022 0.7402954 0 -0.9661255 0.2579956 0 -0.9819946 -0.1889038 0 -0.9195557 -0.3928833 0 -0.9455566 -0.3254395 -0.2558594 -0.954834 -0.1508789 -0.3361206 -0.5822144 0.7402954 -0.4830933 -0.836731 0.2579956 -0.4910278 -0.8504639 -0.1889038 -0.4597778 -0.7963867 -0.3928833 -0.4727783 -0.8189087 -0.3254395 -0.6990356 -0.6990356 -0.1508789 -0.5822144 -0.3361206 0.7402954 -0.836731 -0.4830933 0.2579956 -0.8504639 -0.4910278 -0.1889038 -0.7963867 -0.4597778 -0.3928833 -0.8189087 -0.4727783 -0.3254395 -0.6723022 0 0.7402954 -0.9661255 0 0.2579956 -0.9819946 0 -0.1889038 -0.9195557 0 -0.3928833</float_array>
					<technique_common>
						<accessor source="#polygon0_NormArr" count="90" stride="3">
							<param name="X" type="float" />
							<param name="Y" type="float" />
							<param name="Z" type="float" />
						</accessor>
					</technique_common>
				</source>
				<source id="polygon0_UVs0">
					<float_array id="polygon0_UVArr0" count="60">0.8908386 0.4385071 0.8908386 0.1417847 0.9838867 0.4385071 0.9838867 0.1417847 0.7970886 0.08895874 0.7977905 0.1417847 0.7047119 0.1417847 0.7977905 0.4385071 0.7047119 0.4385071 0.9112854 0.08862305 0.8431702 0.06573486 0.9743042 0.06506348 0.8098755 0.009796143 0.9953308 0.008850098 0.6116638 0.1417847 0.6116638 0.4385071 0.1253967 0.3356628 0.1253967 0.1715393 0.02844238 0.1715393 0.0769043 -0.214325 0.0769043 0.9922485 0.1253967 0.8280945 0.02844238 0.8280945 0.02844238 0.7460327 0.1253967 0.7460327 0.02844238 0.6639709 0.1253967 0.6639709 0.02844238 0.4998169 0.1253967 0.4998169 0.02844238 0.3356628</float_array>
					<technique_common>
						<accessor source="#polygon0_UVArr0" count="30" stride="2">
							<param name="S" type="float" />
							<param name="T" type="float" />
						</accessor>
					</technique_common>
				</source>
				<source id="polygon0_UVs1">
					<float_array id="polygon0_UVArr1" count="60">0.8908386 0.4385071 0.8908386 0.1417847 0.9838867 0.4385071 0.9838867 0.1417847 0.7970886 0.08895874 0.7977905 0.1417847 0.7047119 0.1417847 0.7977905 0.4385071 0.7047119 0.4385071 0.9112854 0.08862305 0.8431702 0.06573486 0.9743042 0.06506348 0.8098755 0.009796143 0.9953308 0.008850098 0.6116638 0.1417847 0.6116638 0.4385071 0.1253967 0.3356628 0.1253967 0.1715393 0.02844238 0.1715393 0.0769043 -0.214325 0.0769043 0.9922485 0.1253967 0.8280945 0.02844238 0.8280945 0.02844238 0.7460327 0.1253967 0.7460327 0.02844238 0.6639709 0.1253967 0.6639709 0.02844238 0.4998169 0.1253967 0.4998169 0.02844238 0.3356628</float_array>
					<technique_common>
						<accessor source="#polygon0_UVArr1" count="30" stride="2">
							<param name="S" type="float" />
							<param name="T" type="float" />
						</accessor>
					</technique_common>
				</source>
				<vertices id="polygon0_Vertices">
					<input semantic="POSITION" source="#polygon0_Positions" />
				</vertices>
				<triangles material="enm_eggpawn_fctcos__enMetal__D__" count="174">
					<input semantic="VERTEX" source="#polygon0_Vertices" offset="0" />
					<input semantic="NORMAL" source="#polygon0_Normals" offset="1" />
					<input semantic="TEXCOORD" source="#polygon0_UVs0" set="0" offset="2" />
					<input semantic="TEXCOORD" source="#polygon0_UVs1" set="1" offset="3" />
					<p>2 2 2 2 1 1 1 1 0 0 0 0 3 3 3 3 1 1 1 1 2 2 2 2 4 4 1 1 3 3 3 3 2 2 2 2 5 5 4 4 3 3 3 3 4 4 1 1 6 6 5 5 5 5 4 4 4 4 1 1 7 7 6 6 5 5 4 4 6 6 5 5 8 8 7 7 7 7 6 6 6 6 5 5 9 9 8 8 7 7 6 6 8 8 7 7 5 5 4 4 1 1 1 1 3 3 3 3 10 10 5 5 1 1 1 1 5 5 4 4 11 11 6 6 10 10 5 5 5 5 4 4 12 12 7 7 10 10 5 5 11 11 6 6 13 13 8 8 12 12 7 7 11 11 6 6 13 14 11 11 0 14 10 10 12 14 9 9 2 14 12 12 0 14 10 10 13 14 11 11 14 14 13 13 2 14 12 12 13 14 11 11 9 14 11 11 2 14 12 12 14 14 13 13 15 15 0 0 4 4 1 1 2 2 2 2 6 6 5 5 4 4 1 1 15 15 0 0 8 8 7 7 6 6 5 5 15 15 0 0 16 16 14 14 11 11 6 6 5 5 4 4 13 13 8 8 11 11 6 6 16 16 14 14 14 17 15 15 13 13 8 8 16 16 14 14 19 20 18 18 18 19 17 17 17 18 16 16 20 5 19 19 18 19 17 17 19 20 18 18 23 21 22 22 22 21 21 21 21 14 20 20 24 22 23 23 22 21 21 21 23 21 22 22 24 22 23 23 25 22 24 24 22 21 21 21 26 23 25 25 25 22 24 24 24 22 23 23 26 23 25 25 27 23 26 26 25 22 24 24 28 24 27 27 27 23 26 26 26 23 25 25 28 24 27 27 29 24 28 28 27 23 26 26 30 25 29 29 29 24 28 28 28 24 27 27 30 25 29 29 31 25 16 16 29 24 28 28 32 26 18 18 31 25 16 16 30 25 29 29 32 26 18 18 19 20 17 17 31 25 16 16 20 5 19 19 19 20 17 17 32 26 18 18 34 27 22 22 33 27 21 21 21 14 20 20 35 28 23 23 33 27 21 21 34 27 22 22 35 28 23 23 36 28 24 24 33 27 21 21 37 29 25 25 36 28 24 24 35 28 23 23 37 29 25 25 38 29 26 26 36 28 24 24 39 30 27 27 38 29 26 26 37 29 25 25 39 30 27 27 40 30 28 28 38 29 26 26 41 31 29 29 40 30 28 28 39 30 27 27 41 31 29 29 42 31 16 16 40 30 28 28 43 32 18 18 42 31 16 16 41 31 29 29 43 32 18 18 32 26 17 17 42 31 16 16 20 5 19 19 32 26 17 17 43 32 18 18 45 33 22 22 44 33 21 21 21 14 20 20 46 34 23 23 44 33 21 21 45 33 22 22 46 34 23 23 47 34 24 24 44 33 21 21 48 35 25 25 47 34 24 24 46 34 23 23 48 35 25 25 49 35 26 26 47 34 24 24 50 36 27 27 49 35 26 26 48 35 25 25 50 36 27 27 51 36 28 28 49 35 26 26 52 37 29 29 51 36 28 28 50 36 27 27 52 37 29 29 53 37 16 16 51 36 28 28 54 38 18 18 53 37 16 16 52 37 29 29 54 38 18 18 43 32 17 17 53 37 16 16 20 5 19 19 43 32 17 17 54 38 18 18 56 39 22 22 55 39 21 21 21 14 20 20 57 40 23 23 55 39 21 21 56 39 22 22 57 40 23 23 58 40 24 24 55 39 21 21 59 41 25 25 58 40 24 24 57 40 23 23 59 41 25 25 60 41 26 26 58 40 24 24 61 42 27 27 60 41 26 26 59 41 25 25 61 42 27 27 62 42 28 28 60 41 26 26 63 43 29 29 62 42 28 28 61 42 27 27 63 43 29 29 64 43 16 16 62 42 28 28 65 44 18 18 64 43 16 16 63 43 29 29 65 44 18 18 54 38 17 17 64 43 16 16 20 5 19 19 54 38 17 17 65 44 18 18 67 45 22 22 66 45 21 21 21 14 20 20 68 46 23 23 66 45 21 21 67 45 22 22 68 46 23 23 69 46 24 24 66 45 21 21 70 47 25 25 69 46 24 24 68 46 23 23 70 47 25 25 71 47 26 26 69 46 24 24 72 48 27 27 71 47 26 26 70 47 25 25 72 48 27 27 73 48 28 28 71 47 26 26 74 49 29 29 73 48 28 28 72 48 27 27 74 49 29 29 75 49 16 16 73 48 28 28 76 50 18 18 75 49 16 16 74 49 29 29 76 50 18 18 65 44 17 17 75 49 16 16 20 5 19 19 65 44 17 17 76 50 18 18 78 51 22 22 77 51 21 21 21 14 20 20 79 52 23 23 77 51 21 21 78 51 22 22 79 52 23 23 80 52 24 24 77 51 21 21 81 53 25 25 80 52 24 24 79 52 23 23 81 53 25 25 82 53 26 26 80 52 24 24 83 54 27 27 82 53 26 26 81 53 25 25 83 54 27 27 84 54 28 28 82 53 26 26 85 55 29 29 84 54 28 28 83 54 27 27 85 55 29 29 86 55 16 16 84 54 28 28 87 56 18 18 86 55 16 16 85 55 29 29 87 56 18 18 76 50 17 17 86 55 16 16 20 5 19 19 76 50 17 17 87 56 18 18 89 57 22 22 88 57 21 21 21 14 20 20 90 58 23 23 88 57 21 21 89 57 22 22 90 58 23 23 91 58 24 24 88 57 21 21 92 59 25 25 91 58 24 24 90 58 23 23 92 59 25 25 93 59 26 26 91 58 24 24 94 60 27 27 93 59 26 26 92 59 25 25 94 60 27 27 95 60 28 28 93 59 26 26 96 61 29 29 95 60 28 28 94 60 27 27 96 61 29 29 97 61 16 16 95 60 28 28 98 62 18 18 97 61 16 16 96 61 29 29 98 62 18 18 87 56 17 17 97 61 16 16 20 5 19 19 87 56 17 17 98 62 18 18 100 63 22 22 99 63 21 21 21 14 20 20 101 64 23 23 99 63 21 21 100 63 22 22 101 64 23 23 102 64 24 24 99 63 21 21 103 65 25 25 102 64 24 24 101 64 23 23 103 65 25 25 104 65 26 26 102 64 24 24 105 66 27 27 104 65 26 26 103 65 25 25 105 66 27 27 106 66 28 28 104 65 26 26 107 67 29 29 106 66 28 28 105 66 27 27 107 67 29 29 108 67 16 16 106 66 28 28 109 68 18 18 108 67 16 16 107 67 29 29 109 68 18 18 98 62 17 17 108 67 16 16 20 5 19 19 98 62 17 17 109 68 18 18 111 69 22 22 110 69 21 21 21 14 20 20 112 70 23 23 110 69 21 21 111 69 22 22 112 70 23 23 113 70 24 24 110 69 21 21 114 71 25 25 113 70 24 24 112 70 23 23 114 71 25 25 115 71 26 26 113 70 24 24 116 72 27 27 115 71 26 26 114 71 25 25 116 72 27 27 117 72 28 28 115 71 26 26 118 73 29 29 117 72 28 28 116 72 27 27 118 73 29 29 119 73 16 16 117 72 28 28 120 74 18 18 119 73 16 16 118 73 29 29 120 74 18 18 109 68 17 17 119 73 16 16 20 5 19 19 109 68 17 17 120 74 18 18 122 75 22 22 121 75 21 21 21 14 20 20 123 76 23 23 121 75 21 21 122 75 22 22 123 76 23 23 124 76 24 24 121 75 21 21 125 77 25 25 124 76 24 24 123 76 23 23 125 77 25 25 126 77 26 26 124 76 24 24 127 78 27 27 126 77 26 26 125 77 25 25 127 78 27 27 128 78 28 28 126 77 26 26 129 79 29 29 128 78 28 28 127 78 27 27 129 79 29 29 130 79 16 16 128 78 28 28 131 80 18 18 130 79 16 16 129 79 29 29 131 80 18 18 120 74 17 17 130 79 16 16 20 5 19 19 120 74 17 17 131 80 18 18 133 81 22 22 132 81 21 21 21 14 20 20 134 82 23 23 132 81 21 21 133 81 22 22 134 82 23 23 135 82 24 24 132 81 21 21 136 83 25 25 135 82 24 24 134 82 23 23 136 83 25 25 137 83 26 26 135 82 24 24 138 84 27 27 137 83 26 26 136 83 25 25 138 84 27 27 139 84 28 28 137 83 26 26 140 85 29 29 139 84 28 28 138 84 27 27 140 85 29 29 141 85 16 16 139 84 28 28 18 19 18 18 141 85 16 16 140 85 29 29 18 19 18 18 131 80 17 17 141 85 16 16 20 5 19 19 131 80 17 17 18 19 18 18 143 86 22 22 142 86 21 21 21 14 20 20 144 87 23 23 142 86 21 21 143 86 22 22 15 14 10 10 9 14 11 11 8 14 9 9 2 14 12 12 9 14 11 11 15 14 10 10 144 87 23 23 145 87 24 24 142 86 21 21 146 88 25 25 145 87 24 24 144 87 23 23 146 88 25 25 147 88 26 26 145 87 24 24 148 89 27 27 147 88 26 26 146 88 25 25 10 10 5 5 0 0 0 0 1 1 1 1 12 12 7 7 0 0 0 0 10 10 5 5 148 89 27 27 149 89 28 28 147 88 26 26 150 18 29 29 149 89 28 28 148 89 27 27 150 18 29 29 17 18 16 16 149 89 28 28 19 20 18 18 17 18 16 16 150 18 29 29 7 7 6 6 16 16 14 14 5 5 4 4 9 9 8 8 16 16 14 14 7 7 6 6 14 17 15 15 16 16 14 14 9 9 8 8</p>
				</triangles>
			</mesh>
		</geometry>
	</library_geometries>
	<library_controllers>
		<controller id="polygon0_Controller">
			<skin source="#polygon0">
				<bind_shape_matrix>1 0 0 0 0 1 0 0 0 0 1 0 0 0 0 1</bind_shape_matrix>
				<source id="polygon0_Joints">
					<Name_array id="polygon0_JointArr" count="1">enm_pawn_fct_Weapon_R</Name_array>
					<technique_common>
						<accessor source="#polygon0_JointArr" count="1">
							<param name="JOINT" type="Name" />
						</accessor>
					</technique_common>
				</source>
				<source id="polygon0_Matrices">
					<float_array id="polygon0_MatArr" count="16">1 0 0 0 0 1 0 0 0 0 1 0 0 0 0 1</float_array>
					<technique_common>
						<accessor source="#polygon0_MatArr" count="1" stride="16">
							<param type="float4x4" />
						</accessor>
					</technique_common>
				</source>
				<source id="polygon0_Weights">
					<float_array id="polygon0_WeightArr" count="1">1</float_array>
					<technique_common>
						<accessor source="#polygon0_WeightArr" count="1">
							<param type="float" />
						</accessor>
					</technique_common>
				</source>
				<joints>
					<input semantic="JOINT" source="#polygon0_Joints" />
					<input semantic="INV_BIND_MATRIX" source="#polygon0_Matrices" />
				</joints>
				<vertex_weights count="151">
					<input semantic="JOINT" offset="0" source="#polygon0_Joints" />
					<input semantic="WEIGHT" offset="1" source="#polygon0_Weights" />
					<vcount>1 1 1 1 1 1 1 1 1 1 1 1 1 1 1 1 1 1 1 1 1 1 1 1 1 1 1 1 1 1 1 1 1 1 1 1 1 1 1 1 1 1 1 1 1 1 1 1 1 1 1 1 1 1 1 1 1 1 1 1 1 1 1 1 1 1 1 1 1 1 1 1 1 1 1 1 1 1 1 1 1 1 1 1 1 1 1 1 1 1 1 1 1 1 1 1 1 1 1 1 1 1 1 1 1 1 1 1 1 1 1 1 1 1 1 1 1 1 1 1 1 1 1 1 1 1 1 1 1 1 1 1 1 1 1 1 1 1 1 1 1 1 1 1 1 1 1 1 1 1 1</vcount>
					<v>0 0 0 0 0 0 0 0 0 0 0 0 0 0 0 0 0 0 0 0 0 0 0 0 0 0 0 0 0 0 0 0 0 0 0 0 0 0 0 0 0 0 0 0 0 0 0 0 0 0 0 0 0 0 0 0 0 0 0 0 0 0 0 0 0 0 0 0 0 0 0 0 0 0 0 0 0 0 0 0 0 0 0 0 0 0 0 0 0 0 0 0 0 0 0 0 0 0 0 0 0 0 0 0 0 0 0 0 0 0 0 0 0 0 0 0 0 0 0 0 0 0 0 0 0 0 0 0 0 0 0 0 0 0 0 0 0 0 0 0 0 0 0 0 0 0 0 0 0 0 0 0 0 0 0 0 0 0 0 0 0 0 0 0 0 0 0 0 0 0 0 0 0 0 0 0 0 0 0 0 0 0 0 0 0 0 0 0 0 0 0 0 0 0 0 0 0 0 0 0 0 0 0 0 0 0 0 0 0 0 0 0 0 0 0 0 0 0 0 0 0 0 0 0 0 0 0 0 0 0 0 0 0 0 0 0 0 0 0 0 0 0 0 0 0 0 0 0 0 0 0 0 0 0 0 0 0 0 0 0 0 0 0 0 0 0 0 0 0 0 0 0 0 0 0 0 0 0 0 0 0 0 0 0 0 0 0 0 0 0 0 0 0 0 0 0 0 0 0 0 0 0</v>
				</vertex_weights>
			</skin>
		</controller>
	</library_controllers>
	<library_visual_scenes>
		<visual_scene id="RootNode" name="RootNode">
			<node id="enm_pawn_fct_Weapon_R" name="enm_pawn_fct_Weapon_R" sid="enm_pawn_fct_Weapon_R" type="JOINT" />
			<node id="polygon0" name="polygon0" type="NODE">
				<instance_controller url="#polygon0_Controller">
					<skeleton>#enm_pawn_fct_Weapon_R</skeleton>
					<bind_material>
						<technique_common>
							<instance_material symbol="enm_eggpawn_fctcos__enMetal__D__" target="#enm_eggpawn_fctcos__enMetal__D__">
								<bind_vertex_input semantic="TEXCOORD0" input_semantic="TEXCOORD" input_set="0" />
								<bind_vertex_input semantic="TEXCOORD0" input_semantic="TEXCOORD" input_set="0" />
								<bind_vertex_input semantic="TEXCOORD0" input_semantic="TEXCOORD" input_set="0" />
								<bind_vertex_input semantic="TEXCOORD1" input_semantic="TEXCOORD" input_set="1" />
							</instance_material>
						</technique_common>
					</bind_material>
				</instance_controller>
			</node>
		</visual_scene>
	</library_visual_scenes>
	<scene>
		<instance_visual_scene url="#RootNode" />
	</scene>
</COLLADA>