<?xml version="1.0" encoding="utf-8"?>
<COLLADA version="1.5.0" xmlns="http://www.collada.org/2008/03/COLLADASchema">
	<asset>
		<contributor>
			<authoring_tool>BrawlBox</authoring_tool>
		</contributor>
		<created>2022-11-10T17:30:55Z</created>
		<modified>2022-11-10T17:30:55Z</modified>
		<unit meter="0.01" name="centimeter" />
		<up_axis>Y_UP</up_axis>
	</asset>
	<library_images>
		<image id="enm_pawn_quacos_dif_SD-image" name="enm_pawn_quacos_dif_SD">
			<init_from>
				<ref>enm_pawn_quacos_dif_SD.png</ref>
			</init_from>
		</image>
		<image id="enm_pawn_quacos_ref_SD-image" name="enm_pawn_quacos_ref_SD">
			<init_from>
				<ref>enm_pawn_quacos_ref_SD.png</ref>
			</init_from>
		</image>
		<image id="enm_pawn_quacos_spc_SD-image" name="enm_pawn_quacos_spc_SD">
			<init_from>
				<ref>enm_pawn_quacos_spc_SD.png</ref>
			</init_from>
		</image>
		<image id="enm_pawn_quacos_spr_SD-image" name="enm_pawn_quacos_spr_SD">
			<init_from>
				<ref>enm_pawn_quacos_spr_SD.png</ref>
			</init_from>
		</image>
	</library_images>
	<library_materials>
		<material id="enm_eggpawn_quacos__enMetal__D__">
			<instance_effect url="#enm_eggpawn_quacos__enMetal__D__-fx" />
		</material>
	</library_materials>
	<library_effects>
		<effect id="enm_eggpawn_quacos__enMetal__D__-fx" name="enm_eggpawn_quacos__enMetal__D__">
			<profile_COMMON>
				<newparam sid="enm_pawn_quacos_dif_SD-surface">
					<surface type="2D">
						<init_from>
							<ref>enm_pawn_quacos_dif_SD-image</ref>
						</init_from>
					</surface>
				</newparam>
				<newparam sid="enm_pawn_quacos_dif_SD-sampler">
					<sampler2D>
						<source>enm_pawn_quacos_dif_SD-surface</source>
						<instance_image url="#enm_pawn_quacos_dif_SD-image" />
						<wrap_s>WRAP</wrap_s>
						<wrap_t>WRAP</wrap_t>
						<minfilter>LINEAR_MIPMAP_LINEAR</minfilter>
						<magfilter>LINEAR</magfilter>
					</sampler2D>
				</newparam>
				<technique sid="COMMON">
					<phong>
						<diffuse>
							<texture texture="enm_pawn_quacos_dif_SD-sampler" texcoord="TEXCOORD0" />
						</diffuse>
					</phong>
				</technique>
			</profile_COMMON>
		</effect>
	</library_effects>
	<library_geometries>
		<geometry id="polygon0" name="polygon0">
			<mesh>
				<source id="polygon0_Positions">
					<float_array id="polygon0_PosArr" count="291">-4.126953 1.625977 1.135742 -4.145508 2.087402 -0.9985352 -3.275879 3.389648 1.074707 -2.645996 3.793457 -1.688477 -2.721191 4.338867 0.5195313 -2.072754 4.666016 -1.371582 -1.676758 5.266113 0.5073242 -1.242676 5.420898 -0.7529297 0 5.699707 0.4545898 0 5.570801 -1.275879 1.242676 5.420898 -0.7529297 0 5.32959 -1.990723 2.072754 4.666016 -1.371582 1.454102 4.11084 -2.86377 2.645996 3.793457 -1.688477 1.878418 2.719727 -4.137695 3.275879 3.389648 1.074707 2.721191 4.338867 0.5195313 2.247559 4.149902 1.490234 1.676758 5.266113 0.5073242 1.13623 5.045898 1.70752 0 5.013184 2.317871 -1.13623 5.045898 1.70752 -1.404297 3.81543 2.783691 -2.247559 4.149902 1.490234 -2.775879 3.230957 1.705078 2.536133 7.006348 1.161621 3.191406 5.920898 1.448242 2.414063 6.262695 1.683594 2.251465 4.823242 2.313965 1.328125 5.035645 2.509766 1.09375 4.147949 2.929199 0 4.661621 2.933594 0 3.931641 3.233398 -1.09375 4.147949 2.929199 -4.644531 8.264648 -0.2485352 -2.536133 7.006348 1.161621 -3.191406 5.920898 1.448242 -2.414063 6.262695 1.683594 -2.251465 4.823242 2.313965 -1.328125 5.035645 2.509766 1.119141 4.997559 -3.92041 0 5.619629 -3.197266 0.7583008 6.543457 -4.596191 0 6.501953 -3.85791 0.578125 7.53418 -4.364258 0 7.277344 -4.034668 2.775879 3.230957 1.705078 1.650391 2.95459 3.90918 1.404297 3.81543 2.783691 0 2.844727 4.524902 0 4.026367 3.120605 2.619629 3.341309 0.8691406 0 3.393066 2.706543 4.126953 1.625977 1.135742 4.145508 2.087402 -0.9985352 3.392578 2.442871 -2.786133 4.126953 1.625977 1.135742 3.275879 3.389648 1.074707 5.091797 2.048828 1.072266 4.29248 3.866699 0.894043 6.005859 2.504395 0.6103516 5.173828 4.230469 0.4506836 -3.392578 2.442871 -2.786133 -1.878418 2.719727 -4.137695 -1.454102 4.11084 -2.86377 0 2.799805 -4.69043 0 3.530273 -3.890137 0 4.835449 -4.539551 -1.119141 4.997559 -3.92041 -0.7583008 6.543457 -4.596191 0 6.553711 -4.998047 -0.6455078 7.638184 -4.634766 1.498047 10.1001 -4.572266 0 10.4502 -4.282227 0 7.504883 -4.786133 -1.498047 10.1001 -4.572266 -2.897461 9.202148 -5.033691 1.973145 7.536621 0.7978516 3.087402 8.233887 0.3564453 4.644531 8.264648 -0.2485352 0.6455078 7.638184 -4.634766 3.737793 1.654297 0.9404297 -0.578125 7.53418 -4.364258 0 2.578613 -3.515137 -4.126953 1.625977 1.135742 -5.091797 2.048828 1.072266 -3.275879 3.389648 1.074707 -4.29248 3.866699 0.894043 -6.005859 2.504395 0.6103516 -5.173828 4.230469 0.4506836 2.897461 9.202148 -5.033691 -3.737793 1.654297 0.9404297 -2.619629 3.341309 0.8691406 -1.650391 2.95459 3.90918 -1.973145 7.536621 0.7978516 -3.087402 8.233887 0.3564453</float_array>
					<technique_common>
						<accessor source="#polygon0_PosArr" count="97" stride="3">
							<param name="X" type="float" />
							<param name="Y" type="float" />
							<param name="Z" type="float" />
						</accessor>
					</technique_common>
				</source>
				<source id="polygon0_Normals">
					<float_array id="polygon0_NormArr" count="438">-0.8945923 0.4351807 0.1016846 -0.8144531 0.5762329 -0.06854248 -0.8059692 0.5570679 0.2003174 -0.7249756 0.6182251 -0.3037109 -0.7631226 0.6362915 0.112854 -0.6185303 0.7174072 -0.3205566 -0.4990845 0.8522949 0.1564941 -0.3876953 0.9016724 -0.1914063 0 0.9899902 0.1412964 0 0.9740601 -0.2264404 0.3876953 0.9016724 -0.1914063 0 0.9024048 -0.4309692 0.6185303 0.7174072 -0.3205566 0.4795532 0.6993408 -0.5300903 0.7249756 0.6182251 -0.3037109 0.409729 0.6921387 -0.5941772 0.8059692 0.5570679 0.2003174 0.7631226 0.6362915 0.112854 0.6260986 0.5992432 0.4989014 0.4990845 0.8522949 0.1564941 0.3938599 0.7911987 0.4678345 0 0.7923584 0.6100464 -0.3938599 0.7911987 0.4678345 -0.4500122 0.6852417 0.5726318 -0.6260986 0.5992432 0.4989014 -0.630127 0.5404053 0.5575562 0.2560425 0.4703979 0.8445435 0.3845825 0.3967896 0.8334961 0.4008789 0.3978271 0.8252563 0.2975464 0.3522339 0.8873291 0.24823 0.3619385 0.8985596 0.2040405 0.3720093 0.9055176 0 0.3830566 0.9237061 0 0.3804932 0.9248047 -0.2040405 0.3720093 0.9055176 -0.321228 0.4152832 0.8510742 -0.2560425 0.4703979 0.8445435 -0.3845825 0.3967896 0.8334961 -0.4008789 0.3978271 0.8252563 -0.2975464 0.3522339 0.8873291 -0.24823 0.3619385 0.8985596 0.7125854 0.632019 0.3045654 0 0.9443359 0.3289795 0.6771851 0.5935669 0.4348145 0 0.8521729 0.5232544 0.7165527 0.2108765 0.664917 0 0.399353 0.9168091 0.8302002 0.08728027 0.5505981 0 0.222168 0.9750366 0.630127 0.5404053 0.5575562 0.3136597 0.7860107 0.5327148 0.4500122 0.6852417 0.5726318 0 0.7887573 0.6146851 0 0.7038574 0.7103882 0.1199951 -0.9810181 -0.1521606 0.008422852 -0.9911499 -0.1326904 -0.0491333 -0.9888916 -0.1400757 0 -0.9752197 -0.2213135 -0.09033203 -0.9691162 -0.2293701 0 -0.9574585 -0.2885742 0.8945923 0.4351807 0.1016846 0.8144531 0.5762329 -0.06854248 0.663208 0.6573486 -0.3578491 0.04162598 0.05480957 0.9976196 0.0869751 0.1162109 0.9893799 0.2009888 0.1618042 0.9661255 0.2313232 0.1984863 0.9523926 0.3434448 0.243042 0.9071655 0.3499756 0.2521973 0.9021606 -0.663208 0.6573486 -0.3578491 -0.409729 0.6921387 -0.5941772 -0.4795532 0.6993408 -0.5300903 0 0.7244263 -0.6893921 0.6248169 -0.4893188 -0.6084595 0.5460815 -0.3745117 -0.7493896 0 -0.5351563 -0.8447266 0 -0.3598022 -0.9330444 -0.5460815 -0.3745117 -0.7493896 -0.4730225 -0.1296997 -0.87146 0.4730225 -0.1296997 -0.87146 0 -0.07702637 -0.9970093 -0.3207397 0.1237183 -0.9390259 -0.170166 0.1254272 -0.977417 0 0.1687012 -0.9856567 0 0.0289917 -0.9995728 0.170166 0.1254272 -0.977417 -0.1275024 -0.01898193 -0.9916382 0.2468262 0.1098633 -0.9628296 -0.01660156 0.5535278 0.8327026 0.2533569 0.4483032 0.8572388 0.321228 0.4152832 0.8510742 0.3207397 0.1237183 -0.9390259 0 0.2174683 -0.9760742 0.03546143 -0.9768677 -0.2108765 0.03796387 -0.9768677 -0.2103271 0.0291748 -0.9772339 -0.210022 0.0100708 -0.9780884 -0.2079468 0.006835938 -0.9793091 -0.2021484 0 0.7386475 -0.6740723 -0.8302002 0.08728027 0.5505981 -0.7165527 0.2108765 0.664917 -0.9542847 0.1080322 0.2788086 0 -0.9805908 -0.1959229 0 -0.9827271 -0.1850586 -0.006835938 -0.9793091 -0.2021484 -0.04162598 0.05480957 0.9976196 -0.2009888 0.1618042 0.9661255 -0.0869751 0.1162109 0.9893799 -0.2313232 0.1984863 0.9523926 -0.3434448 0.243042 0.9071655 -0.3499756 0.2521973 0.9021606 0.5820923 -0.5811157 0.5687256 0 -0.09545898 0.9954224 0.3378906 -0.02026367 0.940979 0.2685547 0.04083252 0.9624023 0 0.07781982 0.9969482 -0.2685547 0.04083252 0.9624023 -0.2468262 0.1098633 -0.9628296 0.1275024 -0.01898193 -0.9916382 -0.4517212 -0.1876221 0.8721924 -0.4265137 -0.1820068 0.8859863 -0.3046875 -0.1537476 0.9399414 -0.2855835 -0.149231 0.9466553 -0.0291748 -0.9772339 -0.210022 -0.0100708 -0.9780884 -0.2079468 -0.1199951 -0.9810181 -0.1521606 0.0491333 -0.9888916 -0.1400757 -0.008422852 -0.9911499 -0.1326904 0.09033203 -0.9691162 -0.2293701 0.01660156 0.5535278 0.8327026 -0.2533569 0.4483032 0.8572388 -0.7125854 0.632019 0.3045654 -0.6771851 0.5935669 0.4348145 -0.5820923 -0.5811157 0.5687256 -0.3378906 -0.02032471 0.940979 0.4517212 -0.1876221 0.8721924 0.3046875 -0.1537476 0.9399414 0.4265137 -0.1820068 0.8859863 0.2855835 -0.149231 0.9466553 -0.03546143 -0.9768677 -0.2108765 -0.03796387 -0.9768677 -0.2103271 -0.3136597 0.7860107 0.5327148 0.5389404 -0.8223877 -0.182251 0.9542847 0.1080322 0.2788086 -0.6248169 -0.4893188 -0.6084595 -0.5389404 -0.8223877 -0.182251</float_array>
					<technique_common>
						<accessor source="#polygon0_NormArr" count="146" stride="3">
							<param name="X" type="float" />
							<param name="Y" type="float" />
							<param name="Z" type="float" />
						</accessor>
					</technique_common>
				</source>
				<source id="polygon0_UVs0">
					<float_array id="polygon0_UVArr0" count="148">0.5628662 0.3731689 0.609314 0.5509033 0.6975708 0.3745117 0.7261353 0.5891418 0.7348328 0.4204407 0.7948303 0.5826111 0.8319702 0.4089966 0.8796387 0.5187683 0.9927063 0.3923035 0.9927063 0.5687561 0.9927063 0.690033 0.8824463 0.7613525 0.8506775 0.8824463 0.7723389 0.2724304 0.879425 0.2610779 0.9927063 0.2036438 0.8640747 0.1523438 0.7252808 0.2120361 0.6637268 0.21521 0.6064758 0.1549377 0.6649475 0.1690369 0.6622009 0.0803833 0.7297363 0.0854187 0.7375488 0.02960205 0.8201294 0.05142212 0.8128967 0.007171631 0.5267944 0.3094482 0.2876282 0.5035095 0.3682556 0.5035095 0.2875671 0.6498413 0.3686829 0.6574097 0.2875671 0.743927 0.3684998 0.7355347 0.3305664 0.8257751 0.3694153 0.816925 0.8466492 0.0406189 0.9927063 0.0112915 0.9927063 0.1356812 0.6176147 0.624176 0.6406555 0.6355591 0.6002808 0.6826172 0.6837463 0.745636 0.611908 0.7471313 0.6447449 0.7817688 0.7127991 0.7315369 0.5118408 0.2514954 0.5119019 0.4914246 0.3697815 0.2540894 0.3403625 0.4623718 0.1783752 0.2710571 0.1580811 0.4261169 0.9927063 0.9181824 0.2029419 0.5035095 0.2029419 0.6498413 0.2029419 0.7531738 0.2911072 0.8323669 0.3349304 0.9888916 0.2079163 0.9922485 0.2079163 0.8323669 0.4841309 0.9649658 0.7088928 0.2425537 0.6368408 0.2943115 0.996582 0.9740906 0.9527283 0.9884033 0.9899292 0.9546204 0.8980408 0.9856873 0.8516846 0.9589844 0.9927063 0.796936 0.8431396 0.8991699 0.818512 0.9098206 0.5748596 0.9062805 0.6011353 0.831604 0.5706482 0.3198242 0.6940613 0.3323669</float_array>
					<technique_common>
						<accessor source="#polygon0_UVArr0" count="74" stride="2">
							<param name="S" type="float" />
							<param name="T" type="float" />
						</accessor>
					</technique_common>
				</source>
				<source id="polygon0_UVs1">
					<float_array id="polygon0_UVArr1" count="148">0.5628662 0.3731689 0.609314 0.5509033 0.6975708 0.3745117 0.7261353 0.5891418 0.7348328 0.4204407 0.7948303 0.5826111 0.8319702 0.4089966 0.8796387 0.5187683 0.9927063 0.3923035 0.9927063 0.5687561 0.9927063 0.690033 0.8824463 0.7613525 0.8506775 0.8824463 0.7723389 0.2724304 0.879425 0.2610779 0.9927063 0.2036438 0.8640747 0.1523438 0.7252808 0.2120361 0.6637268 0.21521 0.6064758 0.1549377 0.6649475 0.1690369 0.6622009 0.0803833 0.7297363 0.0854187 0.7375488 0.02960205 0.8201294 0.05142212 0.8128967 0.007171631 0.5267944 0.3094482 0.2876282 0.5035095 0.3682556 0.5035095 0.2875671 0.6498413 0.3686829 0.6574097 0.2875671 0.743927 0.3684998 0.7355347 0.3305664 0.8257751 0.3694153 0.816925 0.8466492 0.0406189 0.9927063 0.0112915 0.9927063 0.1356812 0.6176147 0.624176 0.6406555 0.6355591 0.6002808 0.6826172 0.6837463 0.745636 0.611908 0.7471313 0.6447449 0.7817688 0.7127991 0.7315369 0.5118408 0.2514954 0.5119019 0.4914246 0.3697815 0.2540894 0.3403625 0.4623718 0.1783752 0.2710571 0.1580811 0.4261169 0.9927063 0.9181824 0.2029419 0.5035095 0.2029419 0.6498413 0.2029419 0.7531738 0.2911072 0.8323669 0.3349304 0.9888916 0.2079163 0.9922485 0.2079163 0.8323669 0.4841309 0.9649658 0.7088928 0.2425537 0.6368408 0.2943115 0.996582 0.9740906 0.9527283 0.9884033 0.9899292 0.9546204 0.8980408 0.9856873 0.8516846 0.9589844 0.9927063 0.796936 0.8431396 0.8991699 0.818512 0.9098206 0.5748596 0.9062805 0.6011353 0.831604 0.5706482 0.3198242 0.6940613 0.3323669</float_array>
					<technique_common>
						<accessor source="#polygon0_UVArr1" count="74" stride="2">
							<param name="S" type="float" />
							<param name="T" type="float" />
						</accessor>
					</technique_common>
				</source>
				<vertices id="polygon0_Vertices">
					<input semantic="POSITION" source="#polygon0_Positions" />
				</vertices>
				<triangles material="enm_eggpawn_quacos__enMetal__D__" count="148">
					<input semantic="VERTEX" source="#polygon0_Vertices" offset="0" />
					<input semantic="NORMAL" source="#polygon0_Normals" offset="1" />
					<input semantic="TEXCOORD" source="#polygon0_UVs0" set="0" offset="2" />
					<input semantic="TEXCOORD" source="#polygon0_UVs1" set="1" offset="3" />
					<p>2 2 2 2 1 1 1 1 0 0 0 0 3 3 3 3 1 1 1 1 2 2 2 2 4 4 4 4 3 3 3 3 2 2 2 2 5 5 5 5 3 3 3 3 4 4 4 4 6 6 6 6 5 5 5 5 4 4 4 4 7 7 7 7 5 5 5 5 6 6 6 6 8 8 8 8 7 7 7 7 6 6 6 6 9 9 9 9 7 7 7 7 8 8 8 8 10 10 7 7 9 9 9 9 8 8 8 8 11 11 10 10 9 9 9 9 10 10 7 7 12 12 5 5 11 11 10 10 10 10 7 7 13 13 11 11 11 11 10 10 12 12 5 5 14 14 3 3 13 13 11 11 12 12 5 5 15 15 12 12 13 13 11 11 14 14 3 3 17 17 4 4 16 16 2 2 14 14 3 3 18 18 13 13 16 16 2 2 17 17 4 4 19 19 6 6 18 18 13 13 17 17 4 4 20 20 14 14 18 18 13 13 19 19 6 6 8 8 8 8 20 20 14 14 19 19 6 6 21 21 15 15 20 20 14 14 8 8 8 8 22 22 14 14 21 21 15 15 8 8 8 8 23 23 16 16 21 21 15 15 22 22 14 14 24 24 13 13 23 23 16 16 22 22 14 14 25 25 17 17 23 23 16 16 24 24 13 13 2 2 2 2 25 25 17 17 24 24 13 13 28 28 20 20 27 27 19 19 26 26 18 18 29 29 21 21 27 27 19 19 28 28 20 20 30 30 22 22 29 29 21 21 28 28 20 20 31 31 23 23 29 29 21 21 30 30 22 22 32 32 24 24 31 31 23 23 30 30 22 22 33 33 25 25 31 31 23 23 32 32 24 24 34 34 23 23 33 33 25 25 32 32 24 24 37 37 19 19 36 36 18 18 35 35 26 26 38 38 20 20 36 36 18 18 37 37 19 19 39 39 21 21 38 38 20 20 37 37 19 19 40 40 22 22 38 38 20 20 39 39 21 21 34 34 23 23 40 40 22 22 39 39 21 21 32 32 24 24 40 40 22 22 34 34 23 23 41 43 29 29 11 42 28 28 13 41 27 27 42 44 30 30 11 42 28 28 41 43 29 29 43 45 31 31 42 44 30 30 41 43 29 29 44 46 32 32 42 44 30 30 43 45 31 31 45 47 33 33 44 46 32 32 43 45 31 31 46 48 34 34 44 46 32 32 45 47 33 33 49 51 16 16 48 50 35 35 47 49 17 17 50 52 36 36 48 50 35 35 49 51 16 16 51 53 37 37 50 52 36 36 49 51 16 16 23 23 16 16 50 52 36 36 51 53 37 37 21 21 15 15 23 23 16 16 51 53 37 37 24 24 13 13 4 4 4 4 2 2 2 2 6 6 6 6 4 4 4 4 24 24 13 13 22 22 14 14 6 6 6 6 24 24 13 13 8 8 8 8 6 6 6 6 22 22 14 14 47 56 40 40 52 55 39 39 16 54 38 38 53 57 41 41 52 55 39 39 47 56 40 40 48 58 42 42 53 57 41 41 47 56 40 40 50 59 43 43 53 57 41 41 48 58 42 42 55 61 1 1 16 16 2 2 54 60 0 0 14 14 3 3 16 16 2 2 55 61 1 1 56 62 44 44 14 14 3 3 55 61 1 1 15 15 12 12 14 14 3 3 56 62 44 44 59 65 47 47 58 64 46 46 57 63 45 45 60 66 48 48 58 64 46 46 59 65 47 47 61 67 49 49 60 66 48 48 59 65 47 47 62 68 50 50 60 66 48 48 61 67 49 49 3 3 3 3 63 69 44 44 1 1 1 1 64 70 12 12 63 69 44 44 3 3 3 3 65 71 11 11 64 70 12 12 3 3 3 3 66 72 51 51 64 70 12 12 65 71 11 11 67 75 52 52 41 74 29 29 13 73 27 27 68 76 53 53 41 74 29 29 67 75 52 52 69 77 29 29 68 76 53 53 67 75 52 52 70 78 31 31 68 76 53 53 69 77 29 29 68 76 53 53 43 79 31 31 41 74 29 29 71 80 54 54 43 79 31 31 68 76 53 53 70 78 31 31 71 80 54 54 68 76 53 53 72 81 55 55 71 80 54 54 70 78 31 31 5 5 5 5 65 71 11 11 3 3 3 3 11 11 10 10 65 71 11 11 5 5 5 5 7 7 7 7 11 11 10 10 5 5 5 5 9 9 9 9 11 11 10 10 7 7 7 7 12 12 5 5 17 17 4 4 14 14 3 3 19 19 6 6 17 17 4 4 12 12 5 5 10 10 7 7 19 19 6 6 12 12 5 5 8 8 8 8 19 19 6 6 10 10 7 7 75 84 58 58 74 83 57 57 73 82 56 56 76 85 56 56 74 83 57 57 75 84 58 58 72 86 55 55 76 85 56 56 75 84 58 58 77 87 59 59 76 85 56 56 72 86 55 55 18 18 13 13 47 49 17 17 16 16 2 2 49 51 16 16 47 49 17 17 18 18 13 13 20 20 14 14 49 51 16 16 18 18 13 13 21 21 15 15 49 51 16 16 20 20 14 14 26 26 18 18 79 89 61 61 78 88 60 60 80 90 26 26 79 89 61 61 26 26 18 18 27 27 19 19 80 90 26 26 26 26 18 18 71 80 54 54 81 91 55 55 43 79 31 31 75 92 58 58 81 91 55 55 71 80 54 54 72 81 55 55 75 92 58 58 71 80 54 54 82 95 64 64 55 94 63 63 54 93 62 62 56 96 65 65 55 94 63 63 82 95 64 64 15 97 66 66 56 96 65 65 82 95 64 64 66 72 51 51 13 13 11 11 15 15 12 12 67 98 67 67 13 13 11 11 66 72 51 51 65 71 11 11 67 98 67 67 66 72 51 51 83 99 33 33 44 46 32 32 46 48 34 34 70 100 31 31 44 46 32 32 83 99 33 33 72 101 55 55 70 100 31 31 83 99 33 33 84 102 68 68 15 97 66 66 82 95 64 64 66 103 69 69 15 97 66 66 84 102 68 68 64 104 66 66 66 103 69 69 84 102 68 68 87 107 46 46 86 106 47 47 85 105 45 45 88 108 48 48 86 106 47 47 87 107 46 46 88 108 48 48 89 109 49 49 86 106 47 47 90 110 50 50 89 109 49 49 88 108 48 48 91 113 59 59 46 112 34 34 45 111 33 33 73 114 70 70 46 112 34 34 91 113 59 59 74 115 71 71 46 112 34 34 73 114 70 70 76 116 70 70 46 112 34 34 74 115 71 71 81 118 55 55 73 82 56 56 91 117 59 59 75 84 58 58 73 82 56 56 81 118 55 55 16 121 2 2 82 120 72 72 54 119 0 0 52 122 73 73 82 120 72 72 16 121 2 2 92 123 64 64 64 104 66 66 84 102 68 68 63 124 65 65 64 104 66 66 92 123 64 64 93 127 39 39 25 126 40 40 2 125 38 38 53 57 41 41 25 126 40 40 93 127 39 39 53 57 41 41 94 128 42 42 25 126 40 40 50 59 43 43 94 128 42 42 53 57 41 41 96 130 61 61 36 36 18 18 95 129 60 60 35 35 26 26 36 36 18 18 96 130 61 61 11 42 28 28 69 132 29 29 65 131 27 27 42 44 30 30 69 132 29 29 11 42 28 28 46 112 34 34 77 134 59 59 83 133 33 33 76 116 70 70 77 134 59 59 46 112 34 34 70 100 31 31 42 44 30 30 44 46 32 32 69 132 29 29 42 44 30 30 70 100 31 31 92 137 72 72 2 136 2 2 0 135 0 0 93 138 73 73 2 136 2 2 92 137 72 72 1 140 63 63 92 123 64 64 0 139 62 62 63 124 65 65 92 123 64 64 1 140 63 63 94 141 35 35 23 23 16 16 25 25 17 17 50 52 36 36 23 23 16 16 94 141 35 35 91 142 59 59 45 142 33 33 81 142 55 55 81 143 55 55 45 47 33 33 43 45 31 31 65 144 27 27 69 77 29 29 67 75 52 52 83 145 33 33 77 145 59 59 72 145 55 55 51 53 37 37 49 51 16 16 21 21 15 15</p>
				</triangles>
			</mesh>
		</geometry>
	</library_geometries>
	<library_controllers>
		<controller id="polygon0_Controller">
			<skin source="#polygon0">
				<bind_shape_matrix>1 0 0 0 0 1 0 0 0 0 1 0 0 0 0 1</bind_shape_matrix>
				<source id="polygon0_Joints">
					<Name_array id="polygon0_JointArr" count="1">enm_pawn_qua_Head</Name_array>
					<technique_common>
						<accessor source="#polygon0_JointArr" count="1">
							<param name="JOINT" type="Name" />
						</accessor>
					</technique_common>
				</source>
				<source id="polygon0_Matrices">
					<float_array id="polygon0_MatArr" count="16">1 0 0 0 0 1 0 0 0 0 1 0 0 0 0 1</float_array>
					<technique_common>
						<accessor source="#polygon0_MatArr" count="1" stride="16">
							<param type="float4x4" />
						</accessor>
					</technique_common>
				</source>
				<source id="polygon0_Weights">
					<float_array id="polygon0_WeightArr" count="1">1</float_array>
					<technique_common>
						<accessor source="#polygon0_WeightArr" count="1">
							<param type="float" />
						</accessor>
					</technique_common>
				</source>
				<joints>
					<input semantic="JOINT" source="#polygon0_Joints" />
					<input semantic="INV_BIND_MATRIX" source="#polygon0_Matrices" />
				</joints>
				<vertex_weights count="97">
					<input semantic="JOINT" offset="0" source="#polygon0_Joints" />
					<input semantic="WEIGHT" offset="1" source="#polygon0_Weights" />
					<vcount>1 1 1 1 1 1 1 1 1 1 1 1 1 1 1 1 1 1 1 1 1 1 1 1 1 1 1 1 1 1 1 1 1 1 1 1 1 1 1 1 1 1 1 1 1 1 1 1 1 1 1 1 1 1 1 1 1 1 1 1 1 1 1 1 1 1 1 1 1 1 1 1 1 1 1 1 1 1 1 1 1 1 1 1 1 1 1 1 1 1 1 1 1 1 1 1 1</vcount>
					<v>0 0 0 0 0 0 0 0 0 0 0 0 0 0 0 0 0 0 0 0 0 0 0 0 0 0 0 0 0 0 0 0 0 0 0 0 0 0 0 0 0 0 0 0 0 0 0 0 0 0 0 0 0 0 0 0 0 0 0 0 0 0 0 0 0 0 0 0 0 0 0 0 0 0 0 0 0 0 0 0 0 0 0 0 0 0 0 0 0 0 0 0 0 0 0 0 0 0 0 0 0 0 0 0 0 0 0 0 0 0 0 0 0 0 0 0 0 0 0 0 0 0 0 0 0 0 0 0 0 0 0 0 0 0 0 0 0 0 0 0 0 0 0 0 0 0 0 0 0 0 0 0 0 0 0 0 0 0 0 0 0 0 0 0 0 0 0 0 0 0 0 0 0 0 0 0 0 0 0 0 0 0 0 0 0 0 0 0 0 0 0 0 0 0</v>
				</vertex_weights>
			</skin>
		</controller>
	</library_controllers>
	<library_visual_scenes>
		<visual_scene id="RootNode" name="RootNode">
			<node id="enm_pawn_qua_Head" name="enm_pawn_qua_Head" sid="enm_pawn_qua_Head" type="JOINT" />
			<node id="polygon0" name="polygon0" type="NODE">
				<instance_controller url="#polygon0_Controller">
					<skeleton>#enm_pawn_qua_Head</skeleton>
					<bind_material>
						<technique_common>
							<instance_material symbol="enm_eggpawn_quacos__enMetal__D__" target="#enm_eggpawn_quacos__enMetal__D__">
								<bind_vertex_input semantic="TEXCOORD0" input_semantic="TEXCOORD" input_set="0" />
								<bind_vertex_input semantic="TEXCOORD0" input_semantic="TEXCOORD" input_set="0" />
								<bind_vertex_input semantic="TEXCOORD0" input_semantic="TEXCOORD" input_set="0" />
								<bind_vertex_input semantic="TEXCOORD1" input_semantic="TEXCOORD" input_set="1" />
							</instance_material>
						</technique_common>
					</bind_material>
				</instance_controller>
			</node>
		</visual_scene>
	</library_visual_scenes>
	<scene>
		<instance_visual_scene url="#RootNode" />
	</scene>
</COLLADA>