# Blender v2.79 (sub 0) OBJ File: ''
# www.blender.org
mtllib Dash Panel.mtl
o Mesh_0077
v -0.956000 0.236900 -0.719200
v 0.956000 0.236900 -0.719200
v -0.956000 0.236900 2.500000
v 0.956000 0.236900 2.500000
vt 0.000000 -1.000000
vt 0.000000 0.000000
vt 1.000000 -1.000000
vt 1.000000 0.000000
vn 0.0000 1.0000 0.0000
usemtl Tex_0017_0_png
s 1
f 1/1/1 3/2/1 2/3/1
f 2/3/1 3/2/1 4/4/1
o Mesh_0066
v 0.956000 0.236900 2.500000
v 0.956000 0.236900 -0.719200
v 1.381600 0.293900 2.500000
v 1.381600 0.293900 -0.719200
v 0.956000 0.236900 -2.038300
v 0.955500 0.000000 -2.500000
v 1.563400 0.293900 -2.038300
v 1.563500 0.000000 -2.500000
v 2.092300 0.000000 -2.038300
v 1.914800 -0.000000 2.500000
v 0.956000 -0.000000 2.500000
v 1.914800 0.000000 -0.719200
v -0.956000 0.236900 -2.038300
v -0.956000 0.236900 -0.719200
v -1.381600 0.293900 -0.719200
v -1.381600 0.293900 2.500000
v -0.956000 0.236900 2.500000
v -2.092300 0.000000 -2.038300
v -1.563500 0.000000 -2.500000
v -1.563400 0.293900 -2.038300
v -0.955500 0.000000 -2.500000
v -0.956000 -0.000000 2.500000
v -1.914800 -0.000000 2.500000
v -1.914800 0.000000 -0.719200
vt 0.000000 -1.000000
vt 0.000000 -0.500000
vt 0.500000 -1.000000
vt 0.500000 -0.500000
vt 0.000000 0.000000
vt 0.168000 0.000000
vt 0.000000 -0.500000
vt 0.168000 -0.500000
vt 0.371100 -0.500000
vt 0.699200 -0.507800
vt 0.628900 -0.507800
vt 0.742200 -0.730500
vt 0.519500 -0.730500
vt 0.496100 -0.003900
vt 0.003900 -0.003900
vt 0.496100 -0.496100
vt 0.003900 -0.496100
vt 0.000000 0.000000
vt 0.000000 -0.500000
vt 0.222700 0.000000
vt 0.222700 -0.500000
vt 0.742200 -0.515600
vt 0.500000 -0.515600
vt 0.742200 -0.746100
vt 0.500000 -0.746100
vt 1.000000 -0.500000
vt 0.500000 -0.500000
vt 1.000000 0.000000
vt 0.500000 0.000000
vt 0.500000 -1.000000
vt 0.000000 -1.000000
vt 0.500000 -0.500000
vt 0.000000 -0.500000
vt 0.371100 -0.500000
vt 0.168000 0.000000
vt 0.168000 -0.500000
vt 0.000000 -0.500000
vt 0.000000 0.000000
vt 0.519500 -0.730500
vt 0.628900 -0.507800
vt 0.742200 -0.730500
vt 0.699200 -0.507800
vt 0.003900 -0.496100
vt 0.003900 -0.003900
vt 0.496100 -0.496100
vt 0.496100 -0.003900
vt 0.222700 -0.500000
vt 0.000000 -0.500000
vt 0.222700 0.000000
vt 0.000000 0.000000
vt 0.500000 -0.746100
vt 0.500000 -0.515600
vt 0.742200 -0.746100
vt 0.742200 -0.515600
vt 0.500000 -0.253900
vt 0.500000 0.000000
vt 1.000000 -0.253900
vt 1.000000 0.000000
vt 1.000000 -0.246100
vt 1.000000 -0.246100
vt 1.000000 0.000000
vt 1.000000 0.000000
vn -0.1327 0.9912 0.0000
vn -0.0832 0.8867 -0.4549
vn -0.2199 0.7374 -0.6387
vn 0.0000 0.8436 -0.5370
vn 0.1041 0.7488 -0.6545
vn -0.0001 0.9215 -0.3884
vn 0.3708 0.6199 -0.6916
vn 0.4245 0.7639 -0.4862
vn 0.2749 0.9085 -0.3148
vn -0.0000 0.0000 1.0000
vn 0.4827 0.8758 0.0000
vn 0.4846 0.8723 0.0655
vn 0.4847 0.8722 0.0661
vn 0.4824 0.8735 0.0649
vn 0.4817 0.8739 0.0655
vn 0.4840 0.8725 0.0667
vn 0.4817 0.8738 0.0664
vn -0.1328 0.9911 -0.0111
vn -0.0997 0.9950 -0.0000
vn -0.0934 0.9956 -0.0046
vn -0.1235 0.9922 -0.0170
vn -0.0934 0.9955 -0.0129
vn 0.0000 1.0000 0.0000
vn 0.1327 0.9912 0.0000
vn -0.4245 0.7639 -0.4862
vn -0.3708 0.6199 -0.6916
vn -0.2749 0.9085 -0.3148
vn 0.0000 0.9215 -0.3884
vn -0.1041 0.7488 -0.6545
vn -0.0000 0.8774 -0.4797
vn 0.2199 0.7374 -0.6387
vn 0.0832 0.8867 -0.4549
vn 0.0252 0.8895 -0.4563
vn -0.4827 0.8758 0.0000
vn -0.4817 0.8738 0.0664
vn -0.4840 0.8725 0.0667
vn -0.4817 0.8739 0.0655
vn -0.4824 0.8735 0.0649
vn -0.4847 0.8722 0.0661
vn -0.4846 0.8723 0.0655
vn 0.0934 0.9955 -0.0129
vn 0.1235 0.9922 -0.0170
vn 0.0934 0.9956 -0.0046
vn 0.0997 0.9950 -0.0000
vn 0.1328 0.9911 -0.0111
vn 0.0000 0.8897 -0.4565
usemtl Tex_0016_0_png
s 1
f 5/5/2 7/6/2 6/7/2
f 6/7/2 7/6/2 8/8/2
f 9/9/3 11/10/4 10/11/3
f 10/11/5 11/10/6 12/12/7
f 11/10/8 13/13/9 12/12/10
f 7/14/11 5/15/11 14/16/11
f 14/16/11 5/15/11 15/17/11
f 8/18/12 7/19/12 16/20/12
f 16/20/12 7/19/12 14/21/12
f 13/22/13 11/23/14 16/24/15
f 16/24/16 11/23/17 8/25/18
f 6/26/2 8/27/19 9/28/20
f 9/28/21 8/27/22 11/29/23
f 9/30/24 17/31/24 6/32/24
f 6/32/24 17/31/24 18/33/24
f 19/34/25 20/35/25 18/36/25
f 18/36/25 20/35/25 21/37/25
f 22/38/26 24/39/27 23/40/28
f 23/40/29 24/39/30 25/41/31
f 24/39/32 17/42/33 25/41/34
f 26/43/11 21/44/11 27/45/11
f 27/45/11 21/44/11 20/46/11
f 27/47/35 20/48/35 28/49/35
f 28/49/35 20/48/35 19/50/35
f 19/51/36 24/52/37 28/53/38
f 28/53/39 24/52/40 22/54/41
f 24/55/42 19/56/43 17/57/44
f 17/57/45 19/56/46 18/58/25
f 25/59/47 17/60/47 10/61/47
f 10/61/47 17/60/47 9/62/47
f 5/63/11 21/64/11 15/65/11
f 15/65/11 21/64/11 26/66/11
